<svg xmlns="http://www.w3.org/2000/svg" viewBox="0 0 127.04 162.22"><defs><style>.cls-1{fill:#0072bc;}.cls-2{fill:#fffef9;}.cls-3,.cls-5{fill:none;}.cls-3{stroke:#888f95;}.cls-3,.cls-5,.cls-9{stroke-miterlimit:1;}.cls-3,.cls-9{stroke-width:0.5px;}.cls-3,.cls-6{fill-rule:evenodd;}.cls-4,.cls-6{fill:#ed1c24;}.cls-5{stroke:#231f20;stroke-width:0.75px;}.cls-7{fill:#231f20;}.cls-8{fill:#fff;}.cls-9{fill:#a7a9ac;stroke:#5d6567;}</style></defs><title>Asset 2</title><g id="Layer_2" data-name="Layer 2"><g id="Layer_1-2" data-name="Layer 1"><path class="cls-1" d="M126.47,0H0L.19,109.88s10.88,36.73,63.52,52.34c7.63-1.3,57.8-18.37,63.33-51.53Z"/><path class="cls-2" d="M120.14,5.35H6.34l.19,101.45s9.75,33.92,57.18,48.39c6.75-1.25,51.93-17,57-47.62Z"/><path class="cls-3" d="M94.42,81.2c0,18.54-13.73,33.58-30.52,33.58s-30.33-15-30.33-33.58S47.12,47.62,63.9,47.62s30.52,15,30.52,33.58Z"/><path class="cls-1" d="M82,41.15c10.87,7.52,18.32,21.33,18.32,37.08,0,23.61-16.4,42.84-36.63,42.84S27.09,101.84,27.09,78.23c0-15.92,7.44-29.73,18.31-37.08-16.21,8.22-27.66,26.93-27.66,49,0,29.37,20.6,53.17,46,53.17s46-23.79,46-53.17c0-21.86-11.44-40.75-27.66-49Z"/><path class="cls-4" d="M119.61,45.7l-5-28.68-4.38,15.91,9.35,12.77Z"/><path class="cls-4" d="M6.68,45.17l5-28.68,4.2,16.09L6.68,45.17Z"/><path class="cls-1" d="M62.95,27.86c19.84,0,37,13.47,44.83,32.71L119.61,45.7C108.16,23.67,87,9,62.95,9,39.1,9,18.12,23.49,6.49,45L18.31,59.86c8-18.89,25-32,44.64-32Z"/><path class="cls-5" d="M73.25,81c0,18.36-4,33.4-9,33.4s-9-15-9-33.4c0-18.19,4-33.23,9-33.23s9,15,9,33.23Z"/><path class="cls-5" d="M85.08,81c0,18.36-9.35,33.4-21,33.4s-21-15-21-33.4c0-18.19,9.35-33.23,21-33.23s21,15,21,33.23Z"/><path class="cls-5" d="M91,66c-5.91,3.85-15.45,6.3-26.52,6.3-11.26,0-21.37-2.8-27.09-6.82"/><path class="cls-5" d="M37.39,96.24c5.92-3.85,15.45-6.3,26.52-6.3,11.25,0,21.37,2.8,27.09,6.82"/><path class="cls-5" d="M33.76,82.6H94.23"/><path class="cls-5" d="M63.9,48.15v66.11"/><path class="cls-4" d="M50.74,111.63s13.55-13.47,25.95.35c0,0-7.63,3.5-13.16,2.8-5.53-.88-.39-.18-.39-.18s-10.49-.35-12.4-3Z"/><path class="cls-6" d="M41.4,57.77c19.45-18,39.29-8.75,47.87,3.85,0,0-5.53.87-7.25,4.89a7.65,7.65,0,0,0,1.15,3.68,4.64,4.64,0,0,0,0,3.84c.95,1.75,1.53,3.33,3.24.7a25.15,25.15,0,0,0,.76-2.62l-.38-1.4s2.1,0,2.48,1.4A10.34,10.34,0,0,0,90,74.38a9.69,9.69,0,0,1-.38,2.8c-.19,1-1.53,5.77-1.53,7,0,1.4-1.14,5.59-1.14,6.29a7,7,0,0,1-.58,2.1c-.19.52-2.1,5.42-2.47,5.59-.39,0-.58-1.75-.39-3.67s.19-8-.76-7.34C81.65,88,82,87,82,87s1.33-7-.95-6.12a10.15,10.15,0,0,1-.38-5.07c.38-2.45,1-2.62,1-2.62s.95-2.1-.57-3c-1.34-.7-5.54-2.45-5.54,1.75a31.93,31.93,0,0,1-.18,3.5c-.39,1,.18,3.68-.2,5.6-.19,1.92-1,7.52-.76,8.22A9.12,9.12,0,0,1,75,92.39c-.38.7-1.33,3.5-1.33,3.5a3,3,0,0,0-1.9,4c.38,1.57,0,1.75,0,1.75l-2.67.18a13.86,13.86,0,0,0,.19-4,34.78,34.78,0,0,0-1.33-6.47s1.53-.7,1.53-3.32c-.2-2.45-1-2.28-.58-4.55s-.58-4-1-4,.57-.35-.57-2.28c-1.15-1.75-1-4.55-1-5.25v-2.1s1.34-5.59,1-6.12c-.19-.7-1.53-3.32-1.53-3.32s-1.9-1.22-1.52-2.27c.19-.87.57-4.37.57-4.37s.19-3.85-1-3A11.76,11.76,0,0,0,61.61,53c-.19.34-1.33,3.32-1.33,3.32l-.77,2.45-1.91,2.09s-.76-3.67-2.1-2.27a6.58,6.58,0,0,0-1.91,2.1l.57,3.15s1.14,2.28,2.49,1.4a7.76,7.76,0,0,1,.18,2.8,7,7,0,0,1-1.53,1.22s-1.53-1.57-2.48-.35c-1.14,1-1.91,1.23-1.14,4.54.57,3.15,1,4.2,1.72,3.85,1-.35,1.72,1.75,1.72,1.75s-1.72,1.92-.2,5.07a26.07,26.07,0,0,1,1.73,5.77,8.7,8.7,0,0,0-1.15,3.85c-.38,1.75-1.91,2.45-2.1,3.5-.19,1.22-.39,3-.39,3s-.19,3-1,1.4-1.53-2.1-1.15-2.62,1.15-.18.77-1.74c-.19-1.4,0-1.75-.57-2.63-.58-.7-2.48-6.82-2.67-7.34-.38-.52-1.33-1.74-1.9-1.74s-.19-3.15-.19-3.15-.58-2.1-1-4.2a7.44,7.44,0,0,1,.38-5.07,19.38,19.38,0,0,0,.58-3s1-2.27-.38-2.45a28.28,28.28,0,0,0-4.39.18l-1-.88s.19,0,.39-1.75c.18-1.58,0-2.62.18-3.5.38-.7,1.72-3.15.2-4Z"/><path class="cls-7" d="M41.4,102.53,49.21,79.8c1-2.44,12-4.19,15.84.35v22.39Z"/><path class="cls-8" d="M56.08,78.05c-3.25.18-5.34,1.23-5.73,1.75,0,.18-6.1,17.84-7.25,21.34h20.6v-21c-1.33-1.4-4.2-2.27-7.63-2.09Z"/><path class="cls-7" d="M41.58,102.37c5-4.2,16.22-5.42,23.46,0H41.4"/><path class="cls-7" d="M87.56,102.53l-8-22.74c-1-2.44-12-4.19-15.83.35v22.39Z"/><path class="cls-8" d="M72.68,78.05c3.25.18,5.34,1.23,5.72,1.75.19.18,6.1,17.84,7.25,21.34H65v-21c1.52-1.4,4.39-2.27,7.63-2.09Z"/><path class="cls-7" d="M87.17,102.37c-5-4.2-16-5.42-23.46,0H87.36"/><path class="cls-8" d="M24.61,108.66H22.89c2.1,7.7,7.63,6.64,7.63,6.64.76,0-.76-2.44-1.14-3.15a9.58,9.58,0,0,0,1.91-3.85,18.29,18.29,0,0,0-1.33-7c0-.18,0,0-.57.17a5.36,5.36,0,0,0-.38-3c-.19-.7-.38-1.57-.76-3h-.58c.38-4-.38-5.07-.76-5.77a4.87,4.87,0,0,1-.57,1.05c.57-1.05.39-2.28.2-3.68,0-2.28-.58-2.28-1-2.28a8.56,8.56,0,0,0,.76-5.77c-.19-1.75-.38-1.4-.76-1.4a10.23,10.23,0,0,0,1-6.64h-.77c1.71-3.15.57-6.82.38-7.35-1.34.35-2.29,5.42-2.29,6.3-.19,0-.57-.87-.77-1.4a7.15,7.15,0,0,1-.19,1,14.8,14.8,0,0,0-.57,5.95l-.37-.52c-1.72,2.62,0,7.87,0,7.87a11.07,11.07,0,0,1-1.15-1.22,8.38,8.38,0,0,0,.39,7.17c-.39-.35-.39-.35-.76-.35-.58,1.23.19,4.2.76,5.78-.19-.17-.39-.35-.58-.17-.57,1.22,1,4.71,1.53,6.12a1.34,1.34,0,0,0-.76-.35,8.25,8.25,0,0,0,1.33,6.82,10.49,10.49,0,0,0,1.91,1.92ZM23.46,97.12c.38.18,1.52.52,1.52,3.5a1.3,1.3,0,0,0,.57.87c0,.35.19,1.57.19,1.57s-4.2-2.1-4.58-8a25,25,0,0,1,2.29,2.1Zm0-4.37a1.19,1.19,0,0,0,1.15.87c-.58.53-.38,1.4-.58,3-3.62-2.27-3.24-7.35-3.24-7.35,2.48,1.23,2.67,2.62,2.67,3.5Zm-.58-15.22.58,1,.38.7c-1.15,3,.19,6.46.38,7.17l-.38.35a11,11,0,0,0-1-2.8c-2.1-4.9-.76-8-.76-8Zm1-6.47a5.91,5.91,0,0,0,.57,1.75,10.52,10.52,0,0,0-1,4.37s-1.52-2.1-.19-7.17a1.49,1.49,0,0,1,.57,1.05Zm1,1s-1.52-2.27,1.15-7.17A9,9,0,0,1,24.8,72.1ZM24,78.75s-.76-4.54,1.91-7a8.39,8.39,0,0,1-1.91,7Zm.58,7s-1.72-4.37.57-7.52c.38.17.76,0,.76,1.4a10.31,10.31,0,0,1-1.33,6.12Zm-.19,7.18c-.57.17-.76-1.41-1-2.46a7.45,7.45,0,0,1-2.47-8c1.71,1.4,2.47,4.37,2.86,5.42-.57,1.92-.38,2.27,0,2.27a6.59,6.59,0,0,1,1.71-4.72,6.9,6.9,0,0,1-1.14,7.52Zm2.48,4a30.43,30.43,0,0,1-1.53,3.14c-.19-1.4,0-2.27-1-3,0,0,.19-4.37,2.48-6.29.19.87.76,4.37,0,6.12ZM28,103.76c-1.52,1.75-1,4.2-.76,5.59-.76.35-3.25-2.27-4-3.15-2.28-3.67-1.15-5.42-1.15-5.42a4,4,0,0,1,1.53,1.05,27.86,27.86,0,0,1,2.29,2.27c.38.52.38.35.58.17a11.68,11.68,0,0,1-.58-3.14c-.19-1.05,1.91-4.55,1.91-4.55.19.53.38,1.4.76,2.62a5.49,5.49,0,0,1-.57,4.55Zm1,7.69a7.81,7.81,0,0,1-1.34-5.95c.76-1,1.53-2.8,2.1-3.32.38,1.22,1.72,4.72.57,7.35-.57,1.23-1.15,2.1-1.34,1.93Zm-5.53-2.27A7.8,7.8,0,0,1,25,109a17.35,17.35,0,0,0,2.48,1.05A20.13,20.13,0,0,1,30.14,115c-5,0-6.67-5.77-6.67-5.77Z"/><path class="cls-8" d="M104.92,106.74a8.28,8.28,0,0,0,1.33-6.82,2.49,2.49,0,0,0-1,.35c.76-1.4,2.29-4.9,1.72-6.12-.19-.18-.38,0-.57.17.57-1.58,1.34-4.55.76-5.78a1.09,1.09,0,0,0-1,.35,8.35,8.35,0,0,0,.57-7.17,14.29,14.29,0,0,0-1.14,1.22s1.53-5.24,0-7.87l-.38.52a14.64,14.64,0,0,0-.76-5.95v-1a8.92,8.92,0,0,0-.76,1.4c-.19-.87-1-5.94-2.29-6.3-.19.53-1.52,4.2.19,7.35h-.57a10.21,10.21,0,0,0,1,6.64c-.38,0-.57-.35-1,1.4a10.89,10.89,0,0,0,1,5.77c-.38,0-1,0-1.15,2.28,0,1.4-.19,2.62.38,3.68l-.76-1.05c-.19.7-.95,1.75-.76,5.77h-.38c-.38,1.4-.57,2.27-.76,3a5.39,5.39,0,0,0-.37,3c-.58-.17-.58-.35-.58-.17a15.13,15.13,0,0,0-1.33,7,9.52,9.52,0,0,0,1.91,3.85c-.38.7-1.91,3.15-1.34,3.15,0,0,5.72,1.05,7.82-6.64H103a10.81,10.81,0,0,0,1.91-1.92ZM106.44,95c-.38,5.94-4.58,8-4.58,8s.19-1.22.19-1.57c0,0,.38-.17.38-.87.19-3,1.33-3.32,1.71-3.5a12.45,12.45,0,0,1,2.29-2.1Zm.38-5.78s.38,5.08-3.24,7.35c-.19-1.57-.19-2.44-.57-3a.87.87,0,0,0,1-.87c.18-.88.38-2.28,2.85-3.5ZM105.49,76s1.33,3.15-.76,8a23.39,23.39,0,0,0-1.15,2.8.52.52,0,0,1-.19-.35c.19-.7,1.33-4.2.19-7.17.19,0,.39-.35.57-.7a3.32,3.32,0,0,1,.38-1ZM104.15,70c1.53,5.07,0,7.17,0,7.17a25.43,25.43,0,0,0-.95-4.37,6.27,6.27,0,0,0,.57-1.75,2.49,2.49,0,0,1,.38-1.05Zm-2.48-5.07c2.67,4.89,1.14,7.17,1.14,7.17a8.24,8.24,0,0,1-1.14-7.17Zm-.19,6.82c2.86,2.45,1.91,7,1.91,7a9.18,9.18,0,0,1-1.91-7Zm0,7.87c.19-1.4.57-1.23.77-1.4,2.48,3.15.76,7.52.76,7.52a12.57,12.57,0,0,1-1.53-6.12Zm.57,5.77a6.58,6.58,0,0,1,1.72,4.72c.38,0,.57-.35,0-2.27.38-1,1.15-4,2.86-5.42a7.47,7.47,0,0,1-2.48,8c-.18,1-.57,2.63-.95,2.46a6.9,6.9,0,0,1-1.15-7.52Zm-1.33,5.42C103,92.74,103,97.12,103,97.12c-.76.7-.58,1.57-1,3-.19-.53-1-1.92-1.33-3.14a11.06,11.06,0,0,1,0-6.12ZM99,99.21c.38-1.22.57-2.1.76-2.62,0,0,2.1,3.5,1.91,4.55a12,12,0,0,1-.57,3.14c.19.18,0,.35.57-.17a27.89,27.89,0,0,1,2.29-2.27,4,4,0,0,1,1.52-1.05s1,1.75-1.34,5.42c-.76.87-3,3.5-4,3.15.37-1.4.95-3.85-.77-5.59A5.77,5.77,0,0,1,99,99.21Zm-1.71,10.32c-1.34-2.62.18-6.12.57-7.35.57.52,1.33,2.28,2.1,3.32a7.81,7.81,0,0,1-1.34,5.95c-.37.17-.76-.7-1.33-1.93Zm.18,5.42a20.18,20.18,0,0,1,2.68-4.89c.95-.35,2.1-.88,2.47-1.05a5.06,5.06,0,0,1,1.34.18S102.44,115,97.47,115Z"/><path class="cls-8" d="M50.93,127.72a9.58,9.58,0,0,1-1.71,5.78,5.68,5.68,0,0,1-4.38,2.27h-2.1v-9.62H45v7a2.82,2.82,0,0,0,2.48-1.58,5.57,5.57,0,0,0,1.15-3.49c0-1.93-.77-2.8-2.29-2.8h-4l.57-2.45h4.2A3.57,3.57,0,0,1,50,124a6.68,6.68,0,0,1,.95,3.67Z"/><path class="cls-8" d="M62.95,125.27H60.47a3.1,3.1,0,0,0-1.9.87,6.67,6.67,0,0,0-1.34,2.8h3.06v-2.8h2.29v9.62H60.28v-4.37H57a13,13,0,0,0,1,4.54l-1.91,1.58a15.29,15.29,0,0,1-1.53-6.3,9.76,9.76,0,0,1,1.91-6.3,5.73,5.73,0,0,1,4.76-2.09h1.34Z"/><path class="cls-8" d="M86,135.76H83.74v-8.22h-.19l-2.1,3.5-1.91-3.5h-.38v8.22H76.87V122.82h2.29l2.29,4,2.29-4H86v12.94Z"/><path class="cls-8" d="M74.3,135.76H72v-8.22h-.19l-2.1,3.5-1.91-3.5h-.38v8.22H65.14V122.82h2.29l2.29,4,2.29-4H74.3v12.94Z"/><path class="cls-7" d="M49.4,83.47c1.14,1.22,1.91,1,2.67-.35,1-1.57,1.72-1.22,2.67.35.76.87,1.15,1.93,1.92,2.8,1.14,1,2.66-.53,3.43-1.4.38-.35-.19-1.75,0-2.09-1,1.22-2.1,2.09-3.43,1.4-1-.52-1.53-2.45-2.11-3.32-.38-.7-1.33-1.57-1.91-.52-1.14,1.4-1.72,2.62-3.25,1,.39.35-.38,1.75,0,2.1Z"/><path class="cls-7" d="M49.4,87.67c1.14,1,1.91.87,2.67-.35,1-1.57,1.72-1.4,2.67.18.76,1,1.15,2.1,1.92,3,1.14,1,2.66-.52,3.43-1.4.38-.35-.19-1.75,0-2.1-1,1.05-2.1,2.1-3.43,1.4-1-.53-1.53-2.45-2.11-3.33-.38-.7-1.33-1.57-1.91-.52-1.14,1.4-1.72,2.62-3.25,1.05.39.17-.38,1.74,0,2.09Z"/><path class="cls-7" d="M49.4,91.86c1.14,1.06,1.91.88,2.67-.35,1-1.75,1.91-1.4,2.67.18a19.25,19.25,0,0,0,1.92,2.79c1.14,1.23,2.66-.52,3.43-1.22.38-.52-.19-1.92,0-2.1-1,1.05-2.1,1.93-3.43,1.23-1-.35-1.53-2.45-2.11-3.32-.38-.53-1.33-1.4-1.91-.53-1.14,1.58-1.72,2.62-3.25,1.23.39.18-.38,1.57,0,2.1Z"/><path class="cls-7" d="M49.4,95.89c1.14,1.23,1.91,1.05,2.67-.35,1-1.58,1.72-1.22,2.67.35.76.87,1.15,2.1,1.92,2.8,1.14,1,2.66-.53,3.43-1.23.38-.52-.19-1.92,0-2.27-1,1.22-2.1,2.1-3.43,1.4-1-.52-1.53-2.44-2.11-3.32-.38-.52-1.33-1.57-1.91-.52-1.14,1.4-1.72,2.62-3.25,1,.39.35-.38,1.75,0,2.1Z"/><path class="cls-7" d="M79,81.37c-1.52,1.57-2.1.35-3.25-1-.57-1-1.52-.18-1.9.52-.77,1.05-1.15,2.45-2.1,3.32-1.15,1.05-2.67-.52-3.44-1.4.19.34-.38,1.74,0,2.09,1,1.23,2.1,2.1,3.44,1.4.95-.35,1.33-2.1,1.9-2.8.76-1.57,1.72-1.93,2.67-.35.76,1.4,1.53,1.4,2.67.35.38-.35-.38-1.75,0-2.1Z"/><path class="cls-7" d="M79,85.58c-1.52,1.57-2.1.35-3.25-1.05-.57-1-1.52-.17-1.9.52a34,34,0,0,1-2.1,3.33c-1.15,1.05-2.67-.53-3.44-1.4.19.35-.38,1.74,0,2.1,1,1,2.1,2.09,3.44,1.4.95-.52,1.33-2.09,1.9-3,.76-1.57,1.72-1.75,2.67-.18.76,1.4,1.53,1.4,2.67.35.38-.35-.38-1.93,0-2.09Z"/><path class="cls-7" d="M79,89.77c-1.52,1.4-2.1.35-3.25-1.23-.57-.87-1.52,0-1.9.53-.77,1.22-1.15,2.44-2.1,3.32-1.15,1.22-2.67-.53-3.44-1.23.19.18-.38,1.58,0,2.1,1,1.05,2.1,1.93,3.44,1.22.95-.34,1.33-1.92,1.9-2.79.76-1.58,1.72-1.93,2.67-.18.76,1.23,1.53,1.41,2.67.35.38-.52-.38-1.92,0-2.1Z"/><path class="cls-7" d="M79,93.79c-1.52,1.57-2.1.35-3.25-1-.57-1-1.52,0-1.9.52-.77,1.05-1.15,2.45-2.1,3.32-1.15,1-2.67-.52-3.44-1.4.19.35-.38,1.75,0,2.27,1,1.05,2.1,1.93,3.44,1.23.95-.35,1.33-2.1,1.9-2.8.76-1.57,1.72-1.92,2.67-.35.76,1.4,1.53,1.4,2.67.35.38-.35-.38-1.74,0-2.1Z"/><path class="cls-5" d="M94.42,81.2c0,18.54-13.73,33.58-30.52,33.58s-30.33-15-30.33-33.58S47.12,47.62,63.9,47.62s30.52,15,30.52,33.58Z"/><path class="cls-9" d="M56.66,69.31S62.57,73,63.52,87.67c0,0,12-.7,13.73,3.5,0,0-2.1,6,3.82,4l.18-1.58L62.95,65.11a25.16,25.16,0,0,0-6.29,4.2Z"/><path class="cls-7" d="M67,86.1l-2.48-4-.57-.7V80L62,76.82l.38-.35.95.88.58,1.57.76,1.93,1,2.09,1.72,1.4v1.58Z"/><path class="cls-7" d="M67,86.1l-2.48-4-.57-.7V80L62,76.82l.38-.35.95.88.58,1.57.76,1.93,1,2.09,1.72,1.4v1.58"/><path class="cls-7" d="M67.91,84.35l-.76-.87-1-1.23L64.86,79.8l-.77-1.4a1.32,1.32,0,0,1-.77-1,3.91,3.91,0,0,0-.57-1.75c-.19-.34-.57-.87-.57-.87l1.14,1.58,1.15,1.4,1.14,1.93,1.15,1.92.38.7.38.35L68.1,84Z"/><path class="cls-7" d="M69.44,85.58l.76-.18a9.9,9.9,0,0,0-.76-1.4c-.2-.18-1.72-2.62-1.91-3a31.61,31.61,0,0,1-1.91-2.8,11.44,11.44,0,0,1-1.52-1.92,23.91,23.91,0,0,0-1.34-2.8L62.38,73l.19.7,1.53,3.14L66,79.45l1.14,2.09s1.53,1.57,1.14,2.1c-.19.35,1.15,1.93,1.15,1.93Z"/><path class="cls-7" d="M71.34,85.58l.77-.18s-.58-1.23-1-1.4c-.19-.18-1.71-2.62-1.91-3a32.13,32.13,0,0,1-1.91-2.8s-1.15-1.4-1.53-1.92c-.19-.7-1.14-2.8-1.14-2.8L64.09,73l.19.7,1.52,3.14,2.1,2.63,1,2.09s1.53,1.57,1.33,2.1c-.37.35,1.14,1.93,1.14,1.93Z"/><path class="cls-7" d="M42.92,57.77s9,12.94,9.35,13.46c0,0,1,1.93,2.86-.34l1.53-1.58,6.66-4.54s2.29-1.22.58-3L47.31,36.25,50.55,42l-3.24-4.2L49,41.15,48.26,41l1,1.22,9.92,15.91,3.62,5.43a1,1,0,0,1-1.14,1.22S56.27,69,55.13,69.66l-4.77-6.82,3.25,5.6-.19.35L49.4,63l-.19.53,1.33,2.79-6.86-9.27.38,1.4-.76-1-.57.17Z"/><path class="cls-8" d="M19.33,36.92l-3.14,4,1.88,1.46c0-.14,0-.6,0-1.41a8,8,0,0,1,.35-1.83l1.22-.4a9.72,9.72,0,0,0,.71,1.3,3.47,3.47,0,0,0,.44.5,7.65,7.65,0,0,0,.61.52,1.91,1.91,0,0,0,.27.17l.38.19a3.11,3.11,0,0,0,.69.25l-.38.29a8,8,0,0,1-2.55-1.32,1.58,1.58,0,0,1-.23-.24q-.15-.18-.35-.47A3.64,3.64,0,0,0,19,41.63a3.47,3.47,0,0,0,.45,1.58l-1.11.19-2.51-1.94-.48.62-.8.12,4-5.12Z"/><path class="cls-8" d="M18.29,43.52l-2.45-1.9-.44.56-1.16.18L18.44,37l1.18-.21-3.26,4.2L18,42.17c0-.23,0-.62,0-1.16a8,8,0,0,1,.36-1.86l0-.06,1.38-.45,0,.1A9.67,9.67,0,0,0,20.46,40a3.37,3.37,0,0,0,.42.48,7.54,7.54,0,0,0,.6.51,1.74,1.74,0,0,0,.25.16l.37.19a3,3,0,0,0,.66.23l.29,0-.66.5-.06,0a8.17,8.17,0,0,1-2.59-1.34,1.71,1.71,0,0,1-.25-.26l-.22-.29a3.61,3.61,0,0,0-.16,1.39,3.37,3.37,0,0,0,.43,1.52l.09.16Zm-2.5-2.25,2.56,2,.89-.15a3.67,3.67,0,0,1-.38-1.47,3.77,3.77,0,0,1,.25-1.72l.09-.21.13.19c.13.19.25.35.35.46a1.45,1.45,0,0,0,.21.22,7.92,7.92,0,0,0,2.46,1.28l.12-.09L22,41.58l-.38-.19a2,2,0,0,1-.29-.18,7.81,7.81,0,0,1-.62-.53,3.62,3.62,0,0,1-.46-.52,9.15,9.15,0,0,1-.67-1.22l-1,.34A7.65,7.65,0,0,0,18.21,41c0,.83,0,1.28,0,1.42l0,.22L16,41l3-3.89-.45.08L14.83,42l.44-.07Z"/><path class="cls-8" d="M20.83,35.4l-1.07,1.2L24,40.35l-.74.16-2.93-2.59a1.41,1.41,0,0,0-.4-.26,1.18,1.18,0,0,0-.33-.09h-.41l-.29.06-.08.09-.82.09.41-.46a.49.49,0,0,1,.34-.17,2.32,2.32,0,0,1,.53,0,3.73,3.73,0,0,1,.91.27l-1.23-.77L18.11,36l.28-.06.28.18.16.09a.93.93,0,0,0,.52.07l.67-.75Z"/><path class="cls-8" d="M23.2,40.64l0,0L20.22,38a1.29,1.29,0,0,0-.36-.24,1.06,1.06,0,0,0-.29-.08h-.38l-.24,0-.08.1-1.19.13.62-.7a.61.61,0,0,1,.42-.21,2.51,2.51,0,0,1,.56,0h0l-.43-.27-1-.92.58-.12.07,0,.25.16.14.08a.79.79,0,0,0,.41.06l.67-.76,1.18-.12-1.2,1.35,4.31,3.82ZM19.33,37.4h.05l.15,0h.05a1.27,1.27,0,0,1,.37.1,1.54,1.54,0,0,1,.43.28l2.88,2.55.44-.09-4.13-3.66.94-1.06-.45,0-.67.75h0a1,1,0,0,1-.58-.07l-.18-.1-.18-.12.6.53,1.21.75-.12.22a3.56,3.56,0,0,0-.88-.27,2.31,2.31,0,0,0-.51,0,.37.37,0,0,0-.25.13l-.19.21.45,0,.07-.08h0l.31-.06Z"/><path class="cls-8" d="M24.76,31.53l-1.11,1.09,4,4a2.67,2.67,0,0,1-.47-.06l-.88-.2a3.65,3.65,0,0,0-2.08.27,2.55,2.55,0,0,0-.45.22,2.49,2.49,0,0,0-.41.33l-1.25-.13a16,16,0,0,1,1.42-3.75L23.21,33l-2.8,2.75-.81,0L24,31.53Zm1.44,4.55L24.05,33.9a7.44,7.44,0,0,0-.9,2.46A5.19,5.19,0,0,1,24.68,36,5,5,0,0,1,26.2,36.08Zm-.52,1.18a.54.54,0,0,1,.16.4.58.58,0,0,1-.18.42.83.83,0,0,1-.48.24.53.53,0,0,1-.46-.17.49.49,0,0,1-.14-.41.72.72,0,0,1,.22-.43.71.71,0,0,1,.45-.2A.51.51,0,0,1,25.68,37.26Z"/><path class="cls-8" d="M25.11,38.45a.65.65,0,0,1-.48-.21.61.61,0,0,1-.17-.51.85.85,0,0,1,.26-.51.84.84,0,0,1,.53-.23.62.62,0,0,1,.52.19h0a.66.66,0,0,1,.2.48.7.7,0,0,1-.22.51,1,1,0,0,1-.55.28Zm.19-1.22h0a.58.58,0,0,0-.37.16.6.6,0,0,0-.19.36.36.36,0,0,0,.1.31.4.4,0,0,0,.35.13.7.7,0,0,0,.41-.21.45.45,0,0,0,.14-.33.42.42,0,0,0-.13-.31h0A.38.38,0,0,0,25.3,37.23Zm-1.94.09-1.46-.15,0-.14a16.31,16.31,0,0,1,1.38-3.7l-.11-.11-2.74,2.7-1.17,0,4.61-4.54h1.16l-1.24,1.22,4.07,4.14h-.29a2.11,2.11,0,0,1-.5-.07l-.89-.2a3.54,3.54,0,0,0-2,.26,2.44,2.44,0,0,0-.43.21,2.38,2.38,0,0,0-.39.31Zm-1.14-.37,1.05.11a2.6,2.6,0,0,1,.39-.3,2.67,2.67,0,0,1,.47-.23,3.78,3.78,0,0,1,2.16-.27l.88.2.11,0-3.79-3.85,1-1H24l-4.09,4h.44l2.85-2.81.41.42,0,.08A15.88,15.88,0,0,0,22.21,36.95Zm.77-.4,0-.23a7.6,7.6,0,0,1,.91-2.5l.08-.14,2.56,2.6-.41-.09a4.94,4.94,0,0,0-1.48-.12,5.11,5.11,0,0,0-1.49.38Zm1.09-2.45a7.34,7.34,0,0,0-.76,2.05,5.08,5.08,0,0,1,1.35-.32,4.78,4.78,0,0,1,1.16,0Z"/><path class="cls-8" d="M26.39,30.24,24.26,32.1h-.83l2.11-1.84Zm.24,2.4a1,1,0,0,1,.19.31,1,1,0,0,1,.06.3,1.54,1.54,0,0,1,0,.32,1.21,1.21,0,0,1-.16.39l-.08.11a.53.53,0,0,1-.13.12,1.77,1.77,0,0,1-1,.32H24.4l-.26-.3A3.71,3.71,0,0,0,25.89,34a.78.78,0,0,0,.29-.53.68.68,0,0,0-.19-.53.69.69,0,0,0-.7-.2l.22.19a.4.4,0,0,1,.07.4.81.81,0,0,1-.25.41.45.45,0,0,1-.38.1.56.56,0,0,1-.21-.08.64.64,0,0,1-.16-.13.52.52,0,0,1-.11-.23.72.72,0,0,1,0-.33.93.93,0,0,1,.14-.31,1.35,1.35,0,0,1,.21-.23,1.19,1.19,0,0,1,.26-.17,1.29,1.29,0,0,1,.31-.1,1.47,1.47,0,0,1,.36,0,1.24,1.24,0,0,1,.29.05,1.44,1.44,0,0,1,.27.13A1.24,1.24,0,0,1,26.62,32.65Z"/><path class="cls-8" d="M24.88,34.65h-.54l-.48-.55h.27c1.25,0,1.58-.13,1.67-.2a.65.65,0,0,0,.25-.45A.56.56,0,0,0,25.9,33a.5.5,0,0,0-.29-.17.53.53,0,0,1,.09.5.94.94,0,0,1-.29.47.58.58,0,0,1-.48.13.69.69,0,0,1-.26-.09.75.75,0,0,1-.19-.15.64.64,0,0,1-.14-.29.84.84,0,0,1,0-.38,1.06,1.06,0,0,1,.16-.36,1.45,1.45,0,0,1,.23-.26,1.28,1.28,0,0,1,.29-.19,1.4,1.4,0,0,1,.34-.11,1.58,1.58,0,0,1,.4,0,1.33,1.33,0,0,1,.32.06,1.55,1.55,0,0,1,.3.14,1.38,1.38,0,0,1,.31.27h0a1.12,1.12,0,0,1,.22.35,1.09,1.09,0,0,1,.07.33,1.69,1.69,0,0,1,0,.34,1.32,1.32,0,0,1-.18.43l-.09.12a.64.64,0,0,1-.16.15,1.86,1.86,0,0,1-1.05.34Zm-.43-.25h1a1.66,1.66,0,0,0,.92-.29.48.48,0,0,0,.11-.1l.07-.09a1.1,1.1,0,0,0,.14-.35,1.41,1.41,0,0,0,0-.29A.82.82,0,0,0,26.7,33a.88.88,0,0,0-.17-.27h0a1.13,1.13,0,0,0-.25-.22,1.26,1.26,0,0,0-.25-.12,1.09,1.09,0,0,0-.26,0,1.33,1.33,0,0,0-.33,0,1.15,1.15,0,0,0-.28.09,1.07,1.07,0,0,0-.23.15,1.19,1.19,0,0,0-.19.21.8.8,0,0,0-.12.27.6.6,0,0,0,0,.27.41.41,0,0,0,.08.18.51.51,0,0,0,.13.1.44.44,0,0,0,.17.06.33.33,0,0,0,.28-.07.68.68,0,0,0,.21-.34.27.27,0,0,0,0-.28l-.4-.35.25,0a.81.81,0,0,1,.81.25.8.8,0,0,1,.22.62.9.9,0,0,1-.34.62c-.12.1-.41.24-1.56.26Zm-.15-2.17-1.2,0,2.39-2.08h1.23ZM23.75,32h.46l1.84-1.6h-.47Z"/><path class="cls-8" d="M31.66,26.29l-1.26.94,3.37,4.52H33l-1.85-2.49-.08,0-.18-.09a.81.81,0,0,0-.88.09.36.36,0,0,0-.11.37.86.86,0,0,0,.15.37l.22.18-.16.24a2,2,0,0,0-.81-.29,1.29,1.29,0,0,0-.86.29,1.1,1.1,0,0,0-.45.7.93.93,0,0,0,.17.77q.39.52,1.1.11l-.25-.1a.42.42,0,0,1-.16-.12.55.55,0,0,1-.07-.47.68.68,0,0,1,.27-.43.7.7,0,0,1,.65-.09,1,1,0,0,1,.52.35.57.57,0,0,1,0,.6,1.22,1.22,0,0,1-.41.51,2,2,0,0,1-.61.31,1.75,1.75,0,0,1-.64.06,1.43,1.43,0,0,1-1-.61,1.67,1.67,0,0,1-.35-1,1.19,1.19,0,0,1,.49-1,1.51,1.51,0,0,1,1.48-.26v0a.58.58,0,0,1,0-.49.86.86,0,0,1,.23-.45.88.88,0,0,1,.55-.19l.23,0,.32.1.1,0,.25.12-.92-1.23-4,3-.82-.08,5.74-4.27Z"/><path class="cls-8" d="M28.72,32.7h-.15A1.56,1.56,0,0,1,27.44,32a1.8,1.8,0,0,1-.37-1.1,1.31,1.31,0,0,1,.54-1.11A1.64,1.64,0,0,1,29,29.48a1.11,1.11,0,0,1,.05-.36,1,1,0,0,1,.28-.51,1,1,0,0,1,.62-.21h0l.26,0,.25.08-.55-.74L26,30.67l-1.19-.11,6-4.49L32,26.2l-1.41,1.05L34,31.87H32.94l-1.89-2.53,0,0-.18-.09a.68.68,0,0,0-.75.07s-.08.06-.06.25a.74.74,0,0,0,.13.31l.28.23-.28.43-.1-.06a1.92,1.92,0,0,0-.75-.28,1.17,1.17,0,0,0-.78.27,1,1,0,0,0-.4.62.8.8,0,0,0,.15.67.54.54,0,0,0,.69.19.53.53,0,0,1-.19-.15.67.67,0,0,1-.1-.57.81.81,0,0,1,1.08-.61,1.07,1.07,0,0,1,.58.39.68.68,0,0,1,0,.72,1.36,1.36,0,0,1-.45.56,2.14,2.14,0,0,1-.65.33A1.9,1.9,0,0,1,28.72,32.7Zm-.08-3a1.48,1.48,0,0,0-.89.33,1.06,1.06,0,0,0-.44.91,1.56,1.56,0,0,0,.32.95,1.3,1.3,0,0,0,1,.56,1.6,1.6,0,0,0,.59-.06,1.87,1.87,0,0,0,.57-.29,1.09,1.09,0,0,0,.37-.46.45.45,0,0,0,0-.48.82.82,0,0,0-.45-.3.57.57,0,0,0-.54.07.56.56,0,0,0-.22.36.43.43,0,0,0,.05.37.3.3,0,0,0,.11.08l.23.09.27.09-.24.14c-.67.38-1.05.14-1.26-.14a1.05,1.05,0,0,1-.2-.86,1.23,1.23,0,0,1,.5-.78,1.38,1.38,0,0,1,.95-.32,1.94,1.94,0,0,1,.76.25l0-.05L30,30a1,1,0,0,1-.19-.44.48.48,0,0,1,.15-.49.92.92,0,0,1,.93-.13l-.1,0-.26-.12-.07,0-.32-.11-.21,0h0a.76.76,0,0,0-.46.17s-.11.11-.19.38,0,.36,0,.38l.24.33-.37-.12A1.41,1.41,0,0,0,28.65,29.7Zm2.43-.62,0,0a.32.32,0,0,1,.12.08l1.82,2.44h.45L30.22,27.2l1.11-.82-.44-.05-5.44,4,.45,0,4-3,1.28,1.72Z"/><path class="cls-8" d="M40.59,21.51l-1.41.73,2.6,5-.35-.16-.16-.1L41,26.76l-.31-.27a3.28,3.28,0,0,0-1.39-.59,1.65,1.65,0,0,1-.35.94,2.74,2.74,0,0,1-.86.62l-.11,0-.17,0-.56.07a1.26,1.26,0,0,1-.36,0l-.18,0-.3-.1a7.76,7.76,0,0,1-2.77-2l.41-.06a11.73,11.73,0,0,0,1.05.89,2.32,2.32,0,0,0,.62.32,3.23,3.23,0,0,0,.74.16,2.49,2.49,0,0,0,1.45-.25q.92-.48.5-1.28a1.64,1.64,0,0,0-.41-.48q-.35-.3-.57-.19c-.07,0-.15.18-.22.42a.67.67,0,0,1-.25.44q-.92.48-1.23-.12t.63-1.22l.23-.08.32-.07a1.31,1.31,0,0,1,.54,0,3.33,3.33,0,0,1,1,.42,2.22,2.22,0,0,1,.64.79l1.21.64-1.69-3.25-5.29,2.75L32.57,25l7.21-3.74Z"/><path class="cls-8" d="M37.12,27.73l-.23,0-.19-.05-.3-.1a7.92,7.92,0,0,1-2.82-2l-.15-.16-.05,0-1.13-.32,7.53-3.91,1.18.29-1.59.83L42,27.49l-.31-.12-.37-.16a.68.68,0,0,1-.19-.13l-.24-.23-.31-.26a3.43,3.43,0,0,0-1.2-.54,1.7,1.7,0,0,1-.36.88,2.87,2.87,0,0,1-.9.65l-.14,0-.17,0-.57.07Zm-3.2-2.2a7.37,7.37,0,0,0,2.55,1.79l.3.1.17,0a1.24,1.24,0,0,0,.33,0l.55-.07.17,0,.08,0a2.64,2.64,0,0,0,.82-.59,1.53,1.53,0,0,0,.32-.88v-.13h.13a3.41,3.41,0,0,1,1.45.61l.33.28.26.24.13.08h0L39,22.19l1.22-.64-.45-.11L32.91,25l.43.12,5.35-2.78,1.93,3.71L39,25.22l0,0a2.1,2.1,0,0,0-.6-.75,3.22,3.22,0,0,0-1-.4,1.19,1.19,0,0,0-.48,0l-.31.07-.2.07a1.18,1.18,0,0,0-.64.6.58.58,0,0,0,.06.45c.11.21.34.44,1.06.06,0,0,.12-.1.19-.36s.17-.45.28-.5.43,0,.71.21a1.74,1.74,0,0,1,.44.51c.22.42.3,1-.55,1.45a2.62,2.62,0,0,1-1.52.27,3.38,3.38,0,0,1-.77-.17,2.46,2.46,0,0,1-.65-.34,11.84,11.84,0,0,1-1-.86Zm.19-.28,0,0a11.56,11.56,0,0,0,1,.88,2.2,2.2,0,0,0,.58.3,3.09,3.09,0,0,0,.71.15,2.37,2.37,0,0,0,1.38-.24c.55-.29.69-.64.45-1.11a1.53,1.53,0,0,0-.38-.44c-.13-.11-.31-.24-.43-.17s-.07,0-.15.35a.77.77,0,0,1-.32.52c-.85.44-1.23.15-1.4-.17a.82.82,0,0,1-.08-.64,1.39,1.39,0,0,1,.76-.74,1.29,1.29,0,0,1,.25-.09l.33-.07a1.39,1.39,0,0,1,.6,0,3.45,3.45,0,0,1,1,.44,2.32,2.32,0,0,1,.65.8l.82.44-1.44-2.78-5.11,2.65Z"/><path class="cls-8" d="M42.31,21l-1.48.63L43,26.79l-.74-.18L40.76,23a1.43,1.43,0,0,0-.25-.41,1.11,1.11,0,0,0-.26-.22l-.07,0-.11-.07-.18-.08-.29-.07-.11,0-.78-.27.56-.24a.49.49,0,0,1,.38,0,2.28,2.28,0,0,1,.46.27,3.83,3.83,0,0,1,.71.64L40,21.33l-.44-1,.28.07.17.28.11.15a.94.94,0,0,0,.44.28l.93-.4Z"/><path class="cls-8" d="M43.25,27l-1-.25-1.56-3.66a1.32,1.32,0,0,0-.23-.37,1,1,0,0,0-.23-.19l-.08-.06L40,22.38l-.17-.07-.24-.06-.12.05-1.13-.39.86-.37a.62.62,0,0,1,.48,0,2.39,2.39,0,0,1,.49.28h0l-.27-.42-.54-1.27.57.15,0,0,.17.28.09.14a.8.8,0,0,0,.34.23l.93-.4,1.11.4L41,21.67Zm-.86-.46.44.1-2.16-5.07L42,21l-.42-.15-.93.39h0a1.07,1.07,0,0,1-.49-.32L40,20.73l-.11-.18.32.74.77,1.2-.2.15a3.7,3.7,0,0,0-.68-.62,2.19,2.19,0,0,0-.44-.25.37.37,0,0,0-.29,0l-.26.11.43.15.1,0h0l.31.08.21.09.13.08,0,0a1.21,1.21,0,0,1,.29.24,1.57,1.57,0,0,1,.27.44Z"/><path class="cls-8" d="M49.51,18.56l-4,1.32-.17.19a.31.31,0,0,0,0,.16.61.61,0,0,0,.58.39,1.86,1.86,0,0,0,.79-.1,2.7,2.7,0,0,0,1.13-.66l1,.54a3.12,3.12,0,0,0-.22.62,3.18,3.18,0,0,0-.08.73,4.07,4.07,0,0,0,.2,1.34,2,2,0,0,0,.36.62,5.34,5.34,0,0,0,.67.68,1,1,0,0,1-.67.06l-1.07-1.59-.15-.45a1.74,1.74,0,0,1-.07-.35,3.64,3.64,0,0,1,0-.48,3.46,3.46,0,0,1,0-.49,1.68,1.68,0,0,1,.1-.36l-.51.19-.27.1a2.64,2.64,0,0,1-1.45.07,2.49,2.49,0,0,1-.8-.45.13.13,0,0,0-.12,0c-.13,0-.26.28-.37.72a1.91,1.91,0,0,0-.1.88q.11.33.55.19a2.16,2.16,0,0,0,.61-.46,3.09,3.09,0,0,1,.47-.4.4.4,0,0,1,.32,0,2.23,2.23,0,0,1,1.14,1.19,2.39,2.39,0,0,1,0,.67.75.75,0,0,1-.1.37,2.08,2.08,0,0,1-.45.52,1.8,1.8,0,0,1-.59.32q-1.56.51-3-1.25A4.08,4.08,0,0,1,43,23a2.44,2.44,0,0,1-.21-.44s0-.11-.07-.2l-.1-.32,0-.12-.06-.16,0-.13,0-.09v-.06a.71.71,0,0,1,.56.44c0,.07.06.16.1.25l.13.33.38.54a2.59,2.59,0,0,0,1.39.81,1.48,1.48,0,0,0,.91,0,2.06,2.06,0,0,0,.41-.18,2.44,2.44,0,0,0,.37-.27c.28-.25.39-.49.32-.71a.42.42,0,0,0-.19-.22.22.22,0,0,0-.29-.1,2,2,0,0,0-.46.28,1.91,1.91,0,0,1-.52.31,1.32,1.32,0,0,1-1.08-.11,1.39,1.39,0,0,1-.69-.8,1.31,1.31,0,0,1,0-.86c0-.06.06-.15.12-.29l.26-.53-2.37.78L41,20.76l7.73-2.53Z"/><path class="cls-8" d="M45.59,24.88a3.23,3.23,0,0,1-2.41-1.41,4.25,4.25,0,0,1-.33-.46,2.6,2.6,0,0,1-.23-.46s0-.11-.07-.2l-.1-.31,0-.11-.06-.17a1.08,1.08,0,0,1,0-.14l0-.09,0-.26.17,0a.83.83,0,0,1,.64.52l.09.24.14.33.36.51a2.48,2.48,0,0,0,1.33.76,1.38,1.38,0,0,0,.84,0,1.94,1.94,0,0,0,.38-.17,2.31,2.31,0,0,0,.35-.25c.25-.22.34-.41.28-.58a.3.3,0,0,0-.13-.16l0,0s0-.07-.14,0a1.82,1.82,0,0,0-.42.26,2,2,0,0,1-.55.32,1.45,1.45,0,0,1-1.18-.12,1.51,1.51,0,0,1-.75-.87,1.44,1.44,0,0,1,0-.94c0-.06.06-.16.13-.3l.13-.27-2.13.7-1.09-.49,8.08-2.65,1.1.48L45.56,20l-.12.13a.21.21,0,0,0,0,.06c.06.18.21.28.48.31a1.72,1.72,0,0,0,.74-.09,2.59,2.59,0,0,0,1.08-.63l.06-.07,1.24.64-.05.11a3,3,0,0,0-.21.6,3.07,3.07,0,0,0-.08.7,4,4,0,0,0,.19,1.3,1.94,1.94,0,0,0,.34.58,5.25,5.25,0,0,0,.66.67l.17.15-.21.07a1.08,1.08,0,0,1-.76.06h0L48,22.91l-.15-.45a1.88,1.88,0,0,1-.08-.38,3.83,3.83,0,0,1,0-.5,3.58,3.58,0,0,1,0-.51l0-.14-.28.1-.28.1a2.76,2.76,0,0,1-1.52.07,2.57,2.57,0,0,1-.85-.47s-.15.06-.29.62a1.73,1.73,0,0,0-.1.81c0,.07.07.22.39.11a2,2,0,0,0,.56-.43c.43-.4.48-.41.52-.43a.52.52,0,0,1,.41.05,2.36,2.36,0,0,1,1.2,1.26,2.08,2.08,0,0,1,0,.71.87.87,0,0,1-.12.42,2.2,2.2,0,0,1-.48.55,1.93,1.93,0,0,1-.63.34A2.35,2.35,0,0,1,45.59,24.88Zm-3-3.24v0l.06.16,0,.13.1.32.06.18a2.35,2.35,0,0,0,.21.42,4,4,0,0,0,.31.43c.94,1.14,1.88,1.53,2.88,1.21a1.69,1.69,0,0,0,.55-.3,2,2,0,0,0,.42-.49.63.63,0,0,0,.08-.31,2.2,2.2,0,0,0,0-.62,2.12,2.12,0,0,0-1.08-1.12.27.27,0,0,0-.22,0,4.1,4.1,0,0,0-.43.37,2.22,2.22,0,0,1-.66.48c-.48.16-.65-.1-.71-.27a1.94,1.94,0,0,1,.1-1c.13-.5.27-.74.45-.8a.25.25,0,0,1,.23,0,2.41,2.41,0,0,0,.76.43,2.53,2.53,0,0,0,1.39-.06l.27-.09.51-.19.27-.1-.11.26a1.58,1.58,0,0,0-.09.33,3.37,3.37,0,0,0,0,.48,3.49,3.49,0,0,0,0,.47,1.63,1.63,0,0,0,.06.33l.14.43,1,1.54a.72.72,0,0,0,.33,0,5,5,0,0,1-.52-.55,2.17,2.17,0,0,1-.38-.66,4.21,4.21,0,0,1-.2-1.38,3.26,3.26,0,0,1,.27-1.3L47.86,20a2.9,2.9,0,0,1-1.11.63,2,2,0,0,1-.84.1.72.72,0,0,1-.69-.48.43.43,0,0,1,0-.22v0l.21-.24,3.74-1.22-.42-.18-7.38,2.42.41.18,2.61-.86-.14.27-.26.53c-.06.13-.1.22-.12.28a1.18,1.18,0,0,0,0,.78,1.27,1.27,0,0,0,.63.73,1.19,1.19,0,0,0,1,.1,1.82,1.82,0,0,0,.48-.29,2.05,2.05,0,0,1,.5-.3.34.34,0,0,1,.42.13.54.54,0,0,1,.21.27c.09.27,0,.56-.35.84a2.58,2.58,0,0,1-.38.28,2.2,2.2,0,0,1-.43.19,1.62,1.62,0,0,1-1,0,2.71,2.71,0,0,1-1.46-.86l-.38-.54-.15-.35c0-.1-.08-.19-.1-.26A.48.48,0,0,0,42.57,21.64Z"/><path class="cls-8" d="M54.49,17.65l-3.25.7.07.14a.67.67,0,0,0,.25.08l.45.05a1.47,1.47,0,0,1,.5.13A2,2,0,0,1,53,19a1.54,1.54,0,0,1,.57.83q.25,1.15-1.32,2l.39.19.57.23.57.22.38.17.65.35.34.67A6.6,6.6,0,0,0,53.64,23a12.11,12.11,0,0,0-1.92-.49l-.47-.05-.82,0-1-1.2a3.48,3.48,0,0,0,1.79.09,2,2,0,0,0,.59-.2q1.08-.76,1-1.22a.88.88,0,0,0-.37-.55.82.82,0,0,0-.66-.12.6.6,0,0,0-.24.11.89.89,0,0,1-.2.74,1.16,1.16,0,0,1-.71.47c-.45.1-.72,0-.8-.38a.84.84,0,0,1,.08-.45,1.25,1.25,0,0,1,.44-.64l.39-.23.17-.11v0c0-.1-.14-.17-.37-.22l-1.95.42-.7-.42,5.93-1.28Z"/><path class="cls-8" d="M55.43,24.1l-.4-.27a6.5,6.5,0,0,0-1.44-.7,12.11,12.11,0,0,0-1.9-.48l-.46-.05-.81,0h-.06L49,21l.41.13a3.39,3.39,0,0,0,1.72.09,1.82,1.82,0,0,0,.55-.18c.88-.62,1-.95.92-1.09a.75.75,0,0,0-.32-.47.7.7,0,0,0-.56-.1l-.13,0a1,1,0,0,1-.24.76,1.29,1.29,0,0,1-.78.52c-.66.14-.88-.18-.94-.48a.93.93,0,0,1,.09-.52,1.34,1.34,0,0,1,.49-.7l.38-.23.08,0a.58.58,0,0,0-.21-.08l-2,.42-1-.6L53.8,17.1l1,.6-3.34.72.1,0,.44.05a1.61,1.61,0,0,1,.54.14,2.09,2.09,0,0,1,.48.3,1.67,1.67,0,0,1,.61.9c.17.77-.23,1.47-1.18,2.06l.19.09.56.23.57.22.39.18.68.36Zm-4.94-1.78.77,0,.49.05a12.3,12.3,0,0,1,1.94.49,7.28,7.28,0,0,1,1.11.49l-.12-.24-.61-.33-.36-.16-.56-.21-.58-.24-.4-.19-.19-.11.19-.11c1-.57,1.41-1.2,1.26-1.91a1.43,1.43,0,0,0-.53-.76,1.89,1.89,0,0,0-.42-.26,1.36,1.36,0,0,0-.45-.12l-.46-.06a.77.77,0,0,1-.3-.1l0,0-.15-.31,3.09-.66-.39-.23-5.57,1.2.38.23,1.93-.42h0c.1,0,.41.08.46.31l0,.11-.05,0-.19.13-.38.23a1.11,1.11,0,0,0-.39.58.71.71,0,0,0-.08.37c0,.19.15.4.65.29A1,1,0,0,0,51.2,20a.77.77,0,0,0,.18-.64l0-.08.06,0a.72.72,0,0,1,.29-.13,1,1,0,0,1,.75.14,1,1,0,0,1,.42.62c.08.37-.26.81-1,1.35a2.06,2.06,0,0,1-.64.22,3.54,3.54,0,0,1-1.46,0Z"/><path class="cls-8" d="M56.66,17.42l-1.59.24.84,5.57-.67-.36L54.66,19a1.42,1.42,0,0,0-.14-.46,1.15,1.15,0,0,0-.19-.28l-.05-.06-.09-.1L54,18l-.26-.14-.12,0L53,17.42l.6-.09a.49.49,0,0,1,.37.08,2.35,2.35,0,0,1,.38.37,3.86,3.86,0,0,1,.52.8l-.45-1.38-.17-1.1.25.14.1.31a1.23,1.23,0,0,0,.06.18.93.93,0,0,0,.35.38L56,17Z"/><path class="cls-8" d="M56.07,23.46l-.95-.5V22.9L54.53,19a1.31,1.31,0,0,0-.12-.42,1,1,0,0,0-.17-.25l-.07-.07-.08-.08-.14-.1L53.74,18l-.13,0-1-.66.93-.14a.6.6,0,0,1,.46.11,2.44,2.44,0,0,1,.41.39v0l-.16-.48-.21-1.37.52.29,0,.1.08.27a1.17,1.17,0,0,0,.06.16A.8.8,0,0,0,55,17l1-.15,1,.67-1.78.27Zm-.72-.66.4.21-.82-5.45,1.4-.21L56,17.09l-1,.15,0,0a1.06,1.06,0,0,1-.4-.43,1.24,1.24,0,0,1-.07-.19l-.06-.2.12.79L55,18.54l-.23.1a3.74,3.74,0,0,0-.51-.77,2.22,2.22,0,0,0-.36-.35.37.37,0,0,0-.28-.06l-.28,0,.38.25.11,0,0,0,.28.15.18.13.1.11,0,0a1.24,1.24,0,0,1,.22.31,1.56,1.56,0,0,1,.15.5Z"/><path class="cls-8" d="M62.17,17l-1.55.13.46,5.62a2.63,2.63,0,0,1-.32-.35c-.14-.18-.33-.41-.55-.72a3.66,3.66,0,0,0-1.77-1.13,2.42,2.42,0,0,0-1-.13l-.88-.9a16,16,0,0,1,3.49-2l0-.37-3.91.32-.63-.5,6.09-.5Zm-1.81,4.42-.25-3.05a7.46,7.46,0,0,0-2.26,1.31,5.21,5.21,0,0,1,1.43.68A5,5,0,0,1,60.36,21.39ZM59.2,22a.54.54,0,0,1-.13.41.57.57,0,0,1-.41.21.83.83,0,0,1-.52-.12A.53.53,0,0,1,57.9,22a.49.49,0,0,1,.16-.41.73.73,0,0,1,.92-.05A.52.52,0,0,1,59.2,22Z"/><path class="cls-8" d="M61.23,23,61,22.81a2.64,2.64,0,0,1-.34-.37c-.14-.18-.33-.42-.55-.72a3.56,3.56,0,0,0-1.71-1.09,2.31,2.31,0,0,0-1-.12h-.06l-1-1,.12-.09a16.24,16.24,0,0,1,3.43-2v-.15l-3.84.31-.91-.73,6.45-.53.89.73-1.74.14Zm-3.58-2.75.33,0a2.59,2.59,0,0,1,.51.12,3.79,3.79,0,0,1,1.83,1.18c.22.3.41.54.55.71l.07.08L60.49,17l1.37-.11-.34-.28-5.72.47.34.28,4-.33,0,.58-.08,0a15.79,15.79,0,0,0-3.35,1.87l.74.76Zm.94,2.45a.93.93,0,0,1-.51-.15.65.65,0,0,1-.3-.52.61.61,0,0,1,.2-.51.85.85,0,0,1,.52-.23.82.82,0,0,1,.56.16.64.64,0,0,1,.27.48h0a.67.67,0,0,1-.16.5.7.7,0,0,1-.49.25Zm0-1.15h0a.6.6,0,0,0-.37.16A.36.36,0,0,0,58,22a.4.4,0,0,0,.18.33.7.7,0,0,0,.44.1.45.45,0,0,0,.32-.17.42.42,0,0,0,.1-.32h0a.39.39,0,0,0-.17-.29A.6.6,0,0,0,58.56,21.56Zm2,.24-.26-.34a5,5,0,0,0-1.06-1,5.12,5.12,0,0,0-1.39-.66l-.22-.07.18-.15a7.61,7.61,0,0,1,2.3-1.33l.15-.05ZM58.1,19.6a5.09,5.09,0,0,1,1.24.62,4.81,4.81,0,0,1,.86.78L60,18.51A7.34,7.34,0,0,0,58.1,19.6Z"/><path class="cls-8" d="M70.95,17.4l-1.49-.1-.36,5.63-.27-.35A2.92,2.92,0,0,0,68,21l-.23-.16-.46-.28a.82.82,0,0,1-.46.36,1.5,1.5,0,0,1-.62.12,1.14,1.14,0,0,1-.88-.49,1.27,1.27,0,0,1-.08-.24,1,1,0,0,1,0-.25.7.7,0,0,1,0-.22.68.68,0,0,1,.1-.17l.11-.13.13-.14a.54.54,0,0,1,.32-.16,3.19,3.19,0,0,1,.71-.05.46.46,0,0,1,.35.12,1.18,1.18,0,0,0-.49-1.14l-1.1-.45a1.1,1.1,0,0,1-.76-.75l-.09-.1-.19-.2-.27-.29,6.39.41ZM68.6,21.11l.25-3.85L66,17.08a9.16,9.16,0,0,1,.74.62,3.33,3.33,0,0,1,.47.53,2.32,2.32,0,0,1,.38,1.49l-.05.22.33.3.23.22A4.69,4.69,0,0,1,68.6,21.11Z"/><path class="cls-8" d="M69.2,23.27l-.5-.66a2.82,2.82,0,0,0-.81-1.49L67.67,21l-.36-.22a1.09,1.09,0,0,1-.45.3,1.66,1.66,0,0,1-.67.13,1.27,1.27,0,0,1-1-.54,1.25,1.25,0,0,1-.1-.29,1.1,1.1,0,0,1,0-.29.83.83,0,0,1,.06-.26.79.79,0,0,1,.12-.21l.11-.13.13-.15a.66.66,0,0,1,.39-.19,3.3,3.3,0,0,1,.74-.05l.22,0a1,1,0,0,0-.44-.82l-1.07-.44a1.24,1.24,0,0,1-.83-.81L64.46,17l-.19-.2L64,16.49l-.22-.23,6.76.44.69.85-1.65-.11Zm-.26-.75.05.07.35-5.42,1.33.09-.26-.32-6-.39.06.06.19.2c.11.11.12.13.12.18.06.25.28.47.68.63a7.35,7.35,0,0,1,1.14.48,1.29,1.29,0,0,1,.53,1.23l0,.35-.2-.28s0-.06-.26-.07a2.92,2.92,0,0,0-.68,0,.41.41,0,0,0-.25.12l-.11.12-.12.14a.56.56,0,0,0-.12.32.8.8,0,0,0,0,.22,1.11,1.11,0,0,0,.07.22,1,1,0,0,0,.77.41,1.34,1.34,0,0,0,.57-.11.72.72,0,0,0,.39-.29l.06-.12.12.07.47.28.25.17A3,3,0,0,1,68.94,22.52Zm-.24-1-.21-.31a4.67,4.67,0,0,0-.49-.64l-.22-.22-.32-.3-.05,0,.07-.29a2.2,2.2,0,0,0-.36-1.39,3.23,3.23,0,0,0-.45-.51,9.27,9.27,0,0,0-.73-.61l-.33-.25,3.38.22Zm-1-1.61.27.25.23.23a4.2,4.2,0,0,1,.32.38l.21-3.36-2.31-.15.43.37a3.43,3.43,0,0,1,.48.55,2.46,2.46,0,0,1,.4,1.56Z"/><path class="cls-8" d="M74.12,17.94a7.91,7.91,0,0,0-1.81.51,2.51,2.51,0,0,0-1.07,1.4,4.29,4.29,0,0,0-.13.42,3.57,3.57,0,0,0-.08.42,1.51,1.51,0,0,0,.77,1.69,1.48,1.48,0,0,0,.37.08l0,0a.63.63,0,0,1-.27-.64.47.47,0,0,1,.28-.33.81.81,0,0,1,.47-.09.78.78,0,0,1,.5.27.61.61,0,0,1,.17.51.71.71,0,0,1-.41.56,1.24,1.24,0,0,1-.78.13,1.91,1.91,0,0,1-1.63-1.67,3.94,3.94,0,0,1,0-1.43,3.44,3.44,0,0,1,1.55-2.1l-1.9-.27-.52-.63,4,.55.26.31.18.22Z"/><path class="cls-8" d="M72.38,23l-.23,0a2,2,0,0,1-1.74-1.76,4.09,4.09,0,0,1,0-1.48,3.34,3.34,0,0,1,1.36-2l-1.66-.23-.75-.92,4.33.6.29.35.18.22c.1.12.12.15.1.22l0,.07h-.07a7.89,7.89,0,0,0-1.78.49,2.4,2.4,0,0,0-1,1.34,4.21,4.21,0,0,0-.13.41,3.55,3.55,0,0,0-.08.4,1.38,1.38,0,0,0,.71,1.57h0a.78.78,0,0,1-.09-.5.58.58,0,0,1,.34-.42,1,1,0,0,1,.55-.11.91.91,0,0,1,.58.31.73.73,0,0,1,.2.61.83.83,0,0,1-.48.65A1.31,1.31,0,0,1,72.38,23Zm-2.15-5.72,2.15.3-.24.18a3.34,3.34,0,0,0-1.5,2,3.81,3.81,0,0,0,0,1.38,1.78,1.78,0,0,0,1.53,1.57,1.12,1.12,0,0,0,.7-.11.59.59,0,0,0,.35-.47.49.49,0,0,0-.14-.41.66.66,0,0,0-.43-.23.71.71,0,0,0-.4.08c-.13.07-.2.15-.21.23a.51.51,0,0,0,.22.52l.18.13-.28.11h0a1.1,1.1,0,0,1-.43-.1,1.62,1.62,0,0,1-.82-1.82,3.66,3.66,0,0,1,.09-.43,4.4,4.4,0,0,1,.14-.43,2.64,2.64,0,0,1,1.13-1.47,7.1,7.1,0,0,1,1.65-.48l-.13-.16-.23-.27-3.6-.5Z"/><path class="cls-8" d="M81,19.51l-4.21-1-.45,2a.18.18,0,0,0,.1.24A1.31,1.31,0,0,0,77,20.6a2.39,2.39,0,0,0,.56-.29l.36-.26q.3-.23.38-.21a1.71,1.71,0,0,1,.53,1A2.37,2.37,0,0,1,79,21.93q-.5,2.17-3,1.6-1.67-.39-2-3.23a13.17,13.17,0,0,1,.13-2.08l.31.25a2.93,2.93,0,0,0-.06.9c0,.07.05.38.14.91a2.8,2.8,0,0,0,.09.4,3.88,3.88,0,0,0,.14.38,4.06,4.06,0,0,0,.29.57,2,2,0,0,0,.31.39,1.76,1.76,0,0,0,.46.32,2.88,2.88,0,0,0,.6.2,1.76,1.76,0,0,0,1.76-.32,1.82,1.82,0,0,0,.25-.3.82.82,0,0,0,.11-.23,1.14,1.14,0,0,0-.11-.77,1.63,1.63,0,0,1-.85.49,2.17,2.17,0,0,1-1.05.18.84.84,0,0,1-.53-.41,1.33,1.33,0,0,1-.13-.29,1.3,1.3,0,0,1-.06-.33.32.32,0,0,1,0-.06s0,0,0,0a.11.11,0,0,1,0,0l.47-2-2.53-.59-.44-.67,7.31,1.7Z"/><path class="cls-8" d="M76.93,23.77a4.32,4.32,0,0,1-1-.12c-1.16-.27-1.88-1.39-2.14-3.34a13,13,0,0,1,.13-2.11L74,18l-.38-.09-.64-1,7.67,1.78.68,1-4.41-1-.42,1.83c0,.07,0,.08,0,.09a1.38,1.38,0,0,0,.49-.13,2.27,2.27,0,0,0,.53-.27l.36-.26c.29-.22.4-.25.48-.23l0,0a1.83,1.83,0,0,1,.58,1A2.47,2.47,0,0,1,79.08,22,2.23,2.23,0,0,1,78,23.52,2.29,2.29,0,0,1,76.93,23.77Zm-2.76-5.31a11.62,11.62,0,0,0-.11,1.82c.24,1.83.89,2.88,1.95,3.12a2.72,2.72,0,0,0,1.9-.1,2,2,0,0,0,.93-1.4,2.27,2.27,0,0,0-.11-1.07,1.7,1.7,0,0,0-.45-.86,2,2,0,0,0-.27.18l-.37.26a2.46,2.46,0,0,1-.58.3,1.39,1.39,0,0,1-.64.13.31.31,0,0,1-.21-.39l.48-2.07,4,.93-.26-.37-7-1.61.24.37,2.61.6-.5,2.14a.34.34,0,0,1,0,0,.15.15,0,0,0,0,0,1.22,1.22,0,0,0,.06.32,1.17,1.17,0,0,0,.12.27.72.72,0,0,0,.45.35,2,2,0,0,0,1-.18c.56-.2.73-.35.78-.44l.12-.21.11.22a1.27,1.27,0,0,1,.12.86.93.93,0,0,1-.12.27,2,2,0,0,1-.27.32,1.88,1.88,0,0,1-1.88.35,3,3,0,0,1-.62-.21,1.89,1.89,0,0,1-.5-.34,2.15,2.15,0,0,1-.33-.41,4.28,4.28,0,0,1-.3-.59,3.79,3.79,0,0,1-.14-.39,2.93,2.93,0,0,1-.09-.42c-.12-.73-.14-.88-.14-.92a3.12,3.12,0,0,1,0-.86ZM74,18l.48.39,0,.08a2.81,2.81,0,0,0-.06.86s0,.24.14.9a2.65,2.65,0,0,0,.08.38,3.87,3.87,0,0,0,.13.37,4.06,4.06,0,0,0,.28.55,1.94,1.94,0,0,0,.29.37,1.65,1.65,0,0,0,.43.3,2.77,2.77,0,0,0,.57.19A1.65,1.65,0,0,0,78,22.13a1.69,1.69,0,0,0,.24-.28.71.71,0,0,0,.09-.2,1,1,0,0,0,0-.51,2.62,2.62,0,0,1-.77.38,2.22,2.22,0,0,1-1.12.18,1,1,0,0,1-.61-.46,1.47,1.47,0,0,1-.21-.68.33.33,0,0,1,0-.06v0a.25.25,0,0,1,0-.07L76,18.49Z"/><path class="cls-8" d="M86.79,21.66l-1.48-.52-1.86,5.32L83,25.83l1-2.93a.26.26,0,0,0,0-.09l0-.2a.81.81,0,0,0-.56-.68.36.36,0,0,0-.36.12.86.86,0,0,0-.22.33l0,.28h-.29a2,2,0,0,0-.21-.84,1.29,1.29,0,0,0-.72-.55,1.11,1.11,0,0,0-.83,0,.93.93,0,0,0-.54.57q-.21.61.52,1a2,2,0,0,1-.06-.26.41.41,0,0,1,0-.2.54.54,0,0,1,.34-.32.68.68,0,0,1,.51,0,.7.7,0,0,1,.44.49,1,1,0,0,1,0,.62.57.57,0,0,1-.48.36,1.23,1.23,0,0,1-.65-.06,2,2,0,0,1-.6-.33,1.72,1.72,0,0,1-.41-.49,1.43,1.43,0,0,1-.07-1.21,1.67,1.67,0,0,1,.65-.86,1.19,1.19,0,0,1,1.11-.16,1.51,1.51,0,0,1,1,1.08v0c0-.11.17-.2.41-.28a.85.85,0,0,1,.5-.06.9.9,0,0,1,.47.35,1.42,1.42,0,0,1,.1.21,3.22,3.22,0,0,1,.09.32v.11c0,.07,0,.16,0,.28l.51-1.45L80.07,19.3l-.39-.72,6.75,2.37Z"/><path class="cls-8" d="M83.48,26.74l-.6-.89,0-.06,1-2.93h0s0,0,0,0l0-.2a.69.69,0,0,0-.48-.58s-.1,0-.24.09a.73.73,0,0,0-.19.28l0,.36h-.51v-.12a1.92,1.92,0,0,0-.19-.78,1.17,1.17,0,0,0-.66-.5,1,1,0,0,0-.74,0,.8.8,0,0,0-.47.5.54.54,0,0,0,.23.68.52.52,0,0,1,0-.25.66.66,0,0,1,.42-.4.8.8,0,0,1,.6,0,.82.82,0,0,1,.51.57,1.07,1.07,0,0,1,0,.7.69.69,0,0,1-.58.44,1.36,1.36,0,0,1-.72-.06,2.08,2.08,0,0,1-.64-.35,1.86,1.86,0,0,1-.44-.53,1.56,1.56,0,0,1-.08-1.31,1.8,1.8,0,0,1,.7-.92,1.31,1.31,0,0,1,1.22-.18,1.66,1.66,0,0,1,1,.94,1.09,1.09,0,0,1,.33-.16.94.94,0,0,1,.58-.06,1,1,0,0,1,.53.4,1.54,1.54,0,0,1,.11.24c0,.07,0,.15.07.25l.31-.87L80,19.41l-.57-1.05,7.1,2.49.54,1-1.66-.58Zm-.32-.92.25.37L85.23,21l1.3.46-.2-.39-6.4-2.24.22.4,4.74,1.66-.71,2v-.06a.26.26,0,0,1,0,.11Zm-2-5.36a1.12,1.12,0,0,0-.64.21,1.56,1.56,0,0,0-.6.8A1.3,1.3,0,0,0,80,22.57a1.6,1.6,0,0,0,.38.45,1.84,1.84,0,0,0,.57.31,1.1,1.1,0,0,0,.59.05.45.45,0,0,0,.39-.28.83.83,0,0,0,0-.54.57.57,0,0,0-.36-.41.55.55,0,0,0-.42,0,.42.42,0,0,0-.27.25.29.29,0,0,0,0,.14,1.67,1.67,0,0,0,.05.25l.07.27L80.71,23c-.69-.34-.7-.8-.59-1.12a1.05,1.05,0,0,1,.61-.65,1.23,1.23,0,0,1,.92,0,1.42,1.42,0,0,1,.79.61,2,2,0,0,1,.21.77h.06l0-.17A1,1,0,0,1,83,22a.48.48,0,0,1,.49-.15.92.92,0,0,1,.63.7l0-.1c0-.12,0-.21,0-.28v-.07a2.59,2.59,0,0,0-.09-.33,1.25,1.25,0,0,0-.09-.19.77.77,0,0,0-.4-.29.72.72,0,0,0-.42.06c-.26.08-.32.17-.33.2l-.13.39-.11-.38a1.38,1.38,0,0,0-1-1A1.1,1.1,0,0,0,81.15,20.45Z"/><path class="cls-8" d="M94.5,25.69,93.18,25l-2.67,5-.1-.43a2.92,2.92,0,0,0-.13-1.76l-.15-.24-.3-.45a.82.82,0,0,1-.57.13,1.48,1.48,0,0,1-.61-.15,1.14,1.14,0,0,1-.6-.81,1.34,1.34,0,0,1,0-.25.93.93,0,0,1,.09-.24.67.67,0,0,1,.13-.18.68.68,0,0,1,.17-.12l.16-.07.17-.08a.54.54,0,0,1,.35,0,3.16,3.16,0,0,1,.67.25c.16.09.25.17.27.25a1.17,1.17,0,0,0,0-1.24s-.28-.31-.81-.86a1.1,1.1,0,0,1-.38-1,.93.93,0,0,0,0-.13l-.09-.26-.13-.38,5.64,3Zm-3.68,2.4,1.82-3.4-2.51-1.35a9.38,9.38,0,0,1,.42.87,3.33,3.33,0,0,1,.21.67,2.31,2.31,0,0,1-.27,1.51l-.14.18.17.41.11.3A4.7,4.7,0,0,1,90.82,28.1Z"/><path class="cls-8" d="M90.46,30.3l-.18-.78v0a2.81,2.81,0,0,0-.12-1.69,2.43,2.43,0,0,0-.14-.23l-.23-.35a1.12,1.12,0,0,1-.54.09,1.59,1.59,0,0,1-.67-.16,1.27,1.27,0,0,1-.66-.89,1.3,1.3,0,0,1,0-.3,1.1,1.1,0,0,1,.1-.27.83.83,0,0,1,.35-.35l.33-.15a.67.67,0,0,1,.44,0,3.25,3.25,0,0,1,.69.26l.18.12a1,1,0,0,0-.05-.93s-.09-.11-.79-.84a1.23,1.23,0,0,1-.42-1.08l0-.09-.09-.26L88.55,22l-.1-.3,6,3.2.27,1.06-1.46-.78Zm.07-.79,0,.09,2.57-4.79,1.18.63-.1-.4L88.89,22.2l0,.08.09.27c0,.14.05.16,0,.2a1,1,0,0,0,.35.88,7.47,7.47,0,0,1,.84.91,1.28,1.28,0,0,1,0,1.34l-.16.3L90,25.82s-.05-.09-.2-.17a3,3,0,0,0-.64-.24.42.42,0,0,0-.28,0l-.32.15-.13.09a.54.54,0,0,0-.11.15.79.79,0,0,0-.08.21,1.18,1.18,0,0,0,0,.23,1,1,0,0,0,.53.69,1.38,1.38,0,0,0,.56.14.74.74,0,0,0,.48-.1l.1-.09.08.11.31.45.15.26A3,3,0,0,1,90.54,29.52Zm.21-1-.06-.37a4.56,4.56,0,0,0-.18-.79L90.4,27l-.17-.41,0-.07.18-.23a2.19,2.19,0,0,0,.25-1.41,3.26,3.26,0,0,0-.2-.65,9.13,9.13,0,0,0-.41-.86l-.2-.37,3,1.6Zm-.26-1.89.14.35.12.3a4,4,0,0,1,.13.48l1.59-3-2-1.1c.09.18.17.36.24.52a3.44,3.44,0,0,1,.21.7,2.44,2.44,0,0,1-.29,1.59Z"/><path class="cls-8" d="M96.34,27,95,26.11,92,30.9l-.28-.71,2.07-3.32a1.46,1.46,0,0,0,.19-.44,1.2,1.2,0,0,0,0-.34A.41.41,0,0,1,94,26a.82.82,0,0,0,0-.13,1.32,1.32,0,0,0,0-.19,2.63,2.63,0,0,0-.11-.28l-.1-.06-.22-.79.52.32a.49.49,0,0,1,.23.31,2.3,2.3,0,0,1,0,.53,3.83,3.83,0,0,1-.12.94l.55-1.34.59-.95.1.27-.13.3a1.31,1.31,0,0,0-.07.18.94.94,0,0,0,0,.52l.86.53Z"/><path class="cls-8" d="M92,31.17l-.39-1,0-.05,2.07-3.32a1.32,1.32,0,0,0,.18-.4,1.08,1.08,0,0,0,0-.3.59.59,0,0,1,0-.1.65.65,0,0,0,0-.11,1.16,1.16,0,0,0,0-.17c0-.06,0-.14-.09-.23l-.11-.07-.33-1.15.79.49a.61.61,0,0,1,.28.38,2.39,2.39,0,0,1,.05.56v0l.19-.46.73-1.18.21.55,0,0-.1.25,0,.06a1.08,1.08,0,0,0-.06.16.8.8,0,0,0,0,.41l.86.54.31,1.14-1.53-1Zm-.11-1,.16.42,2.92-4.68,1.2.75L96,26.26l-.85-.53v0a1.07,1.07,0,0,1,0-.59,1.53,1.53,0,0,1,.07-.2l0-.06.06-.14-.43.68-.54,1.32-.24-.08a3.73,3.73,0,0,0,.12-.91,2.24,2.24,0,0,0,0-.51A.37.37,0,0,0,94,25l-.24-.15.12.44.09.06,0,0a2.62,2.62,0,0,1,.11.29,1.48,1.48,0,0,1,0,.21,1,1,0,0,1,0,.15.25.25,0,0,0,0,.06,1.29,1.29,0,0,1,0,.38,1.59,1.59,0,0,1-.21.48Z"/><path class="cls-8" d="M101.13,30.44l-4.14-3-1.4,1.92c.14,0,.6,0,1.41,0a8,8,0,0,1,1.84.3l.43,1.2a9.65,9.65,0,0,0-1.27.75,3.5,3.5,0,0,0-.49.46,8,8,0,0,0-.5.63,1.86,1.86,0,0,0-.16.27l-.18.38a3,3,0,0,0-.22.7l-.3-.37A8.05,8.05,0,0,1,97.4,31a1.62,1.62,0,0,1,.23-.23l.46-.37a3.65,3.65,0,0,0-1.67-.19,3.48,3.48,0,0,0-1.56.49l-.22-1.1,1.87-2.57-.64-.46-.15-.79L101,29.63Z"/><path class="cls-8" d="M96.54,34.32,96,33.67l0-.06A8.22,8.22,0,0,1,97.29,31a1.74,1.74,0,0,1,.25-.25l.28-.23a3.64,3.64,0,0,0-1.39-.11,3.38,3.38,0,0,0-1.51.48l-.15.09-.27-1.33,1.82-2.51-.57-.42-.22-1.15,5.54,4,.24,1.17L97,27.61l-1.18,1.62,1.16,0h.05a8.61,8.61,0,0,1,1.82.3l.07,0,.5,1.37-.1.05a9.61,9.61,0,0,0-1.26.73,3.38,3.38,0,0,0-.47.44,7.73,7.73,0,0,0-.5.62A1.81,1.81,0,0,0,97,33l-.17.38a2.91,2.91,0,0,0-.21.66Zm-.25-.7.1.12a4.55,4.55,0,0,1,.17-.47l.18-.39a2,2,0,0,1,.17-.29c.17-.23.34-.45.51-.64a3.63,3.63,0,0,1,.5-.47,9.12,9.12,0,0,1,1.19-.71l-.37-1a8.17,8.17,0,0,0-1.69-.28h0c-.79,0-1.27,0-1.42,0l-.22,0,1.6-2.2.1.07,3.88,2.82-.09-.44-5-3.6.08.43.7.51-1.91,2.62.17.88a3.69,3.69,0,0,1,1.46-.42,3.79,3.79,0,0,1,1.72.2l.21.08-.18.14-.45.36a1.5,1.5,0,0,0-.21.21A8,8,0,0,0,96.29,33.61Z"/><path class="cls-8" d="M96.45,35.47l-.38-.31-.81-1.8.65.52Zm4.83-4.77-.93-.75-.11-.8.94.76Z"/><path class="cls-8" d="M96.71,35.84,96,35.21l-1-2.28,1.08.87Zm-.54-.76,0,0L95.79,34l-.21-.17ZM101.44,31l-1.21-1-.16-1.16,1.22,1Zm-1-1.1.65.52-.05-.43-.65-.53Z"/><path class="cls-8" d="M99.91,35.79a.54.54,0,0,1-.39.19.57.57,0,0,1-.43-.15.83.83,0,0,1-.27-.46A.52.52,0,0,1,99,34.9a.49.49,0,0,1,.41-.16.72.72,0,0,1,.44.2.71.71,0,0,1,.23.44A.51.51,0,0,1,99.91,35.79Zm5.67-1.25-1.16-1-3.78,4.18a2.69,2.69,0,0,1,0-.47c0-.22.08-.52.15-.89a3.65,3.65,0,0,0-.39-2.06,2.56,2.56,0,0,0-.25-.44,2.5,2.5,0,0,0-.35-.39l.06-1.26a16.06,16.06,0,0,1,3.83,1.19l.25-.27-2.91-2.63-.06-.8,4.53,4.09Zm-4.46,1.7L103.18,34a7.45,7.45,0,0,0-2.5-.75,5.18,5.18,0,0,1,.48,1.5A5,5,0,0,1,101.12,36.25Z"/><path class="cls-8" d="M100.54,38l0-.3a2.83,2.83,0,0,1,0-.5c0-.22.08-.52.15-.9a3.55,3.55,0,0,0-.38-2,2.46,2.46,0,0,0-.24-.41,2.32,2.32,0,0,0-.33-.37l0,0L99.78,32l.14,0a16.34,16.34,0,0,1,3.77,1.17l.1-.11-2.86-2.58-.09-1.17,4.8,4.34.08,1.15-1.29-1.17ZM100,33.38a2.59,2.59,0,0,1,.33.37,2.74,2.74,0,0,1,.26.46,3.79,3.79,0,0,1,.39,2.14c-.07.37-.12.67-.15.89v.11l3.63-4,1,.92,0-.44L101.15,30l0,.44,3,2.68-.39.43-.08,0A15.91,15.91,0,0,0,100,32.32Zm1,3.27.07-.42a4.88,4.88,0,0,0,0-1.48,5,5,0,0,0-.47-1.47l-.1-.21.23,0a7.62,7.62,0,0,1,2.54.77l.14.07Zm0-3.27a5.11,5.11,0,0,1,.4,1.33,4.79,4.79,0,0,1,0,1.16L103,34A7.35,7.35,0,0,0,100.88,33.38ZM99.49,36.1a.7.7,0,0,1-.48-.19,1,1,0,0,1-.31-.53.64.64,0,0,1,.17-.57.61.61,0,0,1,.5-.2.86.86,0,0,1,.79.74.64.64,0,0,1-.16.53.67.67,0,0,1-.47.23Zm-.15-1.25a.35.35,0,0,0-.28.12.4.4,0,0,0-.11.36.7.7,0,0,0,.23.39.43.43,0,0,0,.34.12.42.42,0,0,0,.3-.14h0a.39.39,0,0,0,.1-.32.58.58,0,0,0-.19-.36.59.59,0,0,0-.37-.16Z"/><path class="cls-8" d="M107.05,36.2,105.93,35l-4,3.94-.1-.75,2.8-2.73a1.44,1.44,0,0,0,.29-.38,1.12,1.12,0,0,0,.11-.32l0-.08a.75.75,0,0,0,0-.13,1.18,1.18,0,0,0,0-.2,2.59,2.59,0,0,0,0-.3l-.08-.08,0-.82.43.44a.49.49,0,0,1,.15.35,2.38,2.38,0,0,1-.08.53,3.92,3.92,0,0,1-.34.89l.85-1.17.8-.78,0,.29-.2.26-.11.15a.94.94,0,0,0-.1.51l.71.72Z"/><path class="cls-8" d="M101.81,39.24l-.14-1.06,2.84-2.78a1.31,1.31,0,0,0,.27-.35,1,1,0,0,0,.1-.28.77.77,0,0,1,0-.1.54.54,0,0,0,0-.11,1.07,1.07,0,0,0,0-.18c0-.07,0-.15,0-.24l-.09-.09,0-1.2.65.67a.62.62,0,0,1,.18.44,2.45,2.45,0,0,1-.08.56v0l.3-.41,1-1,.07.59,0,0-.2.27-.09.14a.8.8,0,0,0-.09.4l.71.72,0,1.18-1.26-1.29Zm.12-1,.06.45,3.95-3.85,1,1v-.45l-.7-.72v0a1.07,1.07,0,0,1,.12-.58,1.29,1.29,0,0,1,.12-.17l.13-.17-.58.56-.84,1.16-.21-.13a3.8,3.8,0,0,0,.33-.86,2.27,2.27,0,0,0,.08-.5.37.37,0,0,0-.11-.26l-.2-.21,0,.45.08.08v0a2.66,2.66,0,0,1,0,.31,1.33,1.33,0,0,1,0,.22,1,1,0,0,1,0,.15v.06a1.25,1.25,0,0,1-.12.35,1.54,1.54,0,0,1-.32.41Z"/><path class="cls-8" d="M111.12,41l-1-1.21-4.32,3.63,0-.76,1.9-1.59a1.89,1.89,0,0,0,.13-.24,1.25,1.25,0,0,0,.09-.28.66.66,0,0,0-.1-.57.86.86,0,0,0-.7-.25l-1.38,0a.88.88,0,0,1-.42,0,1.54,1.54,0,0,1-.33-.32q-.41-.48.12-1.75l.54.08a.87.87,0,0,0-.23.46.52.52,0,0,0,0,.47.47.47,0,0,0,.34.15h.38l.84,0a2.55,2.55,0,0,0,.36-.45,1.23,1.23,0,0,0,.14-.6,2.16,2.16,0,0,0-.09-.23l-.15-.31-.15-.19-.14-.19a1.09,1.09,0,0,1-.21-.41.58.58,0,0,1,0-.13.67.67,0,0,1,0-.16,1.13,1.13,0,0,0,.05-.28c0-.08,0-.19,0-.32s0-.31,0-.51l4.34,5.16Zm-2.87-.45,1.46-1.23-1.7-2c0,.17,0,.33,0,.45a2.71,2.71,0,0,1-.05.32,1.3,1.3,0,0,1-.14.36,1.08,1.08,0,0,1-.24.28.44.44,0,0,1-.19.1l.48.15a.83.83,0,0,1,.4.27.58.58,0,0,1,.11.5Z"/><path class="cls-8" d="M105.68,43.67l-.07-1.07L107.54,41a1.66,1.66,0,0,0,.12-.21,1.1,1.1,0,0,0,.08-.25.54.54,0,0,0-.07-.46.74.74,0,0,0-.59-.2h0l-1.37,0a.94.94,0,0,1-.48-.06,1.63,1.63,0,0,1-.36-.35c-.31-.37-.28-1,.1-1.88l0-.09.9.14-.21.18a.75.75,0,0,0-.19.4.44.44,0,0,0,0,.36.35.35,0,0,0,.25.1h.36l.79,0a2.11,2.11,0,0,0,.3-.37,1.11,1.11,0,0,0,.13-.53l-.08-.2-.15-.31L107,37.1l-.15-.2a1.2,1.2,0,0,1-.23-.46.79.79,0,0,1,0-.16.77.77,0,0,1,0-.19,1.19,1.19,0,0,0,0-.24h0v-.34c0-.13,0-.31,0-.51v-.34l4.59,5.46,0,1.2L110.09,40Zm.19-1,0,.45,4.22-3.55.89,1.06,0-.46-4.09-4.87c0,.06,0,.12,0,.18v.31a1,1,0,0,1-.06.33.55.55,0,0,0,0,.13.46.46,0,0,0,0,.1,1,1,0,0,0,.19.36l.14.19.15.19.16.33a2.27,2.27,0,0,1,.09.24v0a1.36,1.36,0,0,1-.15.66,1.54,1.54,0,0,1-.25.32l.15,0a.32.32,0,0,0,.13-.07,1,1,0,0,0,.21-.25,1.17,1.17,0,0,0,.13-.32,2.91,2.91,0,0,0,0-.31c0-.13,0-.28,0-.44V37l2,2.38-1.81,1.52.16-1.14a.46.46,0,0,0-.09-.4.7.7,0,0,0-.34-.23l-.74-.23h0l0,0-.9,0h-.38a.6.6,0,0,1-.43-.19.63.63,0,0,1-.07-.58,1.41,1.41,0,0,1,.13-.34l-.23,0c-.3.74-.33,1.26-.1,1.53a1.36,1.36,0,0,0,.3.3s.08,0,.35,0l1.38,0h0a1,1,0,0,1,.78.29.78.78,0,0,1,.13.67,1.4,1.4,0,0,1-.1.31,2,2,0,0,1-.14.26l0,0Zm1.8-3.93.21.06a1,1,0,0,1,.46.31.7.7,0,0,1,.14.6l-.07.5,1.12-.94-1.41-1.68s0,.09,0,.14a2.9,2.9,0,0,1-.05.34,1.45,1.45,0,0,1-.16.39A1.19,1.19,0,0,1,107.67,38.78Z"/><path class="cls-8" d="M112.27,42.8l-.95-1.3-4.56,3.32v-.76l3.16-2.31a1.46,1.46,0,0,0,.34-.33,1.15,1.15,0,0,0,.16-.3l0-.08,0-.12a1.19,1.19,0,0,0,0-.2,2.4,2.4,0,0,0,0-.3l-.07-.1.09-.82.36.49a.5.5,0,0,1,.1.37,2.33,2.33,0,0,1-.15.51,3.81,3.81,0,0,1-.46.83l1-1,.9-.66v.29l-.23.23-.13.14a.94.94,0,0,0-.17.49l.6.82Z"/><path class="cls-8" d="M106.64,45.07V44l.05,0,3.16-2.31a1.34,1.34,0,0,0,.31-.3,1.08,1.08,0,0,0,.14-.27.5.5,0,0,1,0-.09l0-.1a1,1,0,0,0,0-.17,1.93,1.93,0,0,0,0-.25l-.08-.1.13-1.19.55.75a.62.62,0,0,1,.12.46,2.47,2.47,0,0,1-.16.54v0l.35-.36,1.12-.82v.59l-.27.27-.11.12a.8.8,0,0,0-.15.38l.6.82-.14,1.18-1.06-1.46Zm.26-.94v.45l4.46-3.25.83,1.14.05-.45-.59-.81v0a1.08,1.08,0,0,1,.2-.55l.14-.15.15-.15-.65.48-1,1-.19-.16a3.69,3.69,0,0,0,.45-.8,2.23,2.23,0,0,0,.15-.49.37.37,0,0,0-.08-.28l-.17-.23,0,.45.06.09v0a2.44,2.44,0,0,1,0,.32,1.3,1.3,0,0,1,0,.22,1.07,1.07,0,0,1,0,.14l0,.06a1.29,1.29,0,0,1-.17.34,1.58,1.58,0,0,1-.37.36Z"/></g></g></svg>