<?xml version="1.0" encoding="utf-8"?>
<!-- Generator: Adobe Illustrator 26.0.1, SVG Export Plug-In . SVG Version: 6.00 Build 0)  -->
<svg version="1.1" id="Layer_1" xmlns="http://www.w3.org/2000/svg" xmlns:xlink="http://www.w3.org/1999/xlink" x="0px" y="0px"
	 viewBox="0 0 1080 1080" style="enable-background:new 0 0 1080 1080;" xml:space="preserve">
<style type="text/css">
	.st0{fill:#FFFFFF;}
	.st1{fill:#EA1F27;}
	.st2{fill:#231F20;}
	.st3{fill:#950BB2;}
	.st4{fill:#EA2227;}
	.st5{fill:#37B34A;}
	.st6{fill:#189347;}
	.st7{fill:#006B3A;}
	.st8{fill:#ED1C24;}
	.st9{fill:#808285;}
	.st10{fill-rule:evenodd;clip-rule:evenodd;fill:#808285;}
</style>
<path class="st0" d="M969.25,773.44l-0.25-0.1c0,0-1.38-1.11-3.22-2.62c-0.64-0.65-1.29-1.11-2.23-1.76l-2.28-1.86
	c-0.64-0.4-1.19-0.65-1.83-1.06c-2.03-1.11-11.77-5.48-17.36-7.75c-23.65-9.41-67.53-26.97-77.62-29.48l-2.38-0.55l-1.48,1.86
	c-81.03,105.6-194.81,161.49-329.12,161.49c-124.27,0-243.54-55.74-318.68-148.92l-1.48-1.86l-2.47,0.65
	c-14.05,4.13-59.66,22.04-79.3,29.68c-3.12,1.31-5.59,2.27-6.78,2.72c-2.67,1.06-6.43,3.27-10.09,5.23
	c-1.58,0.86-6.88,4.23-6.88,4.23l-91.96,93.22l76.08-3.52l6.13,65.9l62.13-71.79c2.92,3.07,5.49,6.34,8.46,9.41
	c26.52,27.47,59.07,51.57,96.61,71.89c37.99,20.38,80.09,36.32,125.16,47.24c46.7,11.22,95.53,17,145.24,17
	c51.4,0,101.76-6.09,149.74-18.11c46.45-11.67,89.39-28.58,128.03-50.31c38.24-21.48,70.84-46.99,97.16-76.02
	c3.31-3.82,6.33-7.75,9.45-11.57l58.72,72.35l1.68-67.97l87.71,4.03L969.25,773.44z M101.85,921.04L96.7,865.3l-64.41,2.97
	l76.73-77.58c10.34,24.85,25.23,48.65,44.23,70.79L101.85,921.04z M913.3,850.71c-26.72,33.15-62.23,62.94-105.52,87.14
	c-77.37,43.57-174.73,67.46-274.11,67.46c-97.55,0-189.76-21.93-266.84-63.39c-41.45-22.29-76.43-49.86-103.69-80.44
	c-20.93-23.54-37.45-48.85-48.18-75.46c0.2-0.15,0.3-0.15,0.74-0.35c3.76-2.06,7.17-3.82,9.75-4.78c1.19-0.55,3.66-1.56,6.88-2.77
	c16.87-6.64,60.2-23.65,76.33-28.88c36.81,45.03,84.89,82.46,139.11,108.32c56.89,27.07,120.31,41.35,183.73,41.35
	c68.81,0,132.68-14.49,190.01-42.96c55.16-27.52,103.34-67.67,143.41-119.28c13.06,4.02,53.97,20.43,74.5,28.47
	c5.69,2.31,9.65,3.92,11.48,4.58c1.58,0.65,3.61,1.86,5.89,3.17c0.2,0,0.35,0.1,0.45,0.25C948.07,800.4,933.08,826.36,913.3,850.71z
	 M971.28,853.43l-1.29,55.44l-47.15-58.06c17.86-23.04,31.46-47.34,40.27-72.8c0.55,0.45,0.84,0.76,1.09,0.91l82.42,77.98
	L971.28,853.43z M530.55,876.47c223.75,0,405.85-181.52,405.85-404.59S754.3,67.29,530.55,67.29
	c-223.8,0-405.85,181.52-405.85,404.59S306.75,876.47,530.55,876.47z M530.55,187.68c158.7,0,287.42,127.23,287.42,284.2
	c0,156.96-128.72,284.2-287.42,284.2c-158.75,0-287.42-127.23-287.42-284.2C243.13,314.92,371.8,187.68,530.55,187.68z"/>
<path class="st0" d="M1046.62,856.9l-75.34-3.47l-1.29,55.44l-47.15-58.06c17.86-23.04,31.46-47.34,40.27-72.8
	c0.55,0.45,0.84,0.76,1.09,0.91L1046.62,856.9z"/>
<path class="st0" d="M153.25,861.48l-51.4,59.57L96.7,865.3l-64.41,2.97l76.73-77.58C119.36,815.54,134.25,839.34,153.25,861.48z"/>
<path class="st1" d="M158.19,867.16l-62.13,71.79l-6.13-65.9l-76.08,3.52l91.96-93.22l0.99,2.41c0.2,0.45,0.39,0.9,0.54,1.31
	c0.5,1.21,1.14,2.41,1.68,3.62l-76.73,77.58l64.41-2.97l5.14,55.74l51.4-59.57c0.89,1.01,1.73,1.96,2.47,2.87
	C156.56,865.3,157.45,866.21,158.19,867.16z"/>
<g>
	<path class="st1" d="M963.56,768.96l-2.28-1.86c-0.64-0.4-1.19-0.65-1.83-1.06c-2.03-1.11-11.77-5.48-17.36-7.75
		c-23.65-9.41-67.53-26.97-77.62-29.48l-2.38-0.55l-1.48,1.86c-81.03,105.6-194.81,161.49-329.12,161.49
		c-124.27,0-243.54-55.74-318.68-148.92l-1.48-1.86l-2.47,0.65c-14.05,4.13-59.66,22.04-79.3,29.68c-3.12,1.31-5.59,2.27-6.78,2.72
		c-2.67,1.06-6.43,3.27-10.09,5.23c-1.58,0.86-6.88,4.23-6.88,4.23l0.99,2.41c0.2,0.45,0.39,0.9,0.54,1.31
		c0.5,1.21,1.14,2.41,1.68,3.62c10.34,24.85,25.23,48.65,44.23,70.79c0.89,1.01,1.73,1.96,2.47,2.87c0.84,0.96,1.73,1.86,2.47,2.82
		c2.92,3.07,5.49,6.34,8.46,9.41c26.52,27.47,59.07,51.57,96.61,71.89c37.99,20.38,80.09,36.32,125.16,47.24
		c46.7,11.22,95.53,17,145.24,17c51.4,0,101.76-6.09,149.74-18.11c46.45-11.67,89.39-28.58,128.03-50.31
		c38.24-21.48,70.84-46.99,97.16-76.02c3.31-3.82,6.33-7.75,9.45-11.57c0.84-1.01,1.58-1.96,2.47-2.97
		c0.74-0.96,1.58-1.96,2.33-2.92c17.86-23.04,31.46-47.34,40.27-72.8v-0.1c0.45-1.21,1.09-2.32,1.39-3.47
		c0.25-0.65,0.44-1.21,0.64-1.76l0.64-1.96C965.14,770.06,964.5,769.61,963.56,768.96z M913.3,850.71
		c-26.72,33.15-62.23,62.94-105.52,87.14c-77.37,43.57-174.73,67.46-274.11,67.46c-97.55,0-189.76-21.93-266.84-63.39
		c-41.45-22.29-76.43-49.86-103.69-80.44c-20.93-23.54-37.45-48.85-48.18-75.46c0.2-0.15,0.3-0.15,0.74-0.35
		c3.76-2.06,7.17-3.82,9.75-4.78c1.19-0.55,3.66-1.56,6.88-2.77c16.87-6.64,60.2-23.65,76.33-28.88
		c36.81,45.03,84.89,82.46,139.11,108.32c56.89,27.07,120.31,41.35,183.73,41.35c68.81,0,132.68-14.49,190.01-42.96
		c55.16-27.52,103.34-67.67,143.41-119.28c13.06,4.02,53.97,20.43,74.5,28.47c5.69,2.31,9.65,3.92,11.48,4.58
		c1.58,0.65,3.61,1.86,5.89,3.17c0.2,0,0.35,0.1,0.45,0.25C948.07,800.4,933.08,826.36,913.3,850.71z"/>
	<path class="st0" d="M957.23,773.13c-9.15,27.27-24.14,53.23-43.93,77.58c-26.72,33.15-62.23,62.94-105.52,87.14
		c-77.37,43.57-174.73,67.46-274.11,67.46c-97.55,0-189.76-21.93-266.84-63.39c-41.45-22.29-76.43-49.86-103.69-80.44
		c-20.93-23.54-37.45-48.85-48.18-75.46c0.2-0.15,0.3-0.15,0.74-0.35c3.76-2.06,7.17-3.82,9.75-4.78c1.19-0.55,3.66-1.56,6.88-2.77
		c16.87-6.64,60.2-23.65,76.33-28.88c36.81,45.03,84.89,82.46,139.11,108.32c56.89,27.07,120.31,41.35,183.73,41.35
		c68.81,0,132.68-14.49,190.01-42.96c55.16-27.52,103.34-67.67,143.41-119.28c13.06,4.02,53.97,20.43,74.5,28.47
		c5.69,2.31,9.65,3.92,11.48,4.58c1.58,0.65,3.61,1.86,5.89,3.17C956.98,772.88,957.13,772.98,957.23,773.13z"/>
</g>
<path class="st1" d="M1066.16,865.1l-87.71-4.03l-1.68,67.97l-58.72-72.35c0.84-1.01,1.58-1.96,2.47-2.97
	c0.74-0.96,1.58-1.96,2.33-2.92l47.15,58.06l1.29-55.44l75.34,3.47l-82.42-77.98c-0.25-0.15-0.54-0.45-1.09-0.91v-0.1
	c0.45-1.21,1.09-2.32,1.39-3.47c0.25-0.65,0.44-1.21,0.64-1.76l0.64-1.96c1.83,1.51,3.22,2.62,3.22,2.62l0.25,0.1L1066.16,865.1z"/>
<g>
	<g>
		<g>
			<path class="st2" d="M176.25,824.33l0.72,0.76c14.18-4.46,28.01-9.69,41.52-15.44c-6.91,12.9-13.38,26.11-19.17,39.86l0.68,0.67
				c16.57-9.36,32.67-19.45,48.09-30.1l-3.45-3.21c-11.31,7.53-22.94,14.71-34.83,21.59c5.81-12.9,12.05-25.42,18.81-37.55
				l-0.66-0.69c-12.63,5.67-25.63,10.82-39,15.34c7.84-11.16,16.02-21.98,24.61-32.43c-0.96-1.25-1.85-2.52-2.73-3.72
				C198.66,793.64,187.12,808.64,176.25,824.33z"/>
		</g>
	</g>
	<g>
		<g>
			<path class="st2" d="M218.56,867.06c1.4,1.09,2.66,2.23,3.96,3.32l9.56-11.41c3.38-4.23,5.88-6.91,7.51-8.15
				c2.55-1.89,5.34-2.89,8.35-3.1c3.02-0.25,5.74,0.47,8.01,2.21c2,1.45,3.18,3.23,3.6,5.23c0.47,1.96,0.08,4.21-0.96,6.75
				c-0.58,1.52-2.34,4.08-5.07,7.93l-11.24,15.66l4.2,3.12l11.91-17.24c3.22-4.5,5.15-8.18,5.79-10.83c0.75-2.7,0.66-5.3-0.21-7.8
				c-0.72-2.45-2.19-4.46-4.33-6.15c-2.13-1.52-4.4-2.47-7.04-2.79c-2.64-0.29-5.58,0-8.88,0.89l14.6-17.71l-3.37-2.83
				L218.56,867.06z"/>
		</g>
	</g>
	<g>
		<g>
			<path class="st2" d="M284.59,903.33c-1.69,0.42-3.66,0.42-5.67,0.11c-1.98-0.38-3.87-1.05-5.57-2.07
				c-3.67-2.16-5.88-5.3-6.68-9.33c-0.75-4.08,0.08-8.04,2.64-12.14c9.61,6.24,19.46,12.01,29.67,17.4
				c2.56-4.94,3.38-9.65,2.86-14.21c-0.75-6.37-3.73-11.05-9.1-14.17c-4.99-3.07-10.51-3.43-16.31-1.07
				c-4.62,1.8-8.38,4.74-11.23,9.07c-3.02,4.59-4.28,9.69-3.61,15.24c0.81,5.64,3.98,10.22,9.64,13.57
				c2.56,1.51,5.13,2.47,7.55,2.83c2.42,0.38,4.99,0.22,7.5-0.42c2.39-0.6,4.9-1.89,7.47-3.77l-2.57-4.01
				C288.56,901.88,286.35,902.99,284.59,903.33z M272.12,876.37c2.94-2.54,5.64-4.14,8.22-4.75c3.61-0.69,6.89-0.27,9.99,1.6
				c1.84,1.12,3.45,2.63,4.62,4.46c1.17,1.89,1.99,3.81,2.21,5.86c0.29,2.09,0,4.41-0.83,7.22
				C288.18,886.31,280.04,881.49,272.12,876.37z"/>
		</g>
	</g>
	<g>
		<g>
			<path class="st2" d="M296.49,918.37l4.77,2.38l6.02-12.32c3.1-6.26,5.44-10.43,7.07-12.19c1.97-2.43,3.94-3.9,5.87-4.52
				c1.97-0.67,3.6-0.67,5.06,0c0.65,0.31,1.24,0.83,1.9,1.74l4.11-3.03c-0.95-1.47-2.06-2.47-3.15-2.94
				c-1.62-0.76-3.39-0.85-5.29-0.56c-1.92,0.31-4.05,1.23-6.4,2.7l2.67-5.28l-4.29-2.18L296.49,918.37z"/>
		</g>
	</g>
	<g>
		<g>
			<path class="st2" d="M348.28,932.44c-1.63,0.67-3.48,0.94-5.59,0.94c-2,0-3.89-0.33-5.8-1.11c-3.87-1.47-6.61-4.19-8.01-8.04
				c-1.53-3.88-1.18-8.07,0.59-12.41c10.51,4.57,21.24,8.67,32.11,12.5c1.76-5.35,1.85-10.12,0.59-14.5
				c-1.75-6.19-5.5-10.43-11.24-12.63c-5.58-2.21-11.03-1.71-16.44,1.6c-4.2,2.5-7.51,6.04-9.56,10.72
				c-2.21,5.01-2.56,10.27-0.96,15.71c1.63,5.35,5.51,9.42,11.61,11.85c2.73,0.98,5.37,1.49,7.86,1.49c2.5-0.07,4.86-0.6,7.28-1.56
				c2.26-1.03,4.54-2.67,6.75-4.92l-3.17-3.52C351.93,930.46,349.95,931.75,348.28,932.44z M331.75,907.92
				c2.27-3.1,4.78-5.04,7.18-6.04c3.52-1.32,6.83-1.32,10.14-0.07c1.98,0.85,3.89,2.03,5.36,3.7c1.4,1.71,2.49,3.5,3.07,5.5
				c0.59,2,0.75,4.37,0.38,7.15C349.08,915.05,340.27,911.62,331.75,907.92z"/>
		</g>
	</g>
	<g>
		<g>
			<path class="st2" d="M384.84,952.23c8.44,2.3,16.81,4.37,25.41,6.24l1.11-5.12c-6.76-1.54-13.29-3.08-19.97-4.86l12.71-47.92
				l-4.78-1.2L384.84,952.23z"/>
		</g>
	</g>
	<g>
		<g>
			<path class="st2" d="M447.5,957.44c-1.47,1.02-3.16,1.74-5.15,2.09c-2.07,0.45-4.04,0.54-6.02,0.16
				c-4.1-0.69-7.29-2.85-9.48-6.26c-2.21-3.52-2.8-7.6-2.05-12.19c11.32,2.25,22.55,3.94,34.01,5.5c0.58-5.5-0.24-10.29-2.27-14.3
				c-3.1-5.68-7.67-9.04-13.83-10.02c-6-1.07-11.17,0.58-15.64,4.88c-3.74,3.43-6.04,7.62-7.21,12.59
				c-1.09,5.3-0.27,10.54,2.37,15.46c2.7,4.92,7.34,8.11,13.72,9.2c2.94,0.42,5.57,0.42,8.01-0.11c2.43-0.65,4.62-1.6,6.66-3.07
				c2.07-1.51,3.99-3.56,5.75-6.15l-3.9-2.85C450.64,954.75,448.96,956.44,447.5,957.44z M426.2,936.9c1.68-3.52,3.59-5.95,5.87-7.4
				c3.1-2.09,6.41-2.74,9.93-2.14c2.11,0.33,4.19,1.18,6,2.45c1.77,1.25,3.23,2.92,4.19,4.72c0.96,1.83,1.55,4.17,1.84,6.97
				C444.69,940.29,435.38,938.71,426.2,936.9z"/>
		</g>
	</g>
	<g>
		<g>
			<path class="st2" d="M502,929.66l-0.28,7.49c-1.76-2.92-3.82-5.17-6.25-6.73c-2.3-1.56-5-2.43-8.01-2.61
				c-5.24-0.4-9.69,1.27-13.88,4.99c-4.19,3.74-6.7,8.51-7.34,14.28c-0.59,5.97,0.64,11.18,4.19,15.75
				c3.52,4.5,8.14,7.02,13.71,7.46c3.15,0.22,6.09-0.25,8.89-1.45c2.72-1.18,5.16-3.03,7.42-5.61l-0.29,6.97l4.99,0.22l1.56-40.52
				L502,929.66z M497.59,938.19c2.7,3.28,4.04,7.35,3.83,11.94c-0.17,3.19-0.97,5.86-2.36,8.27c-1.47,2.41-3.47,4.19-6.04,5.5
				c-2.56,1.31-5.28,1.83-8.01,1.6c-2.72-0.13-5.29-1.07-7.56-2.67c-2.12-1.72-3.82-3.97-4.99-6.68c-1.2-2.72-1.62-5.5-1.2-8.4
				c0.25-2.85,1.2-5.46,2.72-7.93c1.63-2.45,3.52-4.26,6.03-5.46c2.35-1.23,4.78-1.69,7.42-1.49
				C491.56,933.11,494.92,934.92,497.59,938.19z"/>
		</g>
	</g>
	<g>
		<g>
			<path class="st2" d="M514.71,970.65l5.12,0.09l0.24-13.66c0.14-7.02,0.43-11.72,1.02-14.06c0.79-2.99,1.91-5.19,3.52-6.66
				c1.33-1.4,3.02-2.14,4.56-2.14c0.64,0,1.52,0.22,2.56,0.69l2.43-4.45c-1.55-0.85-3.02-1.31-4.28-1.31
				c-1.75,0.07-3.44,0.6-4.9,1.74c-1.69,1.18-3.24,2.94-4.71,5.28v-5.9l-4.77-0.11L514.71,970.65z"/>
		</g>
	</g>
	<g>
		<g>
			<path class="st2" d="M540.63,970.59l5.21-0.16l-0.59-14.84c-0.21-5.39-0.13-9.05,0.3-11.14c0.59-3.05,2-5.7,4.27-7.91
				c2.14-2.18,4.69-3.36,7.48-3.5c2.58-0.18,4.64,0.33,6.24,1.58c1.72,1.2,2.94,3.18,3.76,5.77c0.43,1.6,0.88,4.66,1.31,9.27
				l1.47,19.36l5.15-0.49l-1.92-20.79c-0.5-5.55-1.39-9.56-2.65-11.99c-1.17-2.54-3.01-4.48-5.21-5.86c-2.26-1.31-4.7-1.94-7.5-1.72
				c-2.56,0.11-5.12,0.96-7.33,2.47c-2.2,1.49-4.29,3.65-6.09,6.49l-0.17-7.24l-4.83,0.16L540.63,970.59z"/>
		</g>
	</g>
	<g>
		<g>
			<path class="st2" d="M578.83,911.9c-0.67,0.96-0.88,1.96-0.75,3.14c0.08,1.14,0.58,2.14,1.39,2.92c0.89,0.71,1.84,1.11,2.88,0.98
				c1.01-0.18,1.9-0.69,2.49-1.58c0.59-0.98,0.96-1.98,0.83-3.16c-0.24-1.18-0.75-2.14-1.47-2.9c-0.84-0.73-1.76-1.09-2.8-0.91
				C580.36,910.5,579.47,911.01,578.83,911.9z M585.21,967.53l5.21-0.6l-4.76-40.24l-4.73,0.51L585.21,967.53z"/>
		</g>
	</g>
	<g>
		<g>
			<path class="st2" d="M600.93,965.57l5.12-0.74l-2.25-14.7c-0.81-5.24-1.03-8.93-0.89-10.98c0.15-3.19,1.34-5.97,3.31-8.42
				c1.85-2.43,4.27-3.83,7.13-4.41c2.43-0.4,4.61-0.13,6.38,0.98c1.74,1,3.16,2.81,4.33,5.37c0.59,1.45,1.4,4.48,2.28,9.02
				l3.83,18.98l4.89-1.03l-4.24-20.45c-1.11-5.37-2.41-9.29-3.9-11.61c-1.64-2.36-3.6-4.05-5.94-5.17
				c-2.36-1.09-4.87-1.47-7.56-0.96c-2.65,0.53-5.07,1.54-6.99,3.36c-2.06,1.65-3.82,4.03-5.37,7.08l-1.1-7.2l-4.62,0.71
				L600.93,965.57z"/>
		</g>
	</g>
	<g>
		<g>
			<path class="st2" d="M669.25,916.38c-2.95-2.12-5.67-3.36-8.4-3.96c-2.48-0.6-5.2-0.51-7.82,0.25c-3.19,0.87-5.91,2.52-8.4,5.08
				c-2.53,2.58-4.18,5.57-5.15,9.16c-0.95,3.52-1.1,7.13-0.2,10.8c0.79,3.68,2.42,6.79,4.84,9.51c2.28,2.61,5.28,4.5,8.91,5.52
				c3.57,1,7.1,1.05,10.62,0.16c3.01-0.85,5.64-2.25,8.07-4.34c2.21-2.01,3.98-4.57,5.01-7.46l0.66,2.07
				c1.33,4.28,1.67,7.49,1.33,9.74c-0.47,2.14-1.72,4.26-3.69,6.21c-1.89,1.96-4.61,3.48-8.14,4.35c-3.47,0.98-6.61,1.09-9.18,0.4
				c-2.72-0.67-5.15-2.07-7.14-4.39l-5.53,1.32c2.08,2.79,4.21,4.72,6.24,5.99c2.08,1.14,4.67,1.94,7.66,2.25
				c2.88,0.22,6.09-0.09,9.46-1.09c4.74-1.16,8.33-3.25,11.04-6.15c2.72-2.92,4.13-6.44,4.27-10.34c0.15-2.72-0.52-6.95-2.28-12.3
				l-9.62-30.86l-4.55,1.38L669.25,916.38z M662.5,917.36c2.54,0.78,4.75,2.09,6.57,3.99c1.93,1.96,3.24,4.37,4.21,7.33
				c1.23,4.5,1.1,8.53-0.83,12.1c-1.84,3.59-5.16,5.99-9.63,7.17c-4.32,1.2-8.36,0.78-11.82-1.4c-3.59-2.14-5.71-5.37-6.83-9.71
				c-0.59-2.81-0.59-5.68,0.07-8.42c0.77-2.79,1.98-5.17,3.91-7.06c1.92-1.98,4.19-3.32,6.76-3.99
				C657.41,916.58,659.89,916.76,662.5,917.36z"/>
		</g>
	</g>
	<g>
		<g>
			<path class="st2" d="M714.77,936.1c4.71-1.78,9.18-3.65,13.73-5.68c4.99-2.12,8.22-5.21,9.77-9.31
				c1.57-4.14,1.38-8.09-0.51-12.03c-0.8-1.96-2.14-3.68-3.76-4.95c-1.39-1.38-3.07-2.32-4.92-2.92c-1.89-0.58-4.2-0.76-6.96-0.58
				c1.39-2.03,2.13-4.17,2.35-6.42c0.12-2.27-0.32-4.48-1.35-6.68c-1.08-2.41-2.69-4.28-4.62-5.77c-1.98-1.45-4.1-2.18-6.36-2.36
				c-2.24-0.05-5.17,0.69-8.6,2.09c-2.88,1.16-5.9,2.36-8.59,3.54L714.77,936.1z M706.4,886.13c3.02-1.34,5.57-1.65,7.54-1
				c2.06,0.71,3.63,2.21,4.56,4.43c0.74,1.76,1.03,3.45,0.89,5.24c-0.38,1.78-1.1,3.32-2.36,4.7c-1.15,1.18-3.38,2.67-6.61,3.96
				l-2.62,1.07l-6.7-16.29C702.87,887.53,704.55,886.84,706.4,886.13z M712.56,908.54c3.91-1.63,6.84-2.63,8.51-2.9
				c2.65-0.47,5-0.13,7.2,0.87c2.06,1.05,3.63,2.72,4.78,4.88c0.74,1.78,0.88,3.66,0.74,5.57c-0.3,2-1.18,3.65-2.56,5.17
				c-1.26,1.47-3.75,2.96-7.41,4.5c-2.07,0.87-4.03,1.67-6.04,2.52l-7.95-19.54L712.56,908.54z"/>
		</g>
	</g>
	<g>
		<g>
			<path class="st2" d="M775.3,898.11c-0.52,1.74-1.47,3.41-2.86,4.95c-1.18,1.6-2.81,2.85-4.49,3.9c-3.69,1.96-7.58,2.4-11.49,1.05
				c-3.85-1.38-6.96-4.17-9.09-8.33c10.13-5.26,20.14-10.92,29.81-17.02c-2.94-4.63-6.6-7.8-10.86-9.58
				c-5.9-2.52-11.37-2.32-16.83,0.76c-5.14,2.9-8.15,7.37-9.01,13.61c-0.89,4.9,0,9.65,2.18,14.24c2.43,4.95,6.16,8.53,11.45,10.74
				c5.16,2.16,10.73,1.74,16.47-1.54c2.66-1.38,4.71-3.16,6.31-5.1c1.46-1.94,2.62-4.19,3.21-6.62c0.76-2.41,0.96-5.24,0.62-8.4
				l-4.76,0.29C776.01,894.13,775.81,896.46,775.3,898.11z M745.69,895.4c-0.89-3.74-0.89-6.84,0-9.4c1.1-3.52,3.23-6.1,6.33-7.84
				c2.04-1.05,4.03-1.63,6.2-1.78c2.21-0.07,4.28,0.22,6.2,1.07c1.91,0.8,3.87,2.21,5.87,4.26
				C762.2,886.64,754.12,891.14,745.69,895.4z"/>
		</g>
	</g>
	<g>
		<g>
			<path class="st2" d="M803.13,847.72c-3.5-0.82-6.62-1.11-9.18-0.71c-2.64,0.4-4.98,1.49-7.21,2.99
				c-2.55,1.96-4.57,4.48-5.87,7.71c-1.38,3.21-1.92,6.64-1.55,10.29c0.38,3.68,1.55,7.06,3.62,10.25c1.96,3.14,4.56,5.52,7.78,7.24
				c3.23,1.65,6.67,2.29,10.35,2c3.75-0.33,7.06-1.65,10.21-3.81c2.5-1.81,4.49-4.19,5.87-6.97c1.55-2.74,2.14-5.77,2.05-8.87
				l1.39,1.6c2.72,3.5,4.35,6.42,4.77,8.67c0.47,2.18,0.08,4.54-1.1,7.13c-1.17,2.61-3.22,4.99-6.15,7.11
				c-2.94,2.18-5.97,3.52-8.67,3.9c-2.78,0.27-5.57-0.27-8.37-1.54l-4.71,3.07c3.01,1.89,5.66,2.99,8.02,3.43
				c2.48,0.38,5.15,0.27,8-0.65c2.88-0.82,5.87-2.27,8.81-4.39c3.88-2.96,6.62-6.35,8.15-10.12c1.47-3.7,1.62-7.46,0.3-11.21
				c-0.79-2.7-3.1-6.22-6.69-10.56l-20.56-25.04c-1.32,1-2.35,1.94-3.61,2.92L803.13,847.72z M797.17,851.13
				c2.66-0.31,5.22,0.11,7.64,1.18c2.48,1.18,4.71,2.94,6.61,5.35c2.86,3.63,4.12,7.53,3.75,11.45c-0.51,4.03-2.73,7.49-6.47,10.27
				c-3.75,2.78-7.79,3.79-11.69,3.1c-4.02-0.78-7.34-3.1-9.82-6.77c-1.55-2.38-2.6-5.06-2.87-7.91c-0.36-2.87,0.07-5.5,1.09-8
				c1.11-2.54,2.7-4.54,4.86-6.11C792.41,852.22,794.6,851.35,797.17,851.13z"/>
		</g>
	</g>
	<g>
		<g>
			<path class="st2" d="M798.94,821.97c0.09,1,0.43,2.05,1.26,2.96c0.65,0.89,1.69,1.4,2.77,1.56c1.03,0.18,1.99-0.07,2.8-0.76
				c0.81-0.65,1.09-1.61,1.09-2.67c-0.07-1.09-0.51-2.09-1.17-2.98c-0.88-0.89-1.82-1.36-2.94-1.56c-1.1-0.11-1.96,0.16-2.65,0.8
				C799.37,819.92,798.94,820.81,798.94,821.97z M836.11,863.89c1.23-1.07,2.55-2.32,3.9-3.45l-27.1-30.12
				c-1.17,0.91-2.35,1.98-3.52,3.01L836.11,863.89z"/>
		</g>
	</g>
	<g>
		<g>
			<path class="st2" d="M847.93,853.07c1.26-1.23,2.51-2.45,3.81-3.7l-10.49-10.51c-3.82-3.79-6.24-6.55-7.29-8.33
				c-1.69-2.76-2.41-5.68-2.41-8.73c0.14-3.07,1.15-5.59,3.07-7.69c1.79-1.78,3.54-2.76,5.51-3.07c2.04-0.2,4.28,0.31,6.64,1.71
				c1.44,0.76,3.97,2.65,7.41,5.73l14.59,12.72c1.18-1.34,2.38-2.72,3.56-3.94l-16.1-13.52c-4.28-3.54-7.63-5.73-10.28-6.64
				c-2.64-0.98-5.23-1.18-7.71-0.6c-2.59,0.51-4.7,1.78-6.55,3.77c-1.77,1.8-2.84,4.08-3.44,6.68c-0.58,2.54-0.58,5.46,0.05,8.8
				l-5.04-5.21l-3.38,3.21L847.93,853.07z"/>
		</g>
	</g>
	<g>
		<g>
			<path class="st2" d="M851.33,786.49c-1.73,2.32-2.14,4.68-1.76,7.46c0.48,2.7,1.96,4.99,4.31,6.84c1.83,1.5,3.9,2.4,5.99,2.55
				c2.23,0.16,5.15-0.56,8.77-2.24c3.35-1.58,5.8-2.38,7.2-2.56c1.39-0.02,2.77,0.31,4.09,1.18c1.48,1.07,2.41,2.51,2.51,4.51
				c0.36,1.96-0.1,3.81-1.41,5.44c-1.74,2.38-4.68,3.76-8.66,3.99c0.3,1.58,0.59,3.21,0.89,4.83c2.29,0.02,4.46-0.51,6.53-1.56
				c2.21-1.05,3.97-2.54,5.35-4.41c2.07-2.99,2.94-6.04,2.35-9.29c-0.58-3.24-2.25-5.76-5.05-7.67c-2.01-1.23-4.04-1.92-6.38-1.92
				c-2.31,0.09-5.24,1.05-9.06,2.76c-3.07,1.47-5.34,2.14-6.96,2.14c-1.4,0-2.73-0.4-3.83-1.25c-1.1-0.82-1.83-2.07-2.04-3.65
				c-0.24-1.47,0.07-2.92,0.95-4.06c1.4-1.98,3.95-3.1,7.56-3.65c-0.43-1.42-0.73-2.96-1.18-4.39
				C856.6,782.23,853.22,783.84,851.33,786.49z"/>
		</g>
	</g>
</g>
<g>
	<path class="st3" d="M530.55,67.29c-223.8,0-405.85,181.52-405.85,404.59s182.05,404.59,405.85,404.59
		c223.75,0,405.85-181.52,405.85-404.59S754.3,67.29,530.55,67.29z M530.55,756.08c-158.75,0-287.42-127.23-287.42-284.2
		c0-156.97,128.67-284.2,287.42-284.2c158.7,0,287.42,127.23,287.42,284.2C817.97,628.85,689.25,756.08,530.55,756.08z"/>
	<ellipse class="st0" cx="530.55" cy="471.88" rx="287.42" ry="284.2"/>
</g>
<path class="st0" d="M845.53,234.47l-69.12,70.37c-53.51-78.04-143.95-129.26-246.45-129.26c-101.75,0-191.54,50.45-245.27,127.62
	l-69.12-70.27c72.03-94.67,186.16-155.85,314.39-155.85C658.94,77.08,773.61,138.92,845.53,234.47z"/>
<g>
	<g>
		<g>
			<g>
				<g>
					<path class="st0" d="M154.37,429.44l49.89,6.58c-0.85,5.9-1.43,11.96-1.92,17.97l10.19,0.77c1.2-15.62,3.64-31.11,7.1-46.33
						l-9.91-2.37c-1.49,5.88-2.65,11.78-3.58,17.75l-49.61-8.52C155.65,419.98,154.94,424.69,154.37,429.44z"/>
				</g>
			</g>
		</g>
	</g>
	<g>
		<g>
			<g>
				<g>
					<path class="st0" d="M211.9,485.91c-0.13-4.22-0.13-8.37-0.13-12.66c-20.1-7.91-39.84-17.35-59.16-28.28
						c-0.4,5.09-0.84,10.12-1.03,15.17c4.49,2.22,9.04,4.26,13.46,6.27c-0.27,9.06-0.2,18.18,0.28,27.3
						c-4.42,2.22-8.91,4.5-13.28,6.84c0.28,5.13,0.71,10.36,1.28,15.56C172.35,504.41,191.95,494.39,211.9,485.91z M175.23,470.82
						c7.46,3.18,14.89,6.03,22.5,8.72c-7.46,2.94-14.91,6.01-22.3,9.36C175.16,482.84,175.16,476.86,175.23,470.82z"/>
				</g>
			</g>
		</g>
	</g>
	<g>
		<g>
			<g>
				<g>
					<path class="st0" d="M183.73,580.36c4.22,0.41,8.79-0.28,13.85-1.9c9.34-3.11,15.8-8.08,19.6-14.7
						c3.73-6.54,4.58-13.85,2.74-22.35c-1.97-8.57-5.82-14.96-11.96-19.37c-6.24-4.33-14.17-6.2-23.95-4.97
						c-9.91,1.19-17.21,4.92-21.84,11.81c-4.5,6.76-5.75,15.77-3.43,26.51c1.32,5.43,3.37,10.25,6.26,14.3
						c-1.71,6.59-2.55,10.21-2.55,10.68c-0.34,2.32-0.41,4.6-0.28,6.84c3.23,0.87,6.53,1.64,9.76,2.41c0-4.37,0.49-8.44,1.61-12.36
						C177.07,579.06,180.44,580.19,183.73,580.36z M180.16,550.72l-7.74-2.28c-0.28,3.03-0.92,6.09-1.82,9.18
						c-0.92-1.58-1.63-3.43-2.12-5.31c-1.12-5.41-0.28-10.08,2.68-14.17c2.81-4.03,7.71-6.58,14.68-7.69
						c6.87-1.11,12.36-0.36,16.29,2.13c4.01,2.54,6.47,6.09,7.51,11.02c1.13,4.84,0.43,9.23-2.17,13.09
						c-2.53,3.96-7.11,6.93-13.85,8.84c-3.22,0.87-6.25,1.32-9.06,1.19c-2.73-0.19-5.25-0.83-7.43-2.11
						C178.76,559.95,179.73,555.32,180.16,550.72z"/>
				</g>
			</g>
		</g>
	</g>
	<g>
		<g>
			<g>
				<g>
					<path class="st0" d="M181.85,622.19c15.8-1.81,31.4-4.18,46.64-7.16c-11.74,10.38-23.18,21.22-34.13,32.5
						c2.37,4.5,4.82,8.86,7.36,13.21c20.37-5.37,40.33-11.64,59.72-18.8c-2.09-3.3-4.21-6.71-6.3-10.12
						c-13.64,4.71-27.55,9.02-41.39,12.91c10.27-10.38,20.86-20.27,31.81-29.83c-2.24-4.28-4.26-8.48-6.17-12.77
						c-14.17,2.58-28.32,4.6-42.77,6.2c11.44-8.5,23.18-16.58,35.06-24.27c-1.48-3.79-2.89-7.67-4.09-11.53
						c-17.64,10.95-34.98,22.74-51.63,35.35C177.83,612.69,179.8,617.44,181.85,622.19z"/>
				</g>
			</g>
		</g>
	</g>
	<g>
		<g>
			<g>
				<g>
					<path class="st0" d="M280,667.1c-2.68-3.28-5.28-6.59-7.73-9.93c-20.79,5.93-42.28,10.51-64.31,13.68
						c2.77,4.28,5.57,8.42,8.46,12.62c4.83-1.09,9.75-2.15,14.53-3.3c5.34,7.33,10.9,14.47,16.86,21.44
						c-2.25,4.45-4.49,8.99-6.51,13.55c3.43,3.94,6.88,7.8,10.47,11.49C259.9,705.88,269.38,685.96,280,667.1z M241.7,677.49
						c7.81-2.09,15.52-4.33,23.11-6.76c-4.14,6.86-8.14,13.89-12,21.01C248.95,687.11,245.26,682.35,241.7,677.49z"/>
				</g>
			</g>
		</g>
	</g>
	<g>
		<g>
			<g>
				<g>
					<path class="st0" d="M304.92,767.66c1.69,5.65,6.33,11.15,13.92,16c5.06,3.32,9.83,5.41,14.21,6.22
						c4.28,0.83,8.14,0.45,11.5-1.17c3.45-1.53,5.85-3.84,7.58-6.93c1.83-3.37,2.68-6.65,2.32-9.72c-0.2-3.07-1.25-6.07-3.15-8.93
						c-1.89-2.79-5.11-6.5-9.63-11c-4.5-4.56-6.94-7.93-7.5-9.85c-0.44-1.58-0.28-2.94,0.48-4.16c1-1.21,2.25-1.92,3.95-1.92
						c2.47,0,5.2,0.96,8.09,2.92c2.94,1.85,4.77,3.86,5.62,5.86c0.76,2.15,0.56,4.65-0.64,7.56c3.74,2.02,7.51,4.01,11.24,5.88
						c2.53-4.92,2.89-9.87,1.28-14.62c-1.6-4.82-5.62-9.1-11.8-13.11c-3.81-2.49-7.38-4.11-10.83-4.86c-3.44-0.7-6.69-0.49-9.7,0.58
						c-3.02,1.13-5.46,2.85-7.29,5.35c-2.89,3.86-3.86,8.23-2.61,13.32c0.91,3.47,3.8,8.03,8.78,13.34
						c3.93,4.09,6.46,6.78,7.59,7.99c1.55,1.83,2.47,3.45,2.76,4.78c0.28,1.32,0.05,2.64-0.79,3.86c-1.05,1.9-3.1,3.05-5.82,3.28
						c-2.73,0.24-6.1-0.81-9.83-3.28c-3.65-2.28-5.85-5.01-6.88-7.93c-0.98-2.94-0.57-6.33,1.11-9.99
						c-3.78-2.22-7.58-4.49-11.3-6.86C304.07,756.22,303.18,761.99,304.92,767.66z"/>
				</g>
			</g>
		</g>
	</g>
	<g>
		<g>
			<g>
				<g>
					<path class="st0" d="M367.18,809.07l11.03-24c7.86,3.56,15.95,6.95,24.01,10l-9.34,24.79c4.65,1.68,8.99,3.28,13.51,4.77
						l19.17-57.51c-3.88-1.26-7.57-2.62-11.3-3.99l-8.42,22.31c-7.88-2.94-15.55-6.24-23.27-9.69l9.98-21.65
						c-3.68-1.66-7.24-3.43-10.82-5.24l-27.4,54.06C358.54,805.06,362.83,807.11,367.18,809.07z"/>
				</g>
			</g>
		</g>
	</g>
	<g>
		<g>
			<g>
				<g>
					<path class="st0" d="M433.91,832.65l14.69-58.78c-3.93-1-7.73-2.09-11.52-3.15l-17.01,58.19
						C424.64,830.22,429.22,831.43,433.91,832.65z"/>
				</g>
			</g>
		</g>
	</g>
	<g>
		<g>
			<g>
				<g>
					<path class="st0" d="M452.81,832.5c3.94,4.39,10.34,7.5,19.26,8.74c6.13,0.83,11.39,0.75,15.52-0.3
						c4.16-1.09,7.58-3.09,9.97-5.86c2.46-2.79,3.74-6.01,4.02-9.5c0.21-3.79-0.44-7.03-2.05-9.78c-1.4-2.79-3.65-5.03-6.52-6.77
						c-2.89-1.85-7.31-3.75-13.36-5.97c-5.97-2.28-9.62-4.26-10.95-5.84c-1.13-1.19-1.41-2.54-1.21-3.94
						c0.29-1.56,1.13-2.66,2.53-3.39c2.32-1,5.2-1.32,8.86-0.81c3.3,0.49,5.82,1.53,7.38,3.11c1.61,1.53,2.45,3.9,2.74,7.05
						c4.16,0.26,8.37,0.47,12.59,0.64c0.21-5.56-1.48-10.1-4.93-13.81c-3.5-3.67-8.91-5.93-16.29-6.99
						c-4.5-0.66-8.43-0.66-11.88,0.13c-3.44,0.85-6.24,2.37-8.57,4.58c-2.32,2.34-3.73,4.92-4.42,8.01c-0.91,4.67,0,9.04,3.22,13.04
						c2.34,2.94,6.82,5.81,13.57,8.51c5.36,2.07,8.78,3.37,10.26,4.11c2.18,1.04,3.73,2.05,4.5,3.17c0.85,1.07,1.13,2.34,0.92,3.79
						c-0.2,2.17-1.47,4.01-3.92,5.33c-2.4,1.45-5.9,1.9-10.34,1.3c-4.21-0.64-7.32-2.15-9.48-4.39c-2.12-2.24-3.16-5.48-3.24-9.55
						c-4.34-0.41-8.71-0.9-13.05-1.49C447.34,822.44,448.8,828.13,452.81,832.5z"/>
				</g>
			</g>
		</g>
	</g>
	<g>
		<g>
			<g>
				<g>
					<path class="st0" d="M526.5,844.18l0.08-26.49c8.7,0,17.44-0.26,26.06-0.83l1.76,26.4c4.78-0.32,9.48-0.7,14.2-1.19
						l-6.26-60.28c-3.92,0.43-8.09,0.75-12.1,1.04l1.72,23.76c-8.38,0.58-16.8,0.83-25.31,0.83l0.08-23.87
						c-3.93,0-7.95-0.13-11.95-0.26l-2.45,60.53C517.03,844.03,521.89,844.18,526.5,844.18z"/>
				</g>
			</g>
		</g>
	</g>
	<g>
		<g>
			<g>
				<g>
					<path class="st0" d="M579.13,812.29c1,6.71,2.12,11.66,3.52,14.98c0.92,2.22,2.52,4.26,4.93,6.07c2.3,1.79,5.18,3.07,8.84,3.75
						c3.59,0.75,8.85,0.38,15.46-1.04c5.48-1.21,9.77-2.88,12.84-4.96c3.1-2.03,5.28-4.39,6.68-6.93c1.35-2.49,2.03-5.33,1.84-8.38
						c-0.16-3.15-1.29-8.17-3.31-15.14l-9.06-30.49c-3.88,1.15-7.73,2.2-11.58,3.2l8.35,32.46c1.18,4.66,1.75,8.02,1.95,10.11
						c0.08,2.09-0.57,4.07-2.1,5.95c-1.67,1.87-4.43,3.22-8.3,4.14c-3.79,0.79-6.88,0.62-9.41-0.36c-2.45-1.07-4.22-2.79-5.26-5.12
						c-0.5-1.45-1.33-4.73-2.25-9.87l-5.82-32.3c-3.95,0.72-7.89,1.32-11.9,1.94L579.13,812.29z"/>
				</g>
			</g>
		</g>
	</g>
	<g>
		<g>
			<g>
				<g>
					<path class="st0" d="M701.1,733.56c-3.51,2.24-7.17,4.41-10.8,6.5c3.44,21.37,5.6,43.24,6.25,65.38
						c4.48-2.22,8.98-4.5,13.43-6.88c-0.43-5.01-1-9.93-1.65-14.83c7.96-4.52,15.69-9.16,23.27-14.15
						c4.21,2.71,8.36,5.37,12.72,7.99c4.28-2.86,8.59-5.92,12.59-9.03C737.29,758.03,718.6,746.31,701.1,733.56z M707,772.8
						c-1.25-8.04-2.53-15.92-4-23.76c6.25,4.9,12.79,9.7,19.46,14.32C717.35,766.64,712.22,769.79,707,772.8z"/>
				</g>
			</g>
		</g>
	</g>
	<g>
		<g>
			<g>
				<g>
					<path class="st0" d="M784.01,729.19c-0.51,3.32-2.04,6.24-4.85,8.76c-3.64,3.35-7.87,4.84-12.22,4.35
						c-4.57-0.43-9.15-3.69-14.04-9.59c-4.66-5.62-6.84-10.48-6.76-14.77c0.07-4.31,1.68-7.93,5.05-11
						c2.39-2.24,5.07-3.49,8.08-3.71c2.87-0.28,5.68,0.34,8.38,2.07c2.3-3.64,4.54-7.35,6.81-11c-4.71-2.28-8.73-3.39-12.45-3.22
						c-6.41,0.28-12.21,2.86-17.33,7.76c-6.21,5.56-9.57,11.89-10.01,19.52c-0.56,7.65,1.97,15.49,8.14,23.51
						c5.85,7.57,12.67,11.85,20.74,12.42c8.02,0.49,15.89-2.36,22.83-8.76c5.57-5.13,8.94-10.74,10.2-16.43
						c1.05-5.73-0.08-11.68-3.51-17.67c-3.92,2.37-7.94,4.65-11.81,6.8C783.5,722.18,784.42,725.87,784.01,729.19z"/>
				</g>
			</g>
		</g>
	</g>
	<g>
		<g>
			<g>
				<g>
					<path class="st0" d="M787.59,651.88c-2.45,3.43-4.97,6.8-7.6,10.14c11.16,18.5,21.23,37.98,29.99,58.35
						c3.39-3.75,6.67-7.57,9.92-11.42c-2.2-4.43-4.57-8.82-6.89-13.11c5.7-7.1,11.12-14.38,16.39-21.89
						c4.84,0.98,9.68,1.94,14.73,2.75c2.84-4.33,5.64-8.72,8.32-13.17C830.3,661.15,808.65,657.23,787.59,651.88z M807.53,686.17
						c-3.85-7.03-8.14-13.87-12.43-20.61c7.66,2.22,15.51,4.33,23.41,6.12C814.98,676.64,811.34,681.39,807.53,686.17z"/>
				</g>
			</g>
		</g>
	</g>
	<g>
		<g>
			<g>
				<g>
					<path class="st0" d="M856.31,657.08c4.49-7.78,8.69-15.75,12.55-23.85c2.41-4.75,3.73-8.76,4.24-12
						c0.6-4.28,0.49-8.04-0.56-11.04c-1.27-4.07-3.74-7.67-7.33-10.85c-2.89-2.56-6.66-4.69-11.31-6.46
						c-5.36-1.98-10.03-2.98-14.14-3.11c-4.06-0.06-7.86,0.47-11.21,1.81c-3.45,1.36-6.34,3.39-8.73,6.16
						c-1.67,2-3.56,5.26-5.75,9.7c-3.23,6.58-6.59,12.96-10.2,19.29L856.31,657.08z M821.24,616.14c2.24-4.48,3.86-7.46,4.92-8.8
						c1.39-1.94,3.1-3.3,4.99-4.16c1.88-0.79,4.13-1.07,6.8-0.87c2.61,0.15,6.12,1.17,10.4,3c4.36,1.83,7.52,3.64,9.71,5.6
						c2.18,1.9,3.44,3.82,3.93,5.56c0.49,1.92,0.49,3.9,0,6.12c-0.37,1.71-1.41,4.35-3.09,7.86c-1.48,3.13-3.16,6.2-4.71,9.29
						l-35.48-18.65L821.24,616.14z"/>
				</g>
			</g>
		</g>
	</g>
	<g>
		<g>
			<g>
				<g>
					<path class="st0" d="M899.22,539.61l-10.12-1.75c-2.17,12.64-5.12,25.17-8.69,37.49l-15.88-4.58
						c3.2-10.57,5.68-21.29,7.69-32.09l-10.09-1.92c-1.88,10.53-4.34,20.86-7.36,31.09l-12.87-3.79
						c3.03-10.51,5.63-21.23,7.51-32.01l-10.11-1.85c-2.6,14.38-6.26,28.49-10.88,42.34l57.4,19.44
						C891.65,574.88,895.99,557.41,899.22,539.61z"/>
				</g>
			</g>
		</g>
	</g>
	<g>
		<g>
			<g>
				<g>
					<path class="st0" d="M902.74,514.62l-47.48-4.99c16.28-2.37,32.53-5.33,48.67-8.97c0.35-4.6,0.5-9.16,0.63-13.72
						c-15.8-5.18-31.62-9.7-47.56-13.6l47.72-0.51c-0.09-4.39-0.23-8.86-0.43-13.32l-60.48,2.92c0.28,5.9,0.43,11.89,0.33,17.86
						c13.69,3.71,27.41,7.84,40.98,12.55c-14.01,3.41-27.98,6.33-42,8.74c-0.54,5.9-1.13,11.89-1.98,17.77l59.98,8.55
						C901.75,523.48,902.3,519.09,902.74,514.62z"/>
				</g>
			</g>
		</g>
	</g>
	<g>
		<g>
			<g>
				<g>
					<path class="st0" d="M899.01,412.73l-25.02,4.47c-13-5.86-26.13-10.87-39.2-14.94c1.13,4.45,2.18,8.93,3.09,13.32
						c8.65,2.86,17.43,6.05,26.16,9.61c-7.1,6.22-14.44,12.04-21.86,17.58c0.49,4.65,0.97,9.29,1.18,13.94
						c11.33-8.01,22.2-16.77,32.53-26.38l25.35-3.47C900.63,422.07,899.87,417.36,899.01,412.73z"/>
				</g>
			</g>
		</g>
	</g>
</g>
<g>
	<polygon class="st4" points="229.26,302.16 208.12,302.16 197.55,320.77 208.12,339.38 229.26,339.38 239.83,320.77 	"/>
	<path class="st0" d="M230.81,342.11h-24.24l-12.12-21.34l12.12-21.33h24.24l12.12,21.33L230.81,342.11z M209.67,336.65h18.03
		l9.03-15.89l-9.03-15.88h-18.03l-9.03,15.88L209.67,336.65z"/>
</g>
<g>
	<polygon class="st4" points="856.1,302.16 834.96,302.16 824.39,320.77 834.96,339.38 856.1,339.38 866.67,320.77 	"/>
	<path class="st0" d="M857.65,342.11h-24.24l-12.12-21.34l12.12-21.33h24.24l12.12,21.33L857.65,342.11z M836.51,336.65h18.04
		l9.01-15.89l-9.01-15.88h-18.04l-9.01,15.88L836.51,336.65z"/>
</g>
<g>
	<g>
		<g>
			<g>
				<g>
					<g>
						<g>
							<path class="st2" d="M436.42,698.05l-8.07-0.15v6.14l8.99,0.23l-0.15,4.79l-14.05-0.23l0.41-26.15l13.64,0.3l-0.09,4.84
								l-8.63-0.13l-0.06,5.41l8.14,0.15L436.42,698.05z"/>
						</g>
					</g>
				</g>
			</g>
		</g>
		<g>
			<g>
				<g>
					<g>
						<g>
							<path class="st2" d="M440.91,703.08c1.33,0.87,3.38,1.73,5.54,1.73c2.25,0,3.52-1.05,3.52-2.77
								c0.08-1.64-0.96-2.58-3.64-3.77c-3.65-1.58-6.05-3.94-5.98-7.8c0.16-4.5,3.38-7.78,8.58-7.78c2.46,0.13,4.34,0.7,5.54,1.47
								l-1.12,4.71c-0.92-0.47-2.53-1.26-4.65-1.26c-2.09-0.06-3.13,1.09-3.22,2.43c-0.07,1.68,1.21,2.41,4.02,3.73
								c3.93,1.77,5.69,4.28,5.61,7.97c0,4.37-3.01,7.97-8.98,7.86c-2.68,0-5.06-0.83-6.26-1.62L440.91,703.08z"/>
						</g>
					</g>
				</g>
			</g>
		</g>
		<g>
			<g>
				<g>
					<g>
						<g>
							<path class="st2" d="M462.98,688.4l-5.91-0.13l0.08-4.96l16.98,0.3l-0.05,5.01l-6.06-0.15l-0.35,21.14l-4.97-0.06
								L462.98,688.4z"/>
						</g>
					</g>
				</g>
			</g>
		</g>
		<g>
			<g>
				<g>
					<g>
						<g>
							<path class="st2" d="M476.82,684.05c1.76-0.36,4.29-0.49,6.67-0.49c4.23,0.04,7.05,0.9,9.06,2.84
								c2.34,2.15,3.74,5.35,3.65,10.08c-0.12,4.99-1.68,8.33-3.85,10.46c-2.32,2.22-5.97,3.24-10.31,3.18
								c-2.54,0-4.44-0.21-5.7-0.51L476.82,684.05z M481.46,705.36c0.33,0.17,1.13,0.17,1.74,0.17c4.51,0.09,7.6-2.77,7.73-8.99
								c0-5.65-2.6-8.27-6.94-8.42c-1.07,0-1.84,0.15-2.24,0.19L481.46,705.36z"/>
						</g>
					</g>
				</g>
			</g>
		</g>
		<g>
			<g>
				<g>
					<g>
						<g>
							<path class="st2" d="M500.08,710.61c-1.64-0.06-2.77-1.64-2.77-3.64c0.09-2.15,1.28-3.58,2.97-3.5c1.76,0,2.89,1.38,2.89,3.6
								C503.09,709.16,501.9,710.61,500.08,710.61L500.08,710.61z"/>
						</g>
					</g>
				</g>
			</g>
		</g>
	</g>
	<g>
		<g>
			<g>
				<g>
					<g>
						<g>
							<path class="st2" d="M578.98,711.5l0.05-3.52l2.81-2.94c4.79-4.84,7.04-7.65,7.18-10.59c0-2.05-0.92-3.73-3.45-3.73
								c-1.82-0.04-3.42,1.02-4.49,1.96l-1.49-4.13c1.69-1.43,4.24-2.58,7.04-2.58c4.83,0.15,7.43,3.49,7.36,8.08
								c-0.05,4.22-2.65,7.56-5.82,10.76l-2.03,1.87v0.06l8.09,0.19l-0.16,4.8L578.98,711.5z"/>
						</g>
					</g>
				</g>
			</g>
		</g>
		<g>
			<g>
				<g>
					<g>
						<g>
							<path class="st2" d="M604.82,712.4c-5.54-0.15-7.88-5.99-7.71-13.13c0.05-7.33,2.8-13.02,8.42-12.94
								c5.62,0.06,7.66,6.12,7.58,13.04c-0.16,7.74-2.89,13.09-8.15,13.02H604.82z M605.02,707.9c1.92,0.08,2.96-2.79,3.12-8.57
								c0.05-5.56-0.86-8.5-2.81-8.61c-1.92,0-3.16,2.85-3.24,8.55c-0.15,5.78,1.05,8.63,2.88,8.63H605.02z"/>
						</g>
					</g>
				</g>
			</g>
		</g>
		<g>
			<g>
				<g>
					<g>
						<g>
							<path class="st2" d="M622.18,692.3h-0.16l-4.06,2.15l-0.79-4.33l5.78-3.03l4.11,0.02l-0.46,25.12l-4.87-0.06L622.18,692.3z"
								/>
						</g>
					</g>
				</g>
			</g>
		</g>
		<g>
			<g>
				<g>
					<g>
						<g>
							<path class="st2" d="M642.4,712.59l0.16-6.01l-9.44-0.17v-3.9l8.36-15.11l6.2,0.09l-0.36,14.73l2.54,0.02l-0.08,4.45
								l-2.46-0.02l-0.14,6.01L642.4,712.59z M642.6,702.12l0.09-5.5c0.06-1.58,0.14-3.07,0.22-4.75h-0.08
								c-0.71,1.62-1.35,3.09-2.11,4.71l-2.89,5.35l-0.12,0.15L642.6,702.12z"/>
						</g>
					</g>
				</g>
			</g>
		</g>
	</g>
</g>
<g>
	<g>
		<g>
			<g>
				<g>
					<path class="st5" d="M539.07,613c-103.85-78.51-187.45-80.47-187.45-80.47v20.48c77.57,15.32,126.47,43.41,152.18,62.16
						c1.25,0.85,2.53,1.79,3.7,2.75c12.6,9.61,18.5,16.22,18.5,16.22v10.49h27.6v-13.08c72.64-72.71,167.71-85.11,167.71-85.11
						v-22.5C608.76,542.64,539.07,613,539.07,613z"/>
				</g>
			</g>
		</g>
	</g>
	<g>
		<g>
			<g>
				<g>
					<path class="st6" d="M539.07,639.47c-103.85-78.49-187.45-80.58-187.45-80.58v20.52c77.57,15.3,126.47,43.41,152.18,62.14
						c1.25,0.89,2.53,1.81,3.7,2.85c12.6,9.55,18.5,16.18,18.5,16.18v10.46h27.6v-13.13c72.64-72.58,167.71-85.16,167.71-85.16
						v-22.42C608.76,569.08,539.07,639.47,539.07,639.47z"/>
				</g>
			</g>
		</g>
	</g>
	<g>
		<g>
			<g>
				<g>
					<path class="st7" d="M539.07,665.9c-103.85-78.55-187.45-80.55-187.45-80.55v20.5c77.57,15.3,126.47,43.41,152.18,62.14
						c1.25,0.89,2.53,1.83,3.7,2.85c12.6,9.55,18.5,16.13,18.5,16.13v10.53h27.6v-13.15c72.64-72.61,167.71-85.14,167.71-85.14
						v-22.44C608.76,595.49,539.07,665.9,539.07,665.9z"/>
				</g>
			</g>
		</g>
	</g>
</g>
<g>
	<path d="M278.75,223.3c-2.6,0.09-5.21,0.21-7.83,0.36c12.52-13.02,25.77-24.92,39.62-35.67c2.66,0.2,5.3,0.43,7.92,0.7
		C304.6,199.1,291.32,210.64,278.75,223.3z M324.33,222.37c-1.15,3.19-2.66,5.61-4.62,7.31c-1.21,1.05-2.72,1.94-4.51,2.68
		c-1.79,0.75-3.57,1.11-5.33,1.06c-1.18,0.04-3.01-0.22-5.53-0.73c-3.52-0.7-6.32-1.47-8.4-2.39c-6.18-2.78-11.63-5.38-16.26-7.92
		c1.38-0.62,2.76-1.23,4.14-1.82c3.86,1.6,6.58,2.77,8.2,3.41c3.17,1.22,5.99,2.09,8.46,2.59c5.81,1.24,10.51,0.26,14.32-3.04
		c1.7-1.47,2.81-3.82,3.39-7.09c0.4-2.38-0.06-4.41-1.39-6.09c-1.08-1.36-2.49-2.31-4.26-2.85c-2-0.59-3.66-0.34-4.94,0.74
		c-0.24,0.2-0.53,0.51-0.86,0.93c1.2,0.46,2.25,1.24,3.16,2.34c2.59,3.23,2.19,6.24-1.13,9.16c-2.86,2.52-5.9,2.63-9.22,0.26
		c-0.63-0.46-1.15-0.92-1.55-1.37c-1.7-1.89-2.35-4.18-1.89-6.87c0.37-2.54,1.61-4.73,3.66-6.51c0.77-0.67,1.81-1.37,3.15-2.1
		c4.77-2.58,10.02-1.94,15.57,1.86c1.43,1.01,2.66,2.19,3.7,3.52C325.27,213.43,325.93,217.74,324.33,222.37z"/>
	<path d="M317.44,187.83c-2.37-2.69-4.84-5.75-7.39-9.19c1.33,0.02,2.66,0.04,3.99,0.08c1.17,1.17,2.28,2.05,3.33,2.68
		c0.35,0.13,0.81,0.26,1.38,0.42c1.61-1.18,3.22-2.34,4.84-3.49c2.53,0.4,5.05,0.83,7.55,1.28c-3.02,2.06-6.01,4.18-8.97,6.34
		c8.04,11.23,16.06,22.49,24.05,33.76c-2.38-0.6-4.77-1.17-7.18-1.72c-5.71-7.79-11.43-15.57-17.16-23.35
		c-0.91-1.23-1.87-2.01-2.88-2.33c-2.48-0.8-4.66-0.49-6.46,0.92c-0.21,0.17-0.54,0.42-0.99,0.78c-2.52-0.22-5.06-0.41-7.61-0.57
		c2.59-2.57,4.73-4.31,6.36-5.26C312.54,186.89,314.95,186.77,317.44,187.83z"/>
	<path d="M349.98,167.57c0.21,0.35,0.41,0.71,0.62,1.06c2.78-1.65,6.11-2.01,9.88-1.01c3.52,0.96,6.33,2.74,8.46,5.25
		c0.79,0.96,1.43,1.9,1.91,2.81c1,1.9,1.36,3.83,1.09,5.79c-0.29,2.14-1.29,3.68-3,4.65c-1.22,0.69-2.57,0.85-4.07,0.47
		c-1.49-0.37-2.63-1.19-3.36-2.48c-0.84-1.46-0.9-3.21-0.17-5.23c0.66-0.74,1.33-1.3,1.98-1.67c1.26-0.72,2.79-0.81,4.59-0.28
		c0.32,0.06,0.53,0.2,0.65,0.43c0.31,0.47-0.11,1.03-1.28,1.67c-0.04-0.8-0.13-1.31-0.25-1.53c-1.02-1.88-2.77-3.21-5.23-3.93
		c-2.81-0.82-5.42-0.49-7.76,0.96c5.33,9.15,10.65,18.3,15.96,27.47c-1.21-0.38-2.43-0.75-3.65-1.12c-1.89-1.73-3.11-2.75-3.64-3.09
		c-0.98-0.72-2.4-1.43-4.29-2.12c-2.31-0.84-4.24-1.26-5.74-1.27c-3.3-0.01-6.41,0.72-9.29,2.19c-2.94-0.94-5.91-1.84-8.91-2.69
		c2.21-8.13,6.17-15.58,11.76-22.09c-0.29-0.48-0.58-0.96-0.88-1.44c-6.63,4.09-13.16,8.41-19.57,12.97
		c-2.54-0.39-5.09-0.75-7.66-1.07c14.06-10.34,28.71-19.55,43.81-27.61c2.43,0.73,4.85,1.49,7.24,2.27
		C362.7,160.26,356.3,163.81,349.98,167.57z M345.31,184.92c-0.25,0.65-0.82,2.08-1.65,4.29c5.23-0.71,10.09,0.12,14.51,2.38
		c-2.78-4.63-5.56-9.25-8.35-13.87C347.7,180.53,346.2,182.94,345.31,184.92z"/>
	<path d="M408.36,173.94c-1.24,2.45-3.18,4.24-5.87,5.41c-2.52,1.1-5.07,1.39-7.74,0.88c-1.59-0.33-3.86-1.13-6.82-2.37
		c-5.48-2.29-13.09-8.97-23.31-19.78c1.7,0,3.39,0.01,5.08,0.03c0.42,0.37,1.22,1.11,2.41,2.23c0.23,0.23,0.46,0.45,0.69,0.68
		c2.58,2.42,6.34,5.28,11.17,8.69c2.01,1.48,4.58,2.51,7.7,3.15c3.12,0.64,5.63,0.55,7.59-0.31c1.52-0.67,2.73-1.64,3.66-2.92
		c1.05-1.44,1.38-2.96,1-4.58c-0.34-1.47-1.23-2.49-2.66-3.05c-0.58,1.18-1.43,2.02-2.59,2.52c-1.38,0.59-2.73,0.63-4.06,0.09
		c-1.33-0.53-2.3-1.5-2.92-2.9c-0.6-1.36-0.69-2.77-0.23-4.23c0.46-1.46,1.35-2.49,2.69-3.07c1.06-0.46,2.11-0.62,3.13-0.5
		c0.89-1.26,1.07-2.56,0.53-3.89c-1.02-2.51-2.75-3.28-5.15-2.26c-1.74,0.74-3.07,1.66-4,2.75c-0.04,0.02-0.9,1.27-2.52,3.74
		c-0.36,0.68-0.61,1.33-0.71,1.94c1.77,0.48,3.11,1.76,4.03,3.82c1.02,2.3,0.14,4.06-2.63,5.37c-3.61,1.7-6.32,0.65-8.15-3.24
		c-1.79-3.8-1.04-8.02,2.45-12.58c2.08-2.67,4.58-4.63,7.44-5.87c2.43-1.06,4.76-1.34,6.96-0.86c2.86,0.6,4.86,2.4,6.02,5.35
		c0.52,1.34,0.91,3.02,1.18,5.04c0.26,2.02,0.24,3.62-0.08,4.81c3.01,1.93,4.97,4.19,5.95,6.72
		C409.89,168.03,409.79,171.09,408.36,173.94z"/>
	<path d="M430.1,132.46c3.87,13.09,7.71,26.18,11.52,39.29c-1.15-0.81-2.32-1.61-3.49-2.41c-1.87-2.22-3.12-3.6-3.72-4.16
		c-1.17-1.13-2.66-2.2-4.46-3.18c-2.4-1.32-4.52-2.02-6.31-2.11c-1.53-0.07-3.68,0.29-6.44,1.14c-2.52-1.7-5.07-3.37-7.66-5.02
		c1.6-3.8,3.13-6.87,4.52-9.23c0.3-0.49,1.06-1.75,2.35-3.77c-0.46-0.27-0.78-0.4-0.94-0.41c-1.02-0.18-3.29-0.01-6.8,0.58
		c-2.66,0.51-4.95,0.16-6.86-1.08c-2.29-1-4.59-1.98-6.92-2.94c12.8-5.24,25.84-9.72,39.05-13.43c2.3,1.22,4.58,2.46,6.83,3.73
		C437.2,130.41,433.64,131.41,430.1,132.46z M426.9,172.36c-1.22,0.42-2.4,0.31-3.56-0.34c-1.16-0.64-1.96-1.59-2.41-2.85
		c-0.42-1.2-0.41-2.38,0.07-3.53c0.47-1.15,1.27-1.92,2.38-2.31c1.25-0.43,2.47-0.33,3.62,0.31c1.15,0.64,1.93,1.57,2.32,2.79
		c0.4,1.22,0.36,2.42-0.1,3.6C428.75,171.21,427.99,171.98,426.9,172.36z M424.9,134.05c-3.41,1.07-6.8,2.2-10.18,3.37
		c0.79,0.26,1.62,0.55,2.47,0.85c0.52,0.26,3.05,1.72,7.45,4.5c-0.73,1.8-1.67,3.65-2.81,5.54c-0.52,0.93-1.35,2.81-2.44,5.63
		c4.78,0.17,9.25,1.94,13.31,5.23C430.11,150.8,427.51,142.42,424.9,134.05z"/>
	<path d="M440.14,128.28c-1.22-3.4-2.38-7.18-3.49-11.34c1.2,0.53,2.39,1.07,3.58,1.61c0.66,1.53,1.35,2.78,2.08,3.75
		c0.27,0.25,0.64,0.55,1.1,0.92c1.86-0.47,3.73-0.92,5.59-1.36c2.15,1.34,4.28,2.7,6.39,4.08c-3.45,0.75-6.9,1.56-10.33,2.42
		c3.37,13.47,6.7,26.94,10.01,40.43c-1.94-1.47-3.9-2.92-5.89-4.35c-2.45-9.39-4.92-18.78-7.39-28.16c-0.39-1.49-0.99-2.57-1.8-3.26
		c-1.97-1.7-4.04-2.24-6.14-1.65c-0.24,0.07-0.64,0.18-1.17,0.34c-2.2-1.18-4.42-2.34-6.65-3.48c3.21-1.36,5.75-2.13,7.55-2.37
		C436.06,125.52,438.26,126.34,440.14,128.28z"/>
	<path d="M501.28,105.87c-4.12-2.54-8.75-3.55-13.77-2.95c-2.74,0.33-5.62,1.76-8.55,4.3c-0.63,0.82-1.34,1.96-2.12,3.42
		c-0.9,1.7-1.28,2.76-1.15,3.21c0.58,0.85,1.15,1.7,1.72,2.55c2.29-0.35,4.59-0.67,6.88-0.97c2.03,1.55,4.03,3.11,6.01,4.69
		c-3.53,0.41-7.05,0.87-10.57,1.39c1.97,13.21,3.91,26.41,5.82,39.63c-1.84-1.5-3.7-2.98-5.58-4.44
		c-1.84-11.46-3.7-22.91-5.58-34.36c-1.69,0.27-3.38,0.56-5.07,0.86c-2.05-1.46-4.13-2.9-6.23-4.33c3.29-0.63,6.59-1.22,9.89-1.76
		c-0.77-0.55-1.54-1.14-2.3-1.76c-0.77-0.62-1.22-1.39-1.39-2.3c-0.22-1.52-0.14-2.76,0.23-3.71c1.06-2.53,2.12-4.43,3.15-5.71
		c1.04-1.28,2.72-2.68,5.06-4.15c1.43-0.93,3.23-1.55,5.37-1.82c5.31-0.68,11.2,0.47,17.45,3.51c1.96,0.97,4.59,2.85,7.83,5.69
		c0.69,1.63,1.37,3.25,2.04,4.88C507.43,109.73,504.38,107.78,501.28,105.87z"/>
	<path d="M519.2,118.03c0.53,13.47,1.04,26.95,1.52,40.42c-1.66-1.77-3.36-3.52-5.07-5.26c-0.34-8.11-0.69-16.22-1.05-24.33
		c-0.05-0.97-0.85-2.53-2.42-4.66c-1.79-2.42-3.31-3.51-4.5-3.28c-1.74,0.32-2.72,1.05-2.94,2.16c3.98,2.62,5.97,5.13,6.13,7.46
		c0.03,0.52-0.08,1.52-0.33,2.98c-0.6,2.02-2.18,3.09-4.72,3.29c-2.06,0.16-3.93-0.82-5.64-2.93c-0.49,1.08-1.26,2.04-2.32,2.89
		c-1.06,0.86-2.1,1.34-3.16,1.46c-1.53,0.17-2.84-0.33-3.94-1.51c-1.1-1.18-1.75-2.57-1.95-4.19c-0.2-1.57,0.24-3.31,1.36-5.25
		c0.99-1.75,2.23-3.1,3.68-4.03c-0.41-0.57-1.02-1.24-1.82-2.03c-1.09-0.64-2.35-0.91-3.76-0.79c1.46-0.17,0.07-0.02-4.15,0.53
		c-2-1.55-4.03-3.08-6.08-4.59c3.23-0.48,6.47-0.92,9.72-1.32c1.94-0.24,3.71,0.1,5.31,1.02c1.47,1.14,2.22,1.73,2.28,1.78
		c0.78,0.64,1.38,1.33,1.82,2.07c1.15-2.73,3.4-4.78,6.75-6.09c0.9-0.31,1.53-0.49,1.89-0.51c1.9-0.13,4.91,2.58,8.78,8.22
		c0.27,0.39,0.55,0.79,0.81,1.18c-0.38-2.91-0.77-5.83-1.17-8.74c-0.3-3.02-0.61-6.03-0.92-9.05c1.72,1.37,3.07,2.53,4.03,3.48
		c0.33,0.45,0.56,1.04,0.69,1.76c0.02,0.36,0.03,0.72,0.04,1.09c0.38,0.66,1,1.1,1.83,1.34c1.18-0.04,2.37-0.07,3.55-0.1
		c1.85,1.76,3.68,3.53,5.48,5.31C525.69,117.85,522.44,117.91,519.2,118.03z"/>
	<path d="M553.54,138.89c-0.7,0.31-1.4,0.45-2.12,0.4c-1.53-0.09-2.79-0.73-3.79-1.94c-1.01-1.2-1.5-2.55-1.44-4.04
		c0.05-1.38,0.57-2.58,1.57-3.59c1.01-1.01,2.15-1.48,3.43-1.4c1.23,0.07,2.27,0.49,3.12,1.27c0.55-0.22,1.02-0.6,1.4-1.14
		c0.17-0.19,0.26-0.52,0.29-0.98c0.06-0.97-0.19-2.28-0.77-3.92c-0.58-1.64-1.11-2.72-1.59-3.27c-1.44,2.3-2.86,4.62-4.25,6.94
		c-1.32-4.85-2.91-7.75-4.72-8.69c-0.44-0.43-0.77-0.69-0.97-0.81c-0.06,0-0.22,0.23-0.48,0.68c0.9,0.64,1.78,1.63,2.64,2.95
		c0.95,1.54,1.4,2.81,1.37,3.84c-0.01,0.21-0.05,0.41-0.1,0.62c-0.37,0.65-0.75,1.3-1.12,1.95c-0.72,0.8-1.49,1.12-2.33,0.99
		c-0.45,0.19-0.95,0.27-1.49,0.26c-1.58-0.05-2.57-0.68-3-1.93c-1.71,2.02-3.25,2.93-4.68,2.7c-2.79-0.49-4.23-1.86-4.31-4.18
		c-0.08-2.82,1.47-5.41,4.73-7.69c-0.38-0.39-0.76-0.78-1.14-1.17c-1.12-0.42-2.07-0.62-2.83-0.62c-0.31,0-0.62,0-0.92,0
		c-0.87-0.12-1.73-0.24-2.6-0.36c-0.81-1.36-1.64-2.71-2.47-4.06c1.28-0.43,2.43-0.64,3.47-0.65c3.1-0.02,5.14,0.41,6.12,1.24
		c1.44,0.27,2.83,1.42,4.13,3.45c1.61-2.64,3.27-3.78,4.91-3.41c2.25,0.79,3.97,2.29,5.16,4.45c1.31-2.79,2.65-5.57,4.02-8.35
		c0.6,2.6,1.45,5.23,2.52,7.88c0.56,0.86,1.07,1.66,1.54,2.42c1.56,2.69,2.45,4.51,2.74,5.46c0.44,1.53,0.48,3.6,0.14,6.2
		c-0.24,1.84-1.39,3.47-3.43,4.91c0.5,1.22,0.79,2.91,0.88,5.08c0.15,4.66-2.43,7.8-7.59,9.61c-1.51,0.53-3.67,0.42-6.47-0.3
		c-1.43-0.41-3.29-1.57-5.65-3.46c-2.84-1.8-5.84-6-9.23-12.6c-1.65-3.22-2.95-6.69-3.9-10.42c-0.39-1.64-1.1-5.3-2.22-10.97
		c1.55,1.01,3.09,2.04,4.62,3.07c0.11,0.46,0.36,1.69,0.75,3.69c1.18,6.62,3.71,11.93,7.51,16.02c4.56,4.94,8.57,7.51,12.31,7.69
		c1.37,0.07,2.64-0.09,3.79-0.49c1.61-0.53,2.45-1.39,2.52-2.62C553.65,139.38,553.62,139.15,553.54,138.89z"/>
	<path d="M608.3,164.25c0.04-1.58-0.17-3.61-0.65-6.11c-0.65-1.36-1.94-2.28-3.87-2.72c-1.1-0.25-3.1-0.46-5.99-0.59
		c-2.51-0.1-4.49-0.35-5.93-0.78c-4.66-1.34-7.63-4.05-8.98-8.27c-0.79-2.51-1.01-5.14-0.61-7.89c0.55-3.92,1.58-7.01,3.13-9.26
		c0.64-1.26,1.28-1.83,1.93-1.72c0.4,0.06,0.72,0.3,0.97,0.7c0.51,0.79,1.02,1.57,1.53,2.36c-1.22,1.36-2,2.43-2.31,3.21
		c-0.22,0.43-0.57,1.7-1.04,3.81c-0.58,2.45-0.15,4.7,1.22,6.75c0.55,0.83,1.66,1.59,3.34,2.31c1.48,0.69,2.77,1.06,3.88,1.12
		c2.26,0.13,4.07,0.35,5.43,0.63c3.47,0.74,6.06,2.1,7.72,4.02c0.29,0.49,0.57,0.95,0.86,1.39c1.96-8.55,3.92-17.11,5.86-25.68
		c0.01-0.05-0.11-0.1-0.36-0.17c-1.79-0.43-4.45,0.34-7.85,2.36c-1.84,1.11-3.19,2.5-4.06,4.13c0.39,0.08,0.71,0.15,0.96,0.2
		c1.22,0.26,2.07,0.97,2.54,2.13c0.47,1.15,0.57,2.36,0.3,3.62c-0.26,1.21-0.84,2.23-1.74,3.08c-0.9,0.85-1.89,1.27-2.97,1.25
		c-0.68-0.04-1.31-0.12-1.87-0.24c-2.85-0.59-4.6-2.17-5.28-4.81c-0.44-1.7-0.45-3.22-0.02-4.55c1.85-5.46,5.49-9.49,11.01-11.96
		c3.23-1.42,6.2-1.75,8.86-1.02c1.3,0.36,2.65,1.52,3.98,3.5c1.34,1.98,1.85,3.59,1.55,4.83c-3.09,12.74-6.21,25.48-9.35,38.21
		C609.76,166.84,609.04,165.54,608.3,164.25z"/>
	<path d="M651.93,138.75c-0.13,0.39-0.26,0.78-0.4,1.16c3.02,1.09,5.42,3.44,7.11,7.02c1.55,3.36,2.03,6.68,1.53,9.96
		c-0.21,1.24-0.5,2.34-0.87,3.3c-0.78,2.01-2,3.54-3.65,4.58c-1.8,1.15-3.6,1.38-5.44,0.67c-1.3-0.5-2.29-1.45-2.98-2.85
		c-0.69-1.4-0.78-2.8-0.3-4.21c0.56-1.6,1.82-2.77,3.82-3.51c0.98,0.04,1.83,0.19,2.53,0.46c1.34,0.51,2.41,1.65,3.18,3.39
		c0.16,0.28,0.2,0.54,0.1,0.78c-0.15,0.55-0.85,0.57-2.08,0.09c0.57-0.55,0.9-0.94,0.99-1.18c0.75-2.01,0.63-4.22-0.43-6.6
		c-1.2-2.71-3.12-4.53-5.7-5.4c-3.43,10.05-6.88,20.08-10.35,30.12c-0.49-1.18-0.99-2.37-1.5-3.55c0.08-2.58,0.07-4.19-0.02-4.82
		c-0.09-1.23-0.47-2.79-1.16-4.7c-0.85-2.34-1.76-4.1-2.71-5.27c-2.08-2.56-4.6-4.49-7.51-5.78c-1.16-2.88-2.36-5.76-3.6-8.63
		c7.42-3.54,15.45-5.31,23.89-5.18c0.17-0.54,0.35-1.07,0.52-1.61c-7.29-2.5-14.63-4.75-22.02-6.76c-1.3-2.22-2.63-4.42-3.99-6.62
		c16.41,4.19,32.6,9.56,48.46,16.11c1.02,2.36,2.02,4.73,2.99,7.1C665.58,143.9,658.78,141.22,651.93,138.75z M635.98,146.34
		c-0.65,0.22-2.07,0.71-4.24,1.49c3.84,3.59,6.3,7.89,7.44,12.78c1.68-5.14,3.36-10.29,5.04-15.43
		C640.77,145.35,638.02,145.75,635.98,146.34z"/>
	<path d="M673.17,145.75c1.08-3.44,2.42-7.17,4.04-11.15c0.65,1.17,1.29,2.34,1.92,3.52c-0.39,1.62-0.59,3.04-0.59,4.28
		c0.07,0.37,0.19,0.84,0.33,1.42c1.79,0.8,3.58,1.62,5.36,2.45c0.94,2.42,1.85,4.83,2.73,7.26c-3.27-1.59-6.56-3.12-9.86-4.6
		c-5.43,12.75-10.88,25.5-16.36,38.23c-0.69-2.38-1.4-4.77-2.14-7.15c3.7-8.96,7.39-17.92,11.06-26.89c0.58-1.42,0.76-2.65,0.52-3.7
		c-0.57-2.58-1.9-4.31-3.97-5.15c-0.24-0.1-0.62-0.26-1.15-0.47c-1.06-2.31-2.14-4.62-3.26-6.92c3.41,0.94,5.92,1.91,7.53,2.85
		C671.53,141,672.82,143.03,673.17,145.75z"/>
	<path d="M699.94,161.63c-7.62-0.96-13.38,1.86-17.3,8.08c-1.3,2.04-2.25,3.71-2.86,5.01c-2.12,4.5-2.03,8.69,0.11,12.61
		c0.13,0.18,0.45,0.4,0.95,0.67c0.21,0.11,0.36,0.19,0.45,0.23c-0.01,0.46-0.64,0.59-1.88,0.41c0.5,0.26,0.82,0.28,0.93,0.05
		c-0.02,0.05-0.06-0.49-0.12-1.62c-0.06-1.12-0.03-1.94,0.12-2.44c0.67-2.13,2.22-3.3,4.7-3.45c0.94-0.02,1.76,0.15,2.45,0.52
		c0.91,0.49,1.49,1.18,1.75,2.07c1.1,1.7,1.11,3.56,0.06,5.55c-0.93,1.76-2.33,2.89-4.19,3.42c-1.85,0.53-3.61,0.36-5.28-0.51
		c-2.13-1.12-3.55-2.59-4.29-4.45c-2.29-5.72-2.01-11.97,1.07-18.79c2.65-5.88,7.23-10.54,13.94-13.72
		c-3.14-1.57-6.3-3.09-9.47-4.56c-0.93-2.41-1.9-4.82-2.89-7.22c9.18,4.08,18.23,8.57,27.12,13.46c0.79,2.42,1.56,4.84,2.29,7.26
		C704.93,162.81,702.37,161.96,699.94,161.63z"/>
	<path d="M720.15,171.88c-2.25,3.81-4.51,7.61-6.77,11.41c1.08,0.38,2.53,0.43,4.35,0.17c1.82-0.25,3.28-0.66,4.38-1.23
		c0.86-0.41,1.96-0.73,3.28-0.96c1.46,2.14,2.05,4.88,1.74,8.21c-0.3,3.01-1.2,5.63-2.67,7.85c-2.86,4.31-6.17,6.77-9.92,7.51
		c-3.74,0.73-7.45-0.32-11.26-3.15c-2.64-1.96-4.3-4.59-5.03-7.94c-0.43-2.11-0.53-5.39-0.41-9.88c0.62-5.39,1.75-10.29,3.49-14.68
		c0.07-0.14,1-2.38,2.76-6.75c0.84,1.29,1.67,2.58,2.49,3.88c-1.56,3.43-2.63,7.33-3.27,11.65c-0.77,5.09-0.62,8.97,0.5,11.69
		c0.6,2.23,2.14,4.11,4.65,5.7c3.3,2.09,6.63,2.4,10.1,0.91c1.49-0.66,2.63-1.58,3.41-2.79c0.64-0.98,0.92-2.18,0.85-3.58
		c-0.87,0.4-2.1,0.71-3.7,0.94c-4.04,0.69-6.99,0.48-8.9-0.71c-2.38-1.5-3.11-4.13-2.25-7.97c0.26-0.56,2.77-4.92,7.52-13.11
		c-4.33-2.62-8.71-5.13-13.12-7.55c-0.79-2.47-1.61-4.95-2.46-7.42c13.98,7.37,27.61,15.73,40.78,25.07
		c0.56,2.59,1.09,5.17,1.59,7.75C735.03,181.56,727.66,176.57,720.15,171.88z"/>
	<path d="M773.49,195.13c-1.36-4.95-4.19-9.19-8.41-12.57c-2.31-1.85-5.49-3.01-9.48-3.42c-1.05,0.1-2.37,0.38-3.99,0.83
		c-1.86,0.52-2.89,0.99-3.11,1.4c-0.15,1.03-0.31,2.06-0.47,3.09c1.97,1.47,3.93,2.97,5.88,4.49c0.46,2.62,0.89,5.24,1.29,7.85
		c-2.96-2.39-5.95-4.72-8.97-7c-7.72,10.8-15.47,21.59-23.24,32.36c-0.35-2.44-0.72-4.88-1.13-7.32
		c6.6-9.47,13.19-18.96,19.76-28.45c-1.47-1.07-2.94-2.13-4.42-3.17c-0.53-2.56-1.08-5.13-1.67-7.7c2.91,1.99,5.8,4.03,8.67,6.12
		c-0.2-0.97-0.36-1.96-0.5-2.96c-0.14-1.02,0.05-1.9,0.56-2.66c0.9-1.24,1.82-2.06,2.76-2.45c2.56-1,4.69-1.55,6.36-1.68
		c1.68-0.13,3.91,0.14,6.71,0.86c1.74,0.42,3.52,1.34,5.34,2.76c4.48,3.51,8.16,8.8,10.8,15.72c0.81,2.19,1.51,5.53,2,10.03
		c-0.61,1.68-1.22,3.36-1.85,5.03C775.48,202.57,774.51,198.85,773.49,195.13z"/>
	<path d="M749.93,197.31c0.02,0.02,0.04,0.03,0.06,0.05c-0.33-0.71-0.52-1.86-0.55-3.45c0.08-0.62,0.16-1.23,0.24-1.85
		c-0.42-2.45-0.86-4.91-1.33-7.36c12.11,9.07,23.81,19.01,35.02,29.8c0.2,2.74,0.38,5.48,0.52,8.2c-2.88-2.87-5.8-5.67-8.75-8.42
		c-8.9,10.07-17.81,20.11-26.76,30.14c0.03-1.51,0.05-3.03,0.07-4.54c2.3-4.36,3.26-7.62,2.95-9.76c-0.37-3.09-0.84-5.22-1.34-6.4
		c-2.78,0.63-5.2,0.06-7.33-1.71c-2.21-1.84-3.16-4.18-2.87-7.08c0.25-0.32,0.52-0.84,0.83-1.54c0.31-0.7,0.57-1.2,0.79-1.48
		c1.45-1.91,3.26-2.86,5.45-2.79c1.96,0.01,3.93,0.82,5.87,2.45c0.61,0.51,1.09,1.01,1.43,1.5c1.35-2.26,1.65-4.68,0.89-7.25
		c-0.2-0.62-1.12-2.12-2.83-4.48C750.97,199.43,750.16,198.08,749.93,197.31z M771,210.49c-3.96-3.58-7.97-7.05-12.04-10.42
		c0.84,3.68,1.28,6.1,1.38,7.26c0.25,2.77-0.09,5.11-0.99,7.03c-1.47,3.11-2.74,5.19-3.77,6.25c0.13,1.88,0.15,4.49,0.01,7.8
		C760.74,222.45,765.87,216.48,771,210.49z"/>
</g>
<g>
	<path class="st8" d="M294.15,449.04c0.25,0.36,0.57,1.17,0.96,2.43c0.5,1.54,0.68,3.27,0.56,5.21c-0.2,3.15-1.05,5.53-2.61,7.16
		c-0.25-0.01-0.59,0.07-1.04,0.25c-0.44,0.18-0.79,0.26-1.04,0.25c-1.49-0.07-2.6-1.13-3.32-3.2c-0.63-1.77-0.87-4.02-0.69-6.71
		c0.07-0.97,0.12-1.71,0.16-2.22c-1.56,0.25-2.81,1.37-3.71,3.4c-0.51,1.18-1.03,3.2-1.53,6.07c-0.42,2.47-0.81,4.01-1.23,4.6
		c-0.4,0.95-0.82,1.66-1.26,2.13c-0.63,0.71-1.03,1.19-1.19,1.43c-0.7,1.33-1.75,3.33-3.1,6.08c0-17.28,1.31-33.69,3.79-49.22
		c1.42-1.78,2.86-3.52,4.31-5.22c-0.73,3.99-1.37,8.04-1.93,12.15c8.1,1.37,16.19,2.73,24.29,4.1c-0.82,0.9-1.63,1.82-2.44,2.75
		c-2.91,0.6-4.96,1.78-6.13,3.52C295.58,446.11,294.63,447.83,294.15,449.04z M280.56,439.3c-0.65,5.56-1.15,11.23-1.5,17.01
		c2.82-5.76,5.3-8.76,7.22-9.4c2.03-0.68,3.52-0.88,4.47-0.66c1.01-1.39,2.36-3.04,4.04-4.88
		C290.05,440.68,285.31,439.99,280.56,439.3z"/>
	<path class="st8" d="M302.11,442.36c-0.05-0.01-0.09-0.01-0.14-0.02c-0.34-0.05-0.86-0.09-1.56-0.11c-0.7-0.02-1.27-0.06-1.7-0.13
		c-0.05-0.28-0.09-0.55-0.14-0.83c0.11-0.9,0.74-1.8,1.89-2.68c1.01-0.74,1.86-1.1,2.55-1.09c0.25,0.04,0.49,0.08,0.74,0.12
		c0.28,0.05,0.58,0.04,0.9,0c1.19-1.8,2.55-3.44,4.08-4.9c1.97-1.88,3.52-2.65,4.62-2.43c0.52,0.11,0.71,0.55,0.58,1.32
		c-0.06,0.34-0.22,0.63-0.48,0.88c-2.57,2.59-4.62,5.12-6.15,7.52c-0.44,0.71-0.66,1.09-0.66,1.14c0.03,0,0.1,0.07,0.21,0.19
		c1.16,2.56,1.64,4.86,1.43,6.97c-0.21,2.1-0.64,3.85-1.31,5.26c-0.82,1.76-1.87,2.6-3.17,2.49c-1.24-0.11-2.19-1.05-2.83-2.84
		c-0.56-1.57-0.75-3.4-0.55-5.48C300.55,446.3,301.11,444.49,302.11,442.36z M304.36,445.21c-0.34,0.37-0.58,1.19-0.71,2.44
		c-0.21,2.15-0.04,3.26,0.47,3.31c0.45,0.05,0.72-0.43,0.81-1.42c0.07-0.73,0.07-1.57,0.02-2.53
		C304.85,445.85,304.66,445.25,304.36,445.21z"/>
	<path class="st8" d="M293.68,398.57c6.11,1.98,12.22,3.96,18.32,5.95c-0.75,0.72-1.51,1.44-2.25,2.18
		c-6.47,2.4-10.8,7.78-12.48,15.99c-1.75,1.37-3.49,2.79-5.22,4.24c-1.17-2.98-2.43-7.06-3.63-12.26c-0.42,0.62-0.88,1.31-1.39,2.08
		c-1.18,4.41-2.37,7.44-3.7,8.99c-0.11,0.09-0.19,0.19-0.24,0.3c-1.7,2.62-3.4,4.96-5.12,7.01c2.56-18.68,6.8-36.14,12.49-52.38
		c1.62-1.34,3.24-2.64,4.87-3.91c-4.4,11.7-8.01,24.07-10.76,37.11c2.3-3.04,4.94-5.58,7.88-7.63c0.49,2.33,1.24,5.75,2.38,10.2
		c1.95-4.06,4.56-7.21,7.77-9.46c-4.75-1.43-9.5-2.85-14.25-4.28c-0.02-1.18,0.15-2.44,0.52-3.77c1.8-6.57,4.64-10.45,8.17-11.73
		c1.6-0.54,2.98-0.58,4.12-0.14c1.29,0.5,2.13,1.49,2.55,2.97c0.42,1.48,0.29,3.25-0.36,5.35c-0.43,1.38-1.08,2.44-1.98,3.17
		c-0.9,0.73-1.78,0.97-2.64,0.68c-0.74-0.24-1.22-0.89-1.42-1.93c-0.2-1.04-0.14-2.16,0.19-3.34c0.02-0.07,0.05-0.15,0.07-0.22
		c0.31-1.03,0.83-1.9,1.55-2.61c0.06-0.09,0.12-0.17,0.18-0.26c0.11,0.42,0.23,0.84,0.34,1.26c-1.23,1.04-2.46,2.09-3.68,3.17
		c1.1-1.5,2.21-2.98,3.34-4.43c-1.98-0.67-3.87,1.62-5.43,7.08C293.78,398.22,293.72,398.42,293.68,398.57z"/>
	<path class="st8" d="M300.78,346.87c-4.27,3.27-7.46,7.26-9.49,11.82c-2.03,4.56-2.24,9.01-0.66,13.11
		c0.32,0.82,0.59,1.28,0.79,1.36c0.29-0.05,0.95-0.19,1.98-0.42c0.86-2.2,1.74-4.37,2.65-6.53c1.68-1.2,3.38-2.36,5.08-3.49
		c-1.45,3.21-2.83,6.48-4.15,9.81c7.5,3.3,15,6.6,22.49,9.89c-1.59,1.09-3.17,2.22-4.74,3.38c-6.57-2.73-13.14-5.45-19.72-8.18
		c-0.61,1.63-1.2,3.27-1.77,4.93c-1.6,1.31-3.19,2.66-4.78,4.04c1.04-3.23,2.14-6.41,3.3-9.55c-1.64,1.36-2.83,1.91-3.59,1.61
		c-0.82-0.33-1.41-0.87-1.76-1.65c-2.3-5.12-2.25-10.75,0.21-16.5c3.3-7.71,8.98-13.87,16.64-17.99c1.15,0.03,2.31,0.07,3.46,0.11
		C304.73,343.99,302.75,345.41,300.78,346.87z"/>
	<path class="st8" d="M298.52,368.71c-1.67,1.19-3.33,2.41-4.99,3.67c6.15-15.72,13.7-30.22,22.43-43.52
		c1.89-0.9,3.79-1.76,5.69-2.59C312.71,339.2,304.93,353.35,298.52,368.71z M326.84,356.42c-0.65,1.19-1.55,2.45-2.67,3.78
		c-1.12,1.34-2.19,2.32-3.2,2.93c-4.83,3.02-12.08,4.41-21.98,4.46c0.82-1.07,1.64-2.14,2.47-3.19c5.32-0.72,9.04-1.35,11.21-2.12
		c4.53-1.65,7.84-4.48,10.12-8.61c1.03-1.86,1.55-3.92,1.58-6.21c0.03-2.29-0.5-3.8-1.65-4.53c-0.96-0.61-2.12-0.74-3.49-0.36
		c-1.36,0.38-2.43,1.21-3.17,2.5c-0.17,0.29-0.33,0.64-0.49,1.05c0.88-0.14,1.7,0.02,2.45,0.48c2.19,1.33,2.24,3.76,0.28,7.4
		c-1,1.87-2.17,3.11-3.54,3.72c-1.37,0.61-2.68,0.6-3.93-0.07c-1.39-0.74-2.13-2.24-2.17-4.51c0-2.13,0.58-4.29,1.76-6.44
		c2.05-3.74,4.77-6.19,8.03-7.34c3.03-1.07,5.68-0.79,7.98,0.73c2.08,1.38,3.07,3.67,3.05,6.85
		C329.47,350.12,328.58,353.24,326.84,356.42z"/>
	<path class="st8" d="M355.32,287.73c5.67,6.04,11.34,12.08,17.01,18.12c-0.91,0.19-1.83,0.39-2.74,0.6
		c-2.69-1.46-6.24-2.15-10.68-1.9c-0.03,3.01-1.12,5.63-3.29,7.95c-3.22,3.44-7.55,5.16-13.23,5.31c-4.43,0.13-8.69-0.61-12.78-2.33
		c1.02-0.77,2.05-1.52,3.08-2.26c4.15,0.83,7.31,1.18,9.53,0.97c3.64-0.31,6.7-1.86,9.31-4.66c1.12-1.21,1.83-2.41,2.1-3.63
		c0.27-1.22,0.03-2.2-0.74-2.95c-0.5-0.48-1.16-0.87-1.99-1.16c-1.02-0.35-1.84-0.31-2.44,0.13c0.5,1.81-0.08,3.59-1.74,5.4
		c-1.05,1.14-2.25,1.96-3.62,2.46c-1.37,0.5-2.47,0.41-3.31-0.32c-0.96-0.83-1.14-2.12-0.51-3.88c0.5-1.37,1.37-2.74,2.61-4.08
		c2.32-2.51,5.03-3.98,8.04-4.39c3.01-0.41,5.31,0.25,6.93,1.89c0.29,0.29,0.58,0.58,0.87,0.88c1.09,0.22,2.19,0.44,3.27,0.67
		c-3.08-3.16-6.16-6.32-9.24-9.47c-7.94,7.57-15.4,15.76-22.29,24.58c-1.88,0.63-3.76,1.3-5.64,1.99
		c9.24-12.39,19.57-23.61,30.78-33.66c1.98-0.31,3.96-0.6,5.94-0.86C358.77,284.62,357.04,286.16,355.32,287.73z"/>
	<path class="st8" d="M362.1,280.67c-1.53-1.48-3.18-3.22-4.95-5.25c1.04-0.21,2.07-0.41,3.1-0.61c1.22,0.92,2.39,1.37,3.52,1.35
		c1.33-1.07,2.67-2.13,4.02-3.18c1.97-0.13,3.94-0.23,5.9-0.31c-2.58,1.91-5.12,3.88-7.62,5.9c5.5,6.54,11,13.08,16.49,19.62
		c-1.84-0.02-3.69-0.01-5.54,0.02c-3.93-4.51-7.87-9.02-11.8-13.54c-0.77-0.88-1.85-1.26-3.25-1.13c-1.4,0.13-2.77,0.79-4.1,1.97
		c-0.21,0.19-0.44,0.39-0.68,0.61c-1.95,0.3-3.9,0.62-5.86,0.98c1.41-1.53,2.48-2.59,3.18-3.22
		C357.27,281.38,359.84,280.34,362.1,280.67z"/>
	<path class="st8" d="M381.21,267.26c-3.92,2.67-7.76,5.47-11.52,8.38c-2.02,0.19-4.06,0.41-6.09,0.66
		c11.53-9.34,23.87-17.53,36.81-24.59c2.04,0.12,4.07,0.27,6.09,0.44c-7.27,3.77-14.35,7.9-21.22,12.38
		c1.63,2.36,3.27,4.71,4.9,7.07c1.39-4.63,3.35-8.45,5.75-11.4c2.49-0.17,4.96-0.29,7.42-0.38c-1.5,5.15-1.35,8.91,0.15,11.31
		c1.32,2.11,3.52,4.22,6.53,6.41c-1.1,0.32-2.2,0.65-3.3,0.99c-3.19-1.58-5.9-4-8.06-7.32c-0.69-1.05-1.23-2.45-1.62-4.21
		c-0.94,1.75-1.59,3.71-1.95,5.89c-0.35,2.18-0.3,4.11,0.13,5.78c-1.93,0.11-3.88,0.25-5.82,0.42c-0.29-0.26-0.68-0.53-1.16-0.82
		c-0.96-0.65-2.4-0.69-4.33-0.1c-1.93,0.6-3.62,1.53-5.06,2.8c-1.87-0.44-3.75-0.86-5.64-1.25
		C376.1,274.21,378.84,270.06,381.21,267.26z M383.68,270.67c-1.39,1.64-2.51,3.47-3.36,5.47c2.13-0.6,4.36-0.91,6.65-0.91
		C385.87,273.71,384.77,272.19,383.68,270.67z"/>
	<path class="st8" d="M405.64,277.93c-0.03-0.04-0.05-0.08-0.08-0.12c-0.19-0.29-0.5-0.72-0.93-1.29c-0.44-0.56-0.77-1.03-1.01-1.4
		c0.14-0.18,0.28-0.35,0.42-0.53c0.62-0.37,1.58-0.33,2.87,0.12c1.11,0.41,1.87,0.9,2.31,1.45c0.13,0.21,0.26,0.43,0.4,0.64
		c0.15,0.24,0.34,0.48,0.58,0.7c1.88,0.01,3.78,0.23,5.67,0.67c2.44,0.57,3.92,1.37,4.48,2.35c0.26,0.46,0.11,0.85-0.45,1.15
		c-0.25,0.13-0.53,0.16-0.86,0.09c-3.27-0.66-6.16-0.97-8.62-0.95c-0.72,0.02-1.09,0.04-1.13,0.06c0.02,0.03,0.02,0.11,0.02,0.26
		c-0.85,2.21-1.95,3.75-3.38,4.63c-1.42,0.88-2.77,1.41-4.05,1.57c-1.6,0.21-2.78-0.21-3.54-1.29c-0.73-1.03-0.76-2.24-0.08-3.62
		c0.59-1.21,1.59-2.27,2.99-3.14C402.21,278.68,403.68,278.22,405.64,277.93z M405.32,281.14c-0.45-0.08-1.11,0.14-1.96,0.66
		c-1.45,0.9-2.02,1.58-1.73,2.01c0.26,0.38,0.72,0.36,1.38-0.06c0.49-0.31,1.01-0.72,1.56-1.24
		C405.23,281.85,405.49,281.4,405.32,281.14z"/>
	<path class="st8" d="M429.87,241.54c3.29,7.55,6.58,15.1,9.87,22.65c-1.78-0.44-3.57-0.87-5.38-1.27
		c-1.84-4.02-3.69-8.04-5.53-12.07c-0.26-0.57-0.86-0.95-1.81-1.13c-0.94-0.18-1.84-0.09-2.68,0.28c-1.27,0.55-1.65,1.36-1.14,2.39
		c0.06,0.11,0.46,0.64,1.21,1.57c-0.79,0.66-1.57,1.33-2.34,2c-0.07-0.28-0.13-0.57-0.2-0.85c-0.06-0.11-0.36-0.27-0.91-0.47
		c-1.26-0.53-2.34-0.82-3.21-0.86c-1.03-0.04-2.21,0.26-3.55,0.92c-1.33,0.65-2.31,1.54-2.92,2.66c-0.61,1.11-0.66,2.11-0.17,2.99
		c0.64,1.13,1.74,1.53,3.33,1.23c-0.32-0.22-0.57-0.5-0.76-0.83c-0.42-0.77-0.39-1.6,0.12-2.48c0.51-0.89,1.32-1.6,2.44-2.15
		c1.33-0.64,2.67-0.71,4.02-0.2c1.12,0.45,1.9,1.12,2.35,2.02c0.44,0.87,0.18,1.87-0.75,3c-0.78,0.96-1.74,1.71-2.91,2.28
		c-2.68,1.31-5.1,1.83-7.32,1.53c-2.23-0.3-3.9-1.36-4.99-3.23c-0.89-1.52-1.09-3.18-0.56-5c0.63-2.08,2.13-3.73,4.46-4.9
		c2.41-1.21,4.92-1.52,7.45-0.93c0.14-0.73,0.48-1.49,1.03-2.29c0.55-0.8,1.13-1.34,1.76-1.62c2.05-0.91,4.15-0.87,6.24,0.12
		c-0.54-1.18-1.08-2.36-1.63-3.55c-8.1,3.4-16.03,7.2-23.74,11.42c-2.02-0.17-4.05-0.31-6.09-0.42
		c11.93-6.84,24.4-12.69,37.27-17.54c2,0.43,3.98,0.89,5.94,1.37C435.8,239.25,432.82,240.37,429.87,241.54z"/>
	<path class="st8" d="M422.02,270.22c-0.16-0.3-0.23-0.52-0.2-0.64c-0.08-1.11,0.9-2.18,2.95-3.15c2.05-0.96,3.37-0.85,3.94,0.3
		c1.16,2.37,0.18,4.24-2.9,5.71c-2.12,1.02-4.05,1.55-5.83,1.58c-2.15,0.05-3.68-0.7-4.59-2.28c-0.79-1.39-0.75-2.96,0.18-4.69
		c0.93-1.73,2.4-3.1,4.39-4.06c1.68-0.81,3.11-1.28,4.29-1.43c1.18-0.15,2.48-0.06,3.88,0.28c-0.17-1.13,0.45-2,1.83-2.6
		c0.75-0.32,1.58-0.49,2.48-0.49c-0.54-1.17-1.07-2.34-1.61-3.5c1.35-0.57,2.7-1.12,4.06-1.66c1.54,3.52,3.07,7.03,4.61,10.55
		c-1.27,0-2.38-0.04-3.34-0.12c-0.41-0.51-0.83-1.01-1.24-1.52c-0.67-0.67-1.29-0.89-1.84-0.66c-0.94,0.4-1.24,0.94-0.92,1.62
		c0.03,0.06,0.56,0.24,1.58,0.55c-1.08,0.76-2.14,1.53-3.2,2.31c-0.32-0.37-0.72-0.67-1.21-0.9c-2.25-0.98-4.42-0.99-6.45-0.03
		c-1.15,0.55-2.05,1.24-2.71,2.07c-0.66,0.83-0.79,1.6-0.41,2.29C420.02,270.19,420.77,270.34,422.02,270.22z"/>
	<path class="st8" d="M438.73,237.26c-0.94-1.89-1.89-4.07-2.87-6.55c1.04,0.16,2.08,0.33,3.12,0.5c0.83,1.27,1.78,2.08,2.85,2.45
		c1.61-0.54,3.23-1.07,4.85-1.59c1.9,0.55,3.78,1.11,5.64,1.7c-3.07,0.91-6.12,1.88-9.16,2.9c2.94,7.93,5.89,15.86,8.83,23.78
		c-1.72-0.64-3.46-1.27-5.21-1.87c-2.16-5.52-4.33-11.04-6.49-16.56c-0.42-1.08-1.31-1.8-2.66-2.16c-1.36-0.36-2.87-0.22-4.51,0.4
		c-0.26,0.1-0.54,0.21-0.84,0.32c-1.93-0.4-3.87-0.77-5.82-1.13c1.84-0.91,3.2-1.53,4.07-1.87
		C433.96,236.28,436.72,236.19,438.73,237.26z"/>
	<path class="st8" d="M463.77,231.57c0.54-0.1,1.63-0.13,3.26-0.07c2.2,0.05,4.09,0.54,5.66,1.44c1.58,0.9,2.53,2.12,2.89,3.64
		c0.4,1.7-0.18,3.33-1.68,4.91c-0.89,0.97-2.57,2.24-5,3.86c4.27,0.69,7.79,1.73,10.57,3.03c0.48,0.22,1.98,0.93,4.43,2.17
		c1.03,1.63,2.05,3.26,3.05,4.9c-4.25-2.61-9.01-4.47-14.23-5.5c-5.22-1.03-10.27-1.15-15.01-0.4c-2.28-2.11-4.6-4.19-6.97-6.24
		c4.59,0.61,8.51,0.51,11.87-0.39c1.87-0.5,3.76-1.39,5.71-2.66c2.18-1.42,3.17-2.63,2.9-3.66c-0.22-0.88-0.91-1.46-2.09-1.75
		c-1.17-0.29-2.49-0.25-3.94,0.11c-0.31,0.08-0.57,0.16-0.78,0.24c0.12,1.1-0.4,2.29-1.54,3.58c-1.14,1.3-2.44,2.15-3.94,2.57
		c-1.28,0.36-2.43,0.41-3.46,0.14c-1.03-0.27-1.69-0.85-1.99-1.74c-0.42-1.25,0.1-2.57,1.57-3.95c0.81-0.76,2.3-1.79,4.51-3.06
		c-0.37-0.1-0.73-0.18-1.08-0.24c-0.72-0.16-1.19-0.21-1.42-0.15c-3.29,0.91-6.56,1.88-9.81,2.92c-1.96-0.51-3.94-0.99-5.93-1.45
		c11.51-3.9,23.29-7.03,35.25-9.39c1.81,0.74,3.61,1.49,5.39,2.26c-6.46,1.16-12.87,2.54-19.22,4.15
		C463.02,231.05,463.35,231.28,463.77,231.57z"/>
	<path class="st8" d="M532.38,222.27c-0.01,8.14-0.03,16.28-0.04,24.42c-0.79-0.47-1.59-0.93-2.4-1.39
		c-0.95-2.85-3.05-5.71-6.43-8.5c-2.07,2.15-4.63,3.29-7.76,3.48c-4.64,0.28-8.9-1.44-13.06-5.23c-3.25-2.94-5.79-6.38-7.55-10.4
		c1.24,0.17,2.48,0.35,3.71,0.53c2.4,3.43,4.42,5.83,6.15,7.2c2.81,2.26,6.04,3.25,9.82,3.01c1.62-0.1,2.94-0.49,3.97-1.18
		c1.02-0.69,1.52-1.55,1.47-2.61c-0.03-0.68-0.25-1.4-0.65-2.16c-0.5-0.94-1.12-1.46-1.85-1.54c-0.86,1.63-2.49,2.51-4.9,2.68
		c-1.52,0.11-2.94-0.13-4.26-0.7c-1.32-0.57-2.04-1.39-2.16-2.48c-0.13-1.24,0.62-2.27,2.25-3.1c1.28-0.64,2.83-1.02,4.63-1.14
		c3.37-0.22,6.31,0.55,8.76,2.27c2.45,1.72,3.66,3.74,3.72,6c0.01,0.4,0.02,0.81,0.03,1.21c0.64,0.89,1.28,1.78,1.91,2.67
		c-0.08-4.33-0.15-8.67-0.23-13c-10.9,0.17-21.79,0.96-32.58,2.38c-1.76-0.85-3.54-1.68-5.34-2.5c14.82-2.21,29.82-3.25,44.82-3.12
		c1.65,1.09,3.29,2.19,4.9,3.3C537.01,222.3,534.7,222.27,532.38,222.27z"/>
	<path class="st8" d="M542.13,221.61c-0.1-2.09-0.11-4.45,0-7.09c0.9,0.53,1.79,1.06,2.68,1.6c0.26,1.47,0.8,2.57,1.64,3.3
		c1.71,0.09,3.41,0.19,5.12,0.3c1.53,1.19,3.04,2.4,4.52,3.62c-3.2-0.27-6.41-0.49-9.62-0.65c-0.48,8.39-0.96,16.78-1.44,25.17
		c-1.33-1.22-2.68-2.43-4.05-3.63c0.23-5.88,0.46-11.77,0.69-17.65c0.04-1.15-0.48-2.14-1.59-2.96c-1.11-0.82-2.55-1.26-4.32-1.28
		c-0.28,0-0.58-0.01-0.91-0.01c-1.62-1.07-3.26-2.13-4.91-3.18c2.06-0.17,3.56-0.23,4.5-0.23
		C538.13,218.96,540.72,219.88,542.13,221.61z"/>
	<path class="st8" d="M581.86,226.73c-1.61,8.03-3.22,16.06-4.82,24.08c-1.23-1.3-2.48-2.59-3.75-3.87
		c0.78-4.32,1.56-8.65,2.34-12.97c0.11-0.62-0.17-1.25-0.85-1.89c-0.68-0.65-1.48-1.04-2.4-1.17c-1.38-0.2-2.15,0.27-2.33,1.4
		c-0.02,0.12,0.02,0.77,0.1,1.94c-1.04,0.14-2.07,0.29-3.1,0.45c0.11-0.27,0.21-0.54,0.32-0.81c0.02-0.12-0.14-0.41-0.48-0.87
		c-0.74-1.11-1.47-1.91-2.18-2.41c-0.83-0.57-1.99-0.94-3.48-1.1c-1.48-0.16-2.81,0.07-3.96,0.67c-1.15,0.6-1.76,1.41-1.86,2.4
		c-0.12,1.28,0.57,2.2,2.06,2.78c-0.14-0.36-0.19-0.72-0.15-1.09c0.09-0.87,0.6-1.54,1.52-2.01c0.93-0.47,2.02-0.64,3.27-0.5
		c1.47,0.16,2.63,0.82,3.46,1.95c0.68,0.96,0.94,1.94,0.79,2.92c-0.14,0.96-0.93,1.65-2.35,2.1c-1.2,0.39-2.44,0.51-3.73,0.37
		c-2.98-0.32-5.29-1.16-6.97-2.59c-1.68-1.42-2.46-3.2-2.29-5.34c0.13-1.73,0.93-3.22,2.41-4.45c1.72-1.39,3.91-1.98,6.52-1.72
		c2.7,0.27,4.96,1.33,6.73,3.15c0.53-0.53,1.26-0.99,2.17-1.37c0.91-0.38,1.71-0.52,2.4-0.42c2.23,0.31,3.96,1.45,5.14,3.37
		c0.23-1.27,0.46-2.54,0.69-3.81c-8.71-1.4-17.5-2.4-26.32-2.98c-1.58-1.21-3.18-2.41-4.81-3.59c13.81,0.67,27.57,2.33,41.11,4.99
		c1.42,1.4,2.81,2.82,4.17,4.24C588.12,227.91,585,227.29,581.86,226.73z"/>
	<path class="st8" d="M602.5,232.16c0.53,0.17,1.48,0.66,2.86,1.49c1.87,1.09,3.25,2.42,4.13,3.95c0.88,1.53,1.06,3.04,0.57,4.52
		c-0.56,1.66-1.92,2.8-4.06,3.45c-1.28,0.41-3.41,0.71-6.37,0.95c3.33,2.63,5.82,5.21,7.54,7.66c0.3,0.42,1.22,1.75,2.68,3.99
		c0.03,1.9,0.04,3.8,0.04,5.69c-2.29-4.28-5.43-8.16-9.39-11.54c-3.97-3.38-8.27-5.89-12.76-7.5c-0.85-2.91-1.75-5.82-2.71-8.72
		c3.64,2.72,7.08,4.5,10.46,5.32c1.88,0.46,3.99,0.59,6.35,0.42c2.64-0.19,4.13-0.77,4.45-1.78c0.27-0.86-0.02-1.7-0.88-2.51
		c-0.86-0.81-2.02-1.4-3.46-1.78c-0.31-0.08-0.58-0.13-0.8-0.16c-0.48,1-1.56,1.78-3.23,2.36c-1.67,0.58-3.25,0.7-4.77,0.35
		c-1.3-0.3-2.32-0.81-3.06-1.53c-0.74-0.72-1.01-1.54-0.8-2.45c0.3-1.28,1.45-2.18,3.45-2.66c1.1-0.27,2.94-0.45,5.52-0.5
		c-0.27-0.26-0.53-0.5-0.81-0.73c-0.54-0.48-0.92-0.75-1.15-0.8c-3.32-0.78-6.66-1.5-10.02-2.15c-1.43-1.37-2.87-2.74-4.35-4.09
		c12,2.12,23.85,5.02,35.44,8.69c1.18,1.5,2.33,3.01,3.46,4.53c-6.2-2.09-12.48-3.95-18.82-5.58
		C602.14,231.36,602.3,231.72,602.5,232.16z"/>
	<path class="st8" d="M621.15,235.86c0.55-2.02,1.29-4.28,2.21-6.77c0.69,0.76,1.38,1.52,2.06,2.29c-0.22,1.48-0.04,2.68,0.54,3.62
		c1.6,0.57,3.2,1.15,4.79,1.75c1.09,1.58,2.15,3.16,3.19,4.75c-2.97-1.18-5.97-2.3-8.98-3.37c-3.08,7.88-6.16,15.76-9.24,23.64
		c-0.89-1.54-1.8-3.08-2.74-4.61c2.06-5.56,4.11-11.11,6.17-16.67c0.4-1.08,0.21-2.18-0.59-3.28c-0.8-1.1-2.05-1.92-3.73-2.45
		c-0.27-0.08-0.55-0.17-0.86-0.27c-1.21-1.48-2.44-2.96-3.7-4.42c2.02,0.42,3.48,0.78,4.37,1.05
		C618.15,232.19,620.33,233.81,621.15,235.86z"/>
	<path class="st8" d="M636.64,242.53c-1.18,2.63-2.36,5.26-3.54,7.89c1.24-0.27,3.15-0.58,5.73-0.9c2.76-0.27,6.28-0.05,10.54,0.77
		c1.49,1.98,2.94,3.98,4.34,5.99c-4.86,2.28-7.97,4.95-9.5,7.83c-0.12,0.22-0.26,0.56-0.43,1.02c-0.17,0.46-0.32,0.8-0.43,1.02
		c-0.21,0.39-0.76,2.26-1.71,5.61c-0.83-0.9-1.68-1.8-2.53-2.7c0.87-4.41,1.78-7.66,2.82-9.7c0.84-1.65,1.87-3.16,3.12-4.51
		c-5.96-0.89-10.99,0.33-14.98,3.46c-1.07-1.85-2.18-3.69-3.32-5.53c1.72-4.05,3.44-8.09,5.15-12.14c-0.97-0.37-1.93-0.74-2.9-1.1
		c-1.12-1.57-2.27-3.13-3.44-4.69c11.85,4.18,23.4,9.18,34.52,15.01c0.93,1.71,1.83,3.43,2.71,5.15
		C654.31,250.36,645.58,246.2,636.64,242.53z"/>
	<path class="st8" d="M665.31,256.42c-4.31,7.1-8.62,14.19-12.94,21.29c-0.67-1.65-1.37-3.29-2.1-4.94
		c3.62-6.22,7.24-12.44,10.87-18.66c-1.15-0.62-2.31-1.24-3.47-1.84c-1.02-1.75-2.07-3.5-3.14-5.24c2.86,1.41,5.69,2.88,8.5,4.4
		c0.08-0.42,0.17-0.84,0.25-1.26c0.16-0.74-0.13-2.16-0.89-4.26c-1.42-3.82-5.57-7.51-12.52-10.64c-5.63-2.52-8.75-3.09-9.23-2.02
		c-0.14,0.31,0.54,0.83,2.05,1.56c2.21,1.03,4.39,2.08,6.57,3.17c2.84,1.46,4.82,2.86,5.96,4.15c1.57,1.71,1.89,3.38,1,5.01
		c-0.25,0.47-0.68,0.96-1.27,1.47c-1.87-0.93-3.74-1.84-5.63-2.73c2.29-0.1,3.52-0.28,3.68-0.59c0.34-0.64-0.98-1.76-4-3.29
		c-1.72-0.86-3.45-1.7-5.2-2.52c-1.87-0.88-3.44-2.01-4.73-3.41c-1.51-1.59-2.01-3.02-1.47-4.28c0.58-1.35,2.81-1.82,6.69-1.29
		c3.13,0.43,5.93,1.21,8.38,2.33c2.27,1.04,4.96,2.73,7.99,5.12c1.39,1.12,2.84,2.77,4.31,4.97c1.95,2.92,2.62,6.51,2.03,10.73
		c1.72,0.97,3.43,1.97,5.13,2.98c0.8,1.74,1.57,3.49,2.32,5.23C671.44,259.98,668.39,258.17,665.31,256.42z"/>
	<path class="st8" d="M705.68,289.74c1.78-2.65,4.03-5.45,6.76-8.4c0.44,1.1,0.88,2.21,1.3,3.31c-0.01,0.18-0.02,0.37-0.03,0.55
		c-0.58,0.75-0.64,1.63-0.17,2.64c0.55,0.52,1.35,1.28,2.4,2.3c0.37,0.36,0.72,0.75,1.05,1.16c0.37,1.9,0.72,3.79,1.04,5.69
		c-2.3-2.36-4.65-4.66-7.04-6.91c-5.65,5.86-11.3,11.73-16.95,17.59c-0.46-1.35-0.87-3.18-1.28-5.5c2.93-2.94,5.86-5.88,8.8-8.82
		c0.28-0.3,0.46-1.01,0.53-2.14c0.07-1.13-0.01-2.08-0.23-2.87c-4.66-0.51-9.29-0.85-13.88-1.05c-1.26-1.7-2.54-3.39-3.86-5.06
		c0.97,0.05,1.96,0.12,2.99,0.19c1.3,0.01,2.13-0.19,2.47-0.61c0.82-1,0.81-1.83-0.01-2.46c-0.32-0.25-0.99-0.56-1.99-0.92
		c-1.01-0.36-1.74-0.71-2.21-1.06c-0.62-0.45-1.03-1.09-1.26-1.91c-0.22-0.82-0.18-1.45,0.14-1.88c0.28-0.38,0.77-0.65,1.47-0.81
		c4.95-1.1,9.83,0.15,14.35,3.81c2.22,1.8,3.82,3.97,4.77,6.47C705.75,285.33,706.02,287.57,705.68,289.74z M692.04,277.41
		c0.82,0.79,1.34,1.71,1.56,2.75c0.21,1.03,0.13,1.91-0.24,2.63c2.54,0.2,5.1,0.44,7.66,0.73c-0.34-1.36-1.15-2.58-2.44-3.63
		C696.25,277.98,694.05,277.16,692.04,277.41z"/>
	<path class="st8" d="M741.2,312.47c-1.1-5.16-3.24-9.57-6.3-13.09c-3.06-3.52-6.76-5.3-10.91-5.33c-0.83,0-1.33,0.08-1.49,0.23
		c-0.08,0.28-0.25,0.93-0.5,1.95c1.49,1.56,2.96,3.14,4.42,4.75c0.31,1.97,0.59,3.93,0.84,5.89c-2.16-2.49-4.37-4.93-6.62-7.32
		c-6.02,5.63-12.04,11.25-18.06,16.88c-0.25-1.83-0.52-3.66-0.81-5.49c5.14-4.99,10.27-9.98,15.41-14.97
		c-1.11-1.12-2.23-2.23-3.36-3.33c-0.39-1.9-0.81-3.81-1.26-5.71c2.21,2.06,4.38,4.16,6.51,6.31c-0.43-1.96-0.38-3.23,0.21-3.81
		c0.63-0.62,1.34-0.97,2.15-1.01c5.28-0.28,10.01,1.75,13.89,6.07c5.2,5.8,8.2,13.29,8.69,21.95c-0.5,1.05-1.01,2.1-1.52,3.15
		C742.09,317.21,741.66,314.84,741.2,312.47z"/>
	<path class="st8" d="M740,323.03c-6.56,4.82-13.12,9.64-19.68,14.46c-0.3-1.29-0.31-2.63-0.02-4.05c0.39-1.17,0.75-2.36,1.08-3.55
		c0.61-2.08,0.53-4.52-0.29-7.29c-0.81-2.76-2.15-5.32-4-7.63c0.12-2.3,0.21-4.61,0.26-6.93c7.39,2.88,13.8,6.77,19.07,11.41
		c0.2-0.15,0.4-0.31,0.6-0.46c-4.29-5.72-8.82-11.18-13.57-16.39c-0.31-1.97-0.65-3.93-1.02-5.9c8.19,8.61,15.79,17.93,22.71,27.97
		c0.09,2.05,0.15,4.1,0.19,6.15C743.61,328.17,741.83,325.58,740,323.03z M714.21,325.78c-0.71-0.87-1.1-1.81-1.17-2.83
		c-0.07-1.02,0.2-1.79,0.83-2.33c0.58-0.49,1.32-0.64,2.22-0.42c0.91,0.22,1.7,0.74,2.38,1.56c0.7,0.86,1.09,1.8,1.16,2.83
		c0.07,1.02-0.21,1.78-0.83,2.28c-0.59,0.47-1.34,0.61-2.25,0.41C715.65,327.09,714.87,326.59,714.21,325.78z M732.81,322.21
		c-3.08-2.52-6.51-4.64-10.23-6.33c1.97,4.77,2.52,9.08,1.79,12.79C727.19,326.52,730,324.37,732.81,322.21z"/>
	<path class="st8" d="M747.35,333.93c0.25,0.13,0.5,0.25,0.74,0.38c-0.87,0.51-1.17,0.96-0.88,1.36c-0.31,1.53-0.26,3.24,0.14,5.14
		c0.23,0.94,0.8,2.76,1.66,5.49c0.7,2.21,1.05,3.88,1.07,4.98c0.05,1.69-0.49,2.84-1.6,3.46c-2.12,1.19-5.18,0.98-9.18-0.39
		c-4.25-1.49-7.21-3.57-8.96-6.41c-0.75-1.21-1.01-2.69-0.8-4.47c0.21-1.78,0.72-2.96,1.55-3.53c4.66-3.18,9.31-6.36,13.97-9.54
		c-0.88-1.33-1.76-2.65-2.66-3.95c-0.05-2-0.13-4-0.23-6c6.85,9.48,13.08,19.63,18.58,30.44c-0.14,2.11-0.31,4.22-0.51,6.32
		C756.33,349.07,752.02,341.32,747.35,333.93z M744.9,348.75c-1.29-4.34-1.77-8.1-1.33-11.4c-3.3,2.16-6.61,4.33-9.91,6.49
		c-0.47,0.31-0.58,0.68-0.32,1.1c0.84,1.35,3.15,2.63,6.96,4.05c1.77,0.66,3.14,0.72,4.11,0.14
		C744.6,349.02,744.76,348.89,744.9,348.75z"/>
	<path class="st8" d="M761,356.81c1.79-1.16,3.86-2.36,6.24-3.59c-0.02,1.12-0.04,2.25-0.07,3.37c-1.17,0.99-1.86,2.07-2.09,3.25
		c0.77,1.69,1.53,3.39,2.27,5.11c-0.3,2.09-0.62,4.18-0.97,6.26c-1.33-3.29-2.72-6.52-4.17-9.69c-7.63,3.79-15.26,7.58-22.89,11.37
		c0.41-1.9,0.81-3.81,1.18-5.72c5.3-2.76,10.59-5.52,15.89-8.28c1.03-0.54,1.64-1.54,1.82-3.01c0.17-1.47-0.17-3.06-1.05-4.75
		c-0.14-0.27-0.29-0.55-0.45-0.86c0.13-2.07,0.23-4.14,0.31-6.22c1.19,1.84,2.01,3.22,2.48,4.1
		C761.34,351.65,761.81,354.58,761,356.81z"/>
	<path class="st8" d="M782.71,397.12c0.76-5.82,0.28-11.26-1.37-16.15c-1.65-4.89-4.49-8.23-8.34-9.98
		c-0.78-0.35-1.27-0.47-1.47-0.38c-0.17,0.25-0.55,0.84-1.13,1.77c0.86,2.2,1.69,4.42,2.5,6.66c-0.39,2.13-0.8,4.25-1.23,6.37
		c-1.16-3.46-2.38-6.87-3.66-10.23c-7.53,3.21-15.06,6.43-22.59,9.64c0.39-1.96,0.77-3.93,1.11-5.9c6.49-2.93,12.98-5.87,19.47-8.8
		c-0.65-1.59-1.32-3.17-2-4.73c0.28-2.08,0.53-4.16,0.77-6.25c1.36,2.95,2.68,5.96,3.93,9c0.27-2.16,0.75-3.41,1.49-3.76
		c0.8-0.37,1.58-0.43,2.35-0.15c5.02,1.87,8.74,5.87,10.87,11.91c2.86,8.09,3.08,17.1,0.54,26.31c-0.83,0.88-1.66,1.75-2.5,2.61
		C781.9,402.42,782.32,399.77,782.71,397.12z"/>
	<path class="st8" d="M779.33,413.96c-7.97,2-15.94,3.99-23.91,5.99c0.68-1.96,1.34-3.92,1.97-5.9c4.26-1.17,8.51-2.34,12.77-3.5
		c0.61-0.17,1.06-0.77,1.37-1.81c0.3-1.04,0.32-2.08,0.06-3.13c-0.4-1.57-1.15-2.18-2.25-1.84c-0.12,0.04-0.69,0.38-1.72,1.01
		c-0.57-1.04-1.14-2.08-1.72-3.1c0.29-0.01,0.58-0.02,0.88-0.04c0.12-0.04,0.32-0.34,0.59-0.91c0.69-1.3,1.11-2.44,1.25-3.42
		c0.16-1.14,0-2.54-0.5-4.16c-0.5-1.62-1.28-2.9-2.32-3.81c-1.05-0.91-2.05-1.18-2.99-0.82c-1.21,0.46-1.75,1.6-1.62,3.41
		c0.26-0.31,0.57-0.53,0.92-0.66c0.82-0.3,1.65-0.09,2.48,0.66c0.83,0.75,1.46,1.81,1.87,3.18c0.49,1.62,0.39,3.14-0.29,4.55
		c-0.58,1.16-1.36,1.89-2.31,2.19c-0.93,0.3-1.89-0.22-2.91-1.52c-0.86-1.08-1.51-2.33-1.94-3.75c-1-3.27-1.24-6.04-0.68-8.42
		c0.56-2.38,1.82-3.98,3.83-4.79c1.63-0.66,3.33-0.53,5.09,0.43c2.02,1.13,3.51,3.12,4.4,5.96c0.93,2.94,0.94,5.81,0.04,8.52
		c0.71,0.32,1.44,0.88,2.17,1.67c0.73,0.8,1.2,1.59,1.4,2.36c0.66,2.53,0.35,4.92-0.91,7.09c1.25-0.34,2.5-0.69,3.75-1.03
		c-2.35-10.09-5.23-19.78-8.6-29.05c0.4-2.17,0.77-4.34,1.12-6.53c5.55,14.27,9.95,29.53,13.03,45.78c-0.7,2.23-1.43,4.45-2.18,6.65
		C780.82,421.41,780.11,417.66,779.33,413.96z"/>
	<path class="st8" d="M780.37,418.89c0.69-2.14,1.35-4.3,1.99-6.46c3.77,17.65,5.97,36.51,6.38,56.57
		c-1.02,2.31-2.07,4.61-3.15,6.89C785.59,455.68,783.78,436.68,780.37,418.89z M764.46,449.24c-0.15-1.61-0.14-3.43,0.02-5.46
		c0.15-2.04,0.45-3.68,0.93-4.94c2.19-6.09,7.26-12.15,15.22-18.65c-0.06,1.49-0.13,2.98-0.21,4.48c-3.89,4.15-6.53,7.22-7.85,9.39
		c-2.72,4.56-3.79,9.47-3.29,15.04c0.22,2.51,0.97,4.89,2.23,7.18c1.27,2.29,2.55,3.43,3.88,3.34c1.12-0.07,2.12-0.78,3.01-2.12
		c0.89-1.34,1.27-2.92,1.14-4.71c-0.03-0.4-0.1-0.86-0.2-1.37c-0.63,0.76-1.38,1.17-2.24,1.25c-2.51,0.23-3.92-2.14-4.4-6.98
		c-0.25-2.48-0.01-4.45,0.75-5.96c0.76-1.51,1.82-2.37,3.21-2.59c1.54-0.24,2.98,0.66,4.29,2.76c1.2,2.01,1.95,4.47,2.21,7.36
		c0.45,5.03-0.35,9.39-2.33,12.87c-1.84,3.24-4.14,4.89-6.84,5c-2.45,0.11-4.53-1.52-6.31-4.71
		C765.9,457.23,764.85,453.52,764.46,449.24z"/>
</g>
<g>
	<g>
		<path class="st9" d="M530.01,298.1c0.01-0.08,0.03-0.16,0.03-0.25c0,0,0,0,0-0.01"/>
		<path class="st9" d="M543.16,557.01l-0.01,0c0,0,0,0,0,0C543.14,557,543.15,557,543.16,557.01z"/>
		<path class="st9" d="M621.88,485.31c-2.18-13.94-10.65-26.01-18.72-37.66c-16.06-23.19-31.44-46.88-48.61-69.28
			c-5.11-6.66-10.42-13.29-13.87-20.92c-3.24-7.17-4.69-15.48-2.38-22.95c-3.3,9.54-6.75,18.7-3.11,28.77
			c2.02,5.61,5.4,10.63,8.74,15.6c21.15,31.42,42.29,62.84,63.44,94.26c4.03,5.98,8.12,12.11,9.97,19.06
			c1.85,6.95,1.08,15-3.78,20.35c-3.43-1.76-6.47-4.23-8.89-7.2c0,0-1.78-1.99-2.56-3.61c5.74-10.62,5-3.99,8.16-0.19L609.39,486
			c0,0-1.94-9.13-8.73,1c0,0-5.97,10.07-9.9,19.5c-3.92,9.4-24.76,26.88-27.27-1.52c11.86,0.12,22.26-2.3,22.26-2.3
			s14.87-33.28-4.38-52.21c-19.25-18.93-14.22-24.3-13.87-25.54c0.21-0.76-12.32,19.04-12.49,29.92
			c-0.25,15.65,29.82,29.54,29.82,29.54s3.1,1.6,0.75,5.38c-2.35,3.78-26.59,3.04-26.39,0.7c0.21-2.34-8.71-22.35-14.51-31.05
			c-4.98-7.46-3.97-10.95-3.59-11.79l-1.73,3.17c-7.57,14.41-18.75,27.34-5.03,44c4.66,5.65,12.08,8.38,19.84,9.51l0.18,3.06
			c0.18,3.08-0.32,6.17-1.5,9.02c-7.58,18.39-21.81,31.21-39.34,38.87c-18.76,8.2-44.7-3.93-45.31-4.22
			c21.43,16.81,42.16,16.22,45.6,15.99c0,0,0,0,0.01,0c0.05,0,0.1-0.01,0.16-0.01c0.02,0,0.04-0.01,0.07-0.01
			c0.26-0.03,0.51-0.1,0.7-0.15c0,0,0.01,0,0.01,0c0.05-0.01,0.09-0.03,0.13-0.04c0.01-0.01,0.03-0.01,0.05-0.02
			c0.05-0.02,0.1-0.03,0.15-0.05c38.43-13.64,42.75-58.76,43.01-61.98c1.25,0.1,2.49,0.17,3.72,0.2l0,0
			c-1.06,9.52-1.39,27.97,11.39,30.24c0,0,11.36,3.32,23.35-22.22c0.14-0.01,0.18-0.02,0.32-0.03c1.49,2.17,4.64,6.58,7.85,9.86
			c1.18,1.2,2.36,2.26,3.47,2.99c0.45,0.28,0.92,0.53,1.4,0.76l0,0c1.1,0.52,2.28,0.9,3.49,1.12
			C619.31,514.39,624.14,499.76,621.88,485.31z M561.73,453.48c0,0-3.43-4.56-0.52-9.6c0,0,1.77,6.06,17.06,21.54
			C578.27,465.42,566.5,460.87,561.73,453.48z M534.26,470.61l0.72-5.6c0,0,4.33,11.88,12.5,21.78
			C547.48,486.8,533.6,480.62,534.26,470.61z"/>
		<path class="st9" d="M608.21,525.78c-1.31-0.8-2.49-1.82-3.47-2.99C605.91,523.99,607.1,525.05,608.21,525.78z"/>
		<path class="st9" d="M570.49,390.74"/>
		<g>
			<path class="st9" d="M636.98,496.27c0.05,3.61-0.2,7.22-0.78,10.8c-3.09,19.09-15.84,36.11-32.73,45.9
				c-16.89,9.79-37.51,12.55-56.76,9.03c22.13,1.2,44.63-6.56,61.2-21.11c11.63-10.22,20.54-24.27,21.54-39.61
				c1.28-19.73-10.24-37.79-21.3-54.27c-17.3-25.76-34.6-51.52-51.9-77.28c-5.56-8.27-11.23-17.01-13.43-26.83
				c-2.11-9.43-0.14-19.64,5.79-27.39c-3.4,6.25-3.1,13.96-0.81,20.69c2.29,6.73,6.38,12.69,10.42,18.56
				c15.86,23.05,31.72,46.09,47.58,69.14c8.61,12.5,17.26,25.1,23.34,38.98C633.76,473.42,636.83,484.84,636.98,496.27z"/>
		</g>
		<path class="st9" d="M451.11,522.31c-1.19-1.92-2.07-3.86-2.68-5.76C449.2,518.51,450.11,520.44,451.11,522.31z"/>
		<path class="st9" d="M544.7,305.32c-0.65,7.26-3.39,14.3-6.34,21.04c-21.57,49.17-56.51,91.44-81.51,139
			c-5.61,10.67-10.8,21.93-11.56,33.93s3.78,24.98,14.04,31.46c11.31,7.14,26.9,4.57,37.81-3.18s17.94-19.68,23.53-31.74
			c-7.4-4.33-14.87-8.73-21.02-14.66s-10.95-13.65-11.67-22.12c-1.04-12.34,6.54-23.73,14.86-33c4.42-4.93,9.38-9.75,15.67-11.95
			c1.42-0.5,3.25-0.75,4.23,0.38c0.69,0.79,0.65,1.95,0.58,2.99c-0.34,5.01-0.69,10.03-1.03,15.04c1.02-2.25-1.48-4.81-3.98-4.84
			c-2.49-0.03-4.68,1.56-6.58,3.16c-6.88,5.78-12.85,12.61-17.62,20.18c-1.32,2.09-2.59,4.49-2.07,6.9c0.4,1.87,1.82,3.35,3.21,4.68
			c5.75,5.51,12.12,10.38,18.95,14.51c2.61,1.58,5.36,3.11,7.17,5.54c1.37,1.84,2.1,4.06,2.59,6.29
			c3.91,17.75-6.41,35.75-19.51,48.51c-6.68,6.5-14.8,12.44-24.15,13c-5.73,0.34-11.45-1.4-16.48-4.14
			c-14.37-7.81-23.27-23.49-25.33-39.55s2.04-32.42,8.82-47.17s16.16-28.16,25.28-41.62c22.19-32.77,43.13-66.4,62.07-101.1
			c4.65-8.52,9.28-18.52,5.62-27.49c-3.34-8.18-13.94-12.6-22.21-9.27c-7.8,3.14-12.25,11.83-12.3,20.14
			c0.26-2.14,0.51-4.29,0.77-6.43c0.09-0.78,0.16-1.52,0.55-2.21c0.36-0.63,0.58-1.29,0.85-1.96c0.52-1.33,1.23-2.58,2.08-3.73
			c0.85-1.15,1.85-2.2,2.95-3.12c1.11-0.93,2.32-1.74,3.61-2.41c1.29-0.67,2.65-1.2,4.05-1.57c1.39-0.37,2.83-0.59,4.28-0.62
			c1.44-0.04,2.89,0.11,4.29,0.44c0.55,0.13,1.09,0.29,1.63,0.49c8.76,3.15,13.76,12.8,14.02,22
			C544.88,302.54,544.83,303.94,544.7,305.32z"/>
		<path class="st9" d="M543.16,557.01l-0.01,0c0,0,0,0,0,0C543.14,557,543.15,557,543.16,557.01z"/>
		<path class="st9" d="M515.09,566.72L515.09,566.72c0,0-0.08,0.03-0.19,0.07c0.01-0.01,0.03-0.01,0.05-0.02
			C514.99,566.76,515.04,566.74,515.09,566.72z"/>
		<path class="st9" d="M609.6,526.53L609.6,526.53c-0.45-0.18-0.91-0.44-1.4-0.76C608.66,526.06,609.12,526.31,609.6,526.53z"/>
		<path class="st10" d="M577.56,545.15c-6.73,3.42-9.51,4.86-17.17,7c-3.91,1.09-18.87,1.48-21.2,1.99
			c1.83,1.84,17.35,2.92,20.62,2.54c12.16-1.34,18.69-3.56,28.92-10.6c3.06-2.1,5.99-4.6,5.98-4.9c-0.11-2.03-1.28-4.39-2.89-5.71
			C586.36,540.26,581.28,543.27,577.56,545.15z"/>
		<path class="st10" d="M532.47,431.51c3.91-0.25,14.46-0.72,16.79,1.59c-1.79,1.44-5.21,2.64-7.37,3.76l-5.91,2.68
			c-1.99,1.02-0.97-0.12-1.48,1.41c2.89,0.92,12.08-1.45,14.69-2.97c1.99-1.15,8.02-7.1,7.91-10.53c-0.1-2.77-3.01-2.99-5.46-3.56
			c-2.78-0.66-5.49-1.08-8.47-1.11c-5.25-0.06-4.71,0.1-6.88,2.83C534.89,427.42,533.24,429.29,532.47,431.51L532.47,431.51z"/>
		<path class="st10" d="M494.09,426.15c0.57-2.07,4.13-9.6,11.6-14.39c4.48-2.87,8.89-3.56,11.29-3.75
			c-2.2-0.21-9.48-0.64-16.74,3.98c-8.03,5.11-10.48,12.87-11.03,14.81C491.06,426.81,492.16,426.5,494.09,426.15z"/>
		<path class="st10" d="M535.84,520.15c-1.43,2.66-6.53,14.88-21.39,24.11c-2.98,1.85-6.71,3.46-6.71,3.46
			c-4.83,2.17-9.08,3.43-12.12,4.17l0,0c4.63,0.42,12.13-0.7,20.52-4.28c2.75-1.17,7.53-3.56,12.54-7.77
			c7.86-6.61,11.36-14.41,12.91-18.94C539.23,520.66,539.95,520.72,535.84,520.15z"/>
		<path class="st10" d="M593.46,485.16c0.64-1.84,3.73-11.06,2.15-18.18c-0.48-2.17-1.34-4.6-1.34-4.6
			c-1.12-3.16-2.42-5.65-3.42-7.37l0,0c2.28,1.91,5.1,5.82,7.14,11.23c0.67,1.77,1.66,5.01,1.88,9.17
			c0.34,6.53-1.84,11.61-3.33,14.34C595.43,488.5,594.17,486.78,593.46,485.16z"/>
		<path class="st10" d="M565.23,417.75c-1.66-1.04-9.9-6.34-13.16-12.88c-0.99-1.99-1.85-4.42-1.85-4.42
			c-1.12-3.16-1.68-5.91-1.98-7.87l0,0c-0.57,2.89-0.31,7.69,1.51,13.17c0.6,1.8,1.87,4.94,4.32,8.32
			c3.85,5.31,8.77,7.93,11.65,9.16C565.8,421.58,565.7,419.46,565.23,417.75z"/>
		<path class="st10" d="M508.33,443.05c1.45-0.6,1.9-1.61,3.32-2.14c1.72-0.61,2.94,0.45,3.35,1.71
			c2.31,7.36-10.85,19.7-11.27,22.84c2.04-0.66,6.17-6.19,7.41-8c1.96-2.85,4.23-6.26,5.88-9.51c4.63-9.18-1.16-15.01-6.04-9.82
			C510.06,439.09,507.72,441.18,508.33,443.05L508.33,443.05z"/>
		<path class="st10" d="M521.66,373.66l7.46,4.87l-4.78,8.21l9.28,5.74l5.11-7.9l-7.46-4.87c1.26-2.7,3.67-5.47,4.62-8.18
			l-9.17-5.62L521.66,373.66z"/>
		<path class="st10" d="M525.82,399.5l7.46,4.87l-4.78,8.21l9.28,5.74l5.11-7.9l-7.46-4.87c1.26-2.7,3.67-5.47,4.62-8.18l-9.17-5.62
			L525.82,399.5z"/>
		<path class="st10" d="M481.65,521.38c-3.53,3.64-8,2.53-4.89-3.5C478.42,518.28,481.01,519.94,481.65,521.38L481.65,521.38z
			 M470.37,499.41c2.87,1.55,5.5,4.74,5.77,9.83c0.27,5.17-2.36,9.18-1.99,13.6c0.47,5.75,6.65,4.31,8.57,0.28
			c2.77-5.77-2.65-6.75-5.61-8.72c-0.03-4.53,1.38-6.06-0.23-11.1c-0.94-2.91-3.28-6.91-5.4-7.69
			C470.7,496.74,470.46,497.77,470.37,499.41L470.37,499.41z"/>
		<g>
			<path class="st10" d="M498.64,511.96c-1.62-1.21-3.63-9.51-8.74-8.41c-0.34,1.07-0.44,2.3-0.18,3.66
				c0.53,0.34,2.02,1.46,3.05,1.61c0.65,0.11,1.24-0.61,2.7,1.52c0.97,1.47,2.05,5.55,3.39,6.35l1.34-6.66
				c1.08-9.23,3.56-5.16,4.9-4.14c0.9-1.67,1.04-2.78-0.3-4.02C499.74,497.15,498.95,509.34,498.64,511.96L498.64,511.96z"/>
			<path class="st10" d="M494.42,497.94c0.1,7.7,5.83,6.59,5.34,0.28c-1.16,0.72-0.83,2.32-2.36,2.26
				c-3.63-0.1,0.09-12.31,0.19-14.55C495.57,487.29,494.39,495.83,494.42,497.94L494.42,497.94z"/>
		</g>
		<path class="st10" d="M512.19,391.88c0.13,9.9,7.49,8.48,6.86,0.36c-1.49,0.92-1.07,2.98-3.03,2.91
			c-4.67-0.13,0.12-15.83,0.24-18.7C513.67,378.19,512.15,389.17,512.19,391.88L512.19,391.88z"/>
		<path class="st10" d="M555.51,537.95c0.13,9.9,7.49,8.48,6.86,0.36c-1.49,0.92-1.07,2.98-3.03,2.91
			c-4.67-0.13,0.12-15.83,0.24-18.7C556.99,524.26,555.47,535.24,555.51,537.95L555.51,537.95z"/>
		<path class="st10" d="M528.25,510.26c0.12,8.82,7.48,7.54,6.86,0.31c-1.49,0.82-1.08,2.66-3.04,2.6
			c-4.67-0.11,0.14-14.1,0.27-16.66C529.76,498.06,528.22,507.84,528.25,510.26L528.25,510.26z"/>
		<path class="st10" d="M471.48,472.2c0.17,12.65,10.74,10.82,9.85,0.45c-2.14,1.18-1.54,3.81-4.36,3.73
			c-6.71-0.16,0.2-20.24,0.39-23.92C473.64,454.69,471.44,468.74,471.48,472.2L471.48,472.2z"/>
		<path class="st10" d="M453.84,503.88c0.17,12.65,10.74,10.82,9.85,0.45c-2.14,1.18-1.54,3.81-4.36,3.73
			c-6.71-0.16,0.2-20.24,0.39-23.92C455.99,486.37,453.79,500.42,453.84,503.88L453.84,503.88z"/>
		<path class="st10" d="M595.15,523.49c1.06,1.93,3.12,3.13,4.39,5.71c1.75,3.61,0.97,5.13,1.26,9.02
			c3.87-2.59,1.08-16.67-4.31-17.79L595.15,523.49z"/>
		<path class="st10" d="M570.23,508.32c0.94,0.57,1.79,0.97,2.66,1.26c1.87,0.62,3.4,0.67,4.26,0.69c3.37,0.06,5.93-0.98,6.97-1.46
			c1.05-0.48,2.56-1.31,4.12-2.73c-0.6,4.58-14.49,10.27-20.39,5.44L570.23,508.32z"/>
		<path class="st10" d="M471.86,500.32"/>
	</g>
</g>
</svg>
